<svg width="199" height="124" viewBox="0 0 199 124" fill="none" xmlns="http://www.w3.org/2000/svg">
<mask id="mask0_273_499" style="mask-type:luminance" maskUnits="userSpaceOnUse" x="0" y="0" width="19" height="124">
<path d="M0 0H18.6667V124H0V0Z" fill="white"/>
</mask>
<g mask="url(#mask0_273_499)">
<path d="M9.26562 0.00512695C11.8177 0.00512695 14.1354 1.04679 15.8125 2.72388C17.4948 4.40617 18.5365 6.72388 18.5365 9.27075V114.594C18.5365 117.146 17.4948 119.463 15.8125 121.141C14.1354 122.818 11.8177 123.859 9.26562 123.859C6.71875 123.859 4.40104 122.818 2.72396 121.141C1.04167 119.463 0 117.146 0 114.594V9.27075C0 6.72388 1.04167 4.40617 2.72396 2.72388C4.40104 1.04679 6.71875 0.00512695 9.26562 0.00512695ZM12.5156 6.02075C11.6823 5.18742 10.5313 4.67179 9.26562 4.67179C8.00521 4.67179 6.85417 5.18742 6.02083 6.02075C5.18229 6.85929 4.66667 8.01033 4.66667 9.27075V114.594C4.66667 115.854 5.18229 117.005 6.02083 117.844C6.85417 118.677 8.00521 119.198 9.26562 119.198C10.5313 119.198 11.6823 118.677 12.5156 117.844C13.3542 117.005 13.8698 115.854 13.8698 114.594V9.27075C13.8698 8.01033 13.3542 6.85929 12.5156 6.02075Z" fill="#0569A2"/>
</g>
<mask id="mask1_273_499" style="mask-type:luminance" maskUnits="userSpaceOnUse" x="13" y="68" width="186" height="21">
<path d="M13.3335 68.6145H199V88.6145H13.3335V68.6145Z" fill="white"/>
</mask>
<g mask="url(#mask1_273_499)">
<path d="M182.813 88.3176C184.099 88.3176 185.146 87.276 185.146 85.9895C185.146 84.6978 184.099 83.6562 182.813 83.6562H18.5368V74.4478H194.354V85.8749C194.349 85.9114 194.349 85.9478 194.349 85.9895C194.349 87.276 195.396 88.3176 196.683 88.3176C195.396 88.3176 194.354 87.276 194.354 85.9895V85.8749C194.412 84.6353 195.433 83.6562 196.683 83.6562V85.9895V88.3176C197.974 88.3176 199.016 87.276 199.016 85.9895V72.1197C199.016 70.828 197.974 69.7864 196.683 69.7864H16.2035C14.917 69.7864 13.8701 70.828 13.8701 72.1197V85.9895C13.8701 87.276 14.917 88.3176 16.2035 88.3176H182.813Z" fill="#0569A2"/>
</g>
<mask id="mask2_273_499" style="mask-type:luminance" maskUnits="userSpaceOnUse" x="180" y="68" width="19" height="56">
<path d="M180 68.6145H199V124H180V68.6145Z" fill="white"/>
</mask>
<g mask="url(#mask2_273_499)">
<path d="M182.812 69.7864H196.682C197.969 69.7864 199.015 70.828 199.015 72.1197V115.073C199.015 117.625 197.974 119.943 196.292 121.62C194.614 123.297 192.297 124.338 189.745 124.338C187.198 124.338 184.88 123.297 183.198 121.62C181.521 119.943 180.479 117.625 180.479 115.073V72.1197C180.479 70.828 181.526 69.7864 182.812 69.7864ZM194.349 74.4478H185.146V115.073C185.146 116.338 185.661 117.49 186.5 118.323C187.333 119.156 188.484 119.677 189.745 119.677C191.01 119.677 192.161 119.156 192.995 118.323C193.833 117.49 194.349 116.338 194.349 115.073V74.4478Z" fill="#0569A2"/>
</g>
<path d="M54.1196 55.9166C52.8332 55.9166 51.7863 56.9583 51.7863 58.25C51.7863 59.5364 52.8332 60.5833 54.1196 60.5833H161.026C162.542 60.5833 165.312 61.5052 168.052 62.75C170.87 64.0312 173.51 65.5833 174.588 66.7604L177.364 69.7864H18.5363V58.25C18.5363 56.9583 17.4894 55.9166 16.203 55.9166C14.9165 55.9166 13.8696 56.9583 13.8696 58.25V72.1198C13.8696 73.4062 14.9165 74.4479 16.203 74.4479H182.667C183.229 74.4479 183.792 74.2448 184.239 73.8385C185.187 72.9635 185.255 71.4895 184.38 70.5416L182.667 72.1198L184.375 70.5416L178.015 63.6093C176.51 61.9687 173.281 60.0104 169.963 58.5052C166.698 57.0208 163.208 55.9166 161.026 55.9166H54.1196Z" fill="#0569A2"/>
<path d="M16.203 45.2344H31.0467C34.8436 45.2344 40.7603 47.1094 46.1353 49.724C51.2967 52.2292 56.0884 55.4792 58.2238 58.5052L66.8905 70.776L66.8957 70.7708C67.6353 71.8229 67.3853 73.2812 66.3332 74.0208C65.9217 74.3125 65.4478 74.4531 64.979 74.4479H16.203C14.9165 74.4479 13.8696 73.4063 13.8696 72.1198V47.5677C13.8696 46.2812 14.9165 45.2344 16.203 45.2344ZM31.0467 49.901H18.5363V69.7865H60.4946L54.4165 61.1823C52.755 58.8281 48.6457 56.1146 44.1144 53.9115C39.3071 51.5781 34.1665 49.901 31.0467 49.901Z" fill="#0569A2"/>
</svg>
