<svg width="156" height="167" viewBox="0 0 156 167" fill="none" xmlns="http://www.w3.org/2000/svg">
<mask id="mask0_273_481" style="mask-type:luminance" maskUnits="userSpaceOnUse" x="0" y="0" width="156" height="167">
<path d="M0 0H156V166.667H0V0Z" fill="white"/>
</mask>
<g mask="url(#mask0_273_481)">
<path d="M155.74 70.2604V66.3698C155.74 61.8229 152.365 58.0625 147.953 57.4114C147.953 57.4114 147.953 20.5573 147.953 20.427C147.953 19.2552 147.172 18.3489 146.005 17.9583L75.9219 0.182252C75.5312 0.0520424 75.0156 0.0520424 74.625 0.182252L4.54167 17.9583C3.375 18.2187 2.59896 19.2552 2.59896 20.427C2.59896 21.5937 3.24479 22.6302 4.41667 23.0208L36.3385 33.7916V59.8802C26.9948 60.1406 19.4688 67.276 19.4688 75.9687V82.7187C19.4688 87 21.2865 90.8958 24.2708 93.75C16.4844 94.7916 10.3854 101.536 10.3854 109.714V116.464C10.3854 120.745 12.0729 124.51 14.6667 127.495C6.48958 128.141 0 135.021 0 143.458V150.203C0 159.031 7.14062 166.297 16.0938 166.297H116.802C117.844 166.297 118.75 165.651 119.141 164.74C119.531 163.833 119.401 162.792 118.75 162.016C117.062 160.068 112.651 153.578 112.651 148C112.651 141.38 116.542 135.021 118.099 132.557H127.188C128.224 132.557 129.13 131.906 129.521 131C129.911 130.089 129.781 129.052 129.13 128.271C127.448 126.328 123.031 119.839 123.031 114.255C123.031 105.948 129.13 97.9062 129.26 97.9062C129.911 97.125 129.911 96.0885 129.521 95.177C129.13 94.2708 128.224 93.75 127.188 93.75H124.458C122.776 91.677 118.49 85.9635 118.49 80.6458C118.49 72.4687 125.24 64.4218 125.24 64.2916C125.891 63.5104 126.016 62.4739 125.63 61.5677C125.24 60.6562 124.333 60.0104 123.292 60.0104H114.208V33.7916L142.76 24.0573V57.2812C138.349 57.9323 134.974 61.6979 134.974 66.2395V70.1302C134.974 72.9843 137.307 75.3229 140.161 75.3229H142.109L135.104 107.25C134.714 108.937 135.104 110.75 136.271 112.052C137.438 113.479 139.125 114.255 141.073 114.255H149.766C151.583 114.255 153.401 113.479 154.568 112.052C155.609 110.625 156.125 108.937 155.74 107.25L148.599 75.4531H150.547C153.401 75.4531 155.74 73.1145 155.74 70.2604ZM150.417 108.937C150.286 109.062 150.156 109.193 149.766 109.193H141.073C140.682 109.193 140.422 108.937 140.422 108.937C140.292 108.677 140.292 108.547 140.292 108.547L145.484 85.0573L150.677 108.547C150.547 108.547 150.547 108.677 150.417 108.937ZM111.745 161.104H16.0938C10.125 161.104 5.19271 156.177 5.19271 150.203V143.458C5.19271 137.484 9.99479 132.557 16.0938 132.557H112.13C110.057 136.187 107.589 141.901 107.589 148C107.458 152.932 109.797 157.734 111.745 161.104ZM122.125 127.365H26.4792C20.5052 127.365 15.5729 122.432 15.5729 116.464V109.714C15.5729 103.745 20.375 98.8125 26.4792 98.8125H122.516C120.438 102.448 117.974 108.156 117.974 114.255C117.844 119.187 120.177 123.99 122.125 127.365ZM117.974 93.6198H36.8594C30.1094 93.6198 24.6615 88.6875 24.6615 82.7187V75.9687C24.6615 70 30.1094 65.0677 36.8594 65.0677H118.229C115.896 68.8333 113.172 74.4114 113.172 80.5156C113.302 85.4427 115.766 90.2448 117.974 93.6198ZM109.016 59.8802H41.5312V35.6093C41.5312 35.6093 74.3646 46.7708 74.4948 46.7708C75.0156 46.901 75.6615 46.901 76.1823 46.7708L109.016 35.6093V59.8802ZM75.276 41.5781L14.276 20.8125L75.276 5.49996L136.271 20.9427L75.276 41.5781ZM140.161 66.3698C140.161 64.1614 141.849 62.4739 144.057 62.4739H146.651C148.859 62.4739 150.547 64.1614 150.547 66.3698V70.2604H140.161V66.3698Z" fill="#0569A2"/>
</g>
</svg>
