<?xml version="1.0" encoding="UTF-8"?>
<!DOCTYPE svg PUBLIC "-//W3C//DTD SVG 1.1//EN" "http://www.w3.org/Graphics/SVG/1.1/DTD/svg11.dtd">
<svg xmlns="http://www.w3.org/2000/svg" version="1.1" width="254px" height="145px" style="shape-rendering:geometricPrecision; text-rendering:geometricPrecision; image-rendering:optimizeQuality; fill-rule:evenodd; clip-rule:evenodd" xmlns:xlink="http://www.w3.org/1999/xlink">
<g><path style="opacity:0.999" fill="#047857" d="M 98.5,13.5 C 99.5137,14.6737 100.847,15.3404 102.5,15.5C 104.754,16.1237 106.421,17.457 107.5,19.5C 107.389,20.1174 107.056,20.6174 106.5,21C 108.154,21.6077 109.821,22.1077 111.5,22.5C 112.419,25.0892 114.086,27.0892 116.5,28.5C 119.277,30.9505 121.277,33.9505 122.5,37.5C 122.66,39.153 123.326,40.4863 124.5,41.5C 124.415,44.6489 125.415,47.3155 127.5,49.5C 128.341,51.3792 128.675,53.3792 128.5,55.5C 128.5,58.1667 128.5,60.8333 128.5,63.5C 123.167,63.5 117.833,63.5 112.5,63.5C 112.768,61.901 112.434,60.5676 111.5,59.5C 110.347,53.5287 108.347,47.8621 105.5,42.5C 105.573,40.9731 104.906,39.9731 103.5,39.5C 101.844,37.5398 100.177,35.5398 98.5,33.5C 98.0269,32.0937 97.0269,31.427 95.5,31.5C 94.7377,29.7376 93.4044,28.7376 91.5,28.5C 80.0019,22.5833 68.0019,21.2499 55.5,24.5C 53.1016,24.2594 51.1016,24.9261 49.5,26.5C 47.7952,28.1921 45.7952,29.5254 43.5,30.5C 41.1432,30.3367 38.8098,30.5034 36.5,31C 35.9152,32.3024 35.2485,33.469 34.5,34.5C 31.7282,32.4916 29.5615,29.8249 28,26.5C 27.6667,26.8333 27.3333,27.1667 27,27.5C 26.7216,26.5842 26.2216,25.9175 25.5,25.5C 25.5569,24.391 25.8902,23.391 26.5,22.5C 26.8333,21.5 27.5,20.8333 28.5,20.5C 30.7488,19.9202 32.4154,18.5869 33.5,16.5C 35.0269,16.573 36.0269,15.9063 36.5,14.5C 38.0269,14.573 39.0269,13.9063 39.5,12.5C 42.6035,10.6157 45.9368,9.28239 49.5,8.5C 52.4951,8.70621 55.1617,8.03954 57.5,6.5C 64.7842,5.40321 72.1175,5.23655 79.5,6C 82.1494,6.45234 84.6494,7.28568 87,8.5C 87.3333,8.16667 87.6667,7.83333 88,7.5C 91.6762,9.41453 95.1762,11.4145 98.5,13.5 Z"/></g>
<g><path style="opacity:0.737" fill="#047857" d="M 57.5,6.5 C 55.1617,8.03954 52.4951,8.70621 49.5,8.5C 51.8383,6.96046 54.5049,6.29379 57.5,6.5 Z"/></g>
<g><path style="opacity:0.435" fill="#047857" d="M 39.5,12.5 C 39.0269,13.9063 38.0269,14.573 36.5,14.5C 36.9731,13.0937 37.9731,12.427 39.5,12.5 Z"/></g>
<g><path style="opacity:0.2" fill="#047857" d="M 98.5,13.5 C 100.38,13.2291 101.713,13.8958 102.5,15.5C 100.847,15.3404 99.5137,14.6737 98.5,13.5 Z"/></g>
<g><path style="opacity:0.557" fill="#047857" d="M 36.5,14.5 C 36.0269,15.9063 35.0269,16.573 33.5,16.5C 33.9731,15.0937 34.9731,14.427 36.5,14.5 Z"/></g>
<g><path style="opacity:0.757" fill="#047857" d="M 33.5,16.5 C 32.4154,18.5869 30.7488,19.9202 28.5,20.5C 29.5846,18.4131 31.2512,17.0798 33.5,16.5 Z"/></g>
<g><path style="opacity:0.906" fill="#047857" d="M 107.5,19.5 C 109.404,19.7376 110.738,20.7376 111.5,22.5C 109.821,22.1077 108.154,21.6077 106.5,21C 107.056,20.6174 107.389,20.1174 107.5,19.5 Z"/></g>
<g><path style="opacity:0.741" fill="#047857" d="M 111.5,22.5 C 113.914,23.9108 115.581,25.9108 116.5,28.5C 114.086,27.0892 112.419,25.0892 111.5,22.5 Z"/></g>
<g><path style="opacity:0.895" fill="#047857" d="M 26.5,22.5 C 25.8902,23.391 25.5569,24.391 25.5,25.5C 23.1918,27.4707 20.8585,29.4707 18.5,31.5C 20.4819,27.8537 23.1485,24.8537 26.5,22.5 Z"/></g>
<g><path style="opacity:0.322" fill="#047857" d="M 55.5,24.5 C 53.7857,25.7384 51.7857,26.405 49.5,26.5C 51.1016,24.9261 53.1016,24.2594 55.5,24.5 Z"/></g>
<g><path style="opacity:0.369" fill="#047857" d="M 91.5,28.5 C 93.4044,28.7376 94.7377,29.7376 95.5,31.5C 93.5956,31.2624 92.2623,30.2624 91.5,28.5 Z"/></g>
<g><path style="opacity:0.999" fill="#047857" d="M 25.5,25.5 C 26.2216,25.9175 26.7216,26.5842 27,27.5C 27.3333,27.1667 27.6667,26.8333 28,26.5C 29.5615,29.8249 31.7282,32.4916 34.5,34.5C 33.448,34.3505 32.448,34.5172 31.5,35C 33.1066,36.049 33.7733,37.549 33.5,39.5C 31.5133,43.4734 29.5133,47.4734 27.5,51.5C 25.783,54.8448 25.1164,58.5115 25.5,62.5C 25.9792,70.5622 27.9792,78.2289 31.5,85.5C 31.7376,87.4044 32.7376,88.7377 34.5,89.5C 36.5,90.8333 38.1667,92.5 39.5,94.5C 39.8333,95.5 40.5,96.1667 41.5,96.5C 45.5189,99.1285 49.8522,101.295 54.5,103C 60.5,104 66.5,105 72.5,106C 74.751,106.748 76.0844,108.248 76.5,110.5C 76.5,112.5 76.5,114.5 76.5,116.5C 75.1667,116.5 73.8333,116.5 72.5,116.5C 72.5,118.167 72.5,119.833 72.5,121.5C 67.9814,122.497 63.6481,122.497 59.5,121.5C 55.7024,120.132 51.7024,119.132 47.5,118.5C 46.4863,117.326 45.153,116.66 43.5,116.5C 41.6916,116.509 40.0249,116.009 38.5,115C 35.7339,113.629 33.4006,111.796 31.5,109.5C 31.0269,108.094 30.0269,107.427 28.5,107.5C 28.1667,106.5 27.5,105.833 26.5,105.5C 24.1667,103.833 22.1667,101.833 20.5,99.5C 20.573,97.9731 19.9063,96.9731 18.5,96.5C 15.7417,93.322 13.7417,89.6553 12.5,85.5C 12.405,83.2143 11.7384,81.2143 10.5,79.5C 7.04193,70.5971 6.7086,61.5971 9.5,52.5C 10.3783,50.9806 11.3783,50.1473 12.5,50C 11.8727,47.589 11.8727,45.089 12.5,42.5C 12.5569,41.391 12.8902,40.391 13.5,39.5C 15.4077,38.5144 16.4077,36.8477 16.5,34.5C 17.9063,34.0269 18.573,33.0269 18.5,31.5C 20.8585,29.4707 23.1918,27.4707 25.5,25.5 Z"/></g>
<g><path style="opacity:0.165" fill="#047857" d="M 61.5,31.5 C 63.8097,30.8362 66.3097,30.5029 69,30.5C 72.8048,30.3037 76.3048,30.9704 79.5,32.5C 74.8592,31.8734 70.1925,31.5401 65.5,31.5C 64.1667,31.5 62.8333,31.5 61.5,31.5 Z"/></g>
<g><path style="opacity:0.608" fill="#047857" d="M 95.5,31.5 C 97.0269,31.427 98.0269,32.0937 98.5,33.5C 96.9731,33.573 95.9731,32.9063 95.5,31.5 Z"/></g>
<g><path style="opacity:0.133" fill="#047857" d="M 57.5,32.5 C 55.8185,34.0075 53.8185,35.0075 51.5,35.5C 52.911,33.461 54.911,32.461 57.5,32.5 Z"/></g>
<g><path style="opacity:0.322" fill="#047857" d="M 18.5,31.5 C 18.573,33.0269 17.9063,34.0269 16.5,34.5C 16.427,32.9731 17.0937,31.9731 18.5,31.5 Z"/></g>
<g><path style="opacity:0.243" fill="#047857" d="M 79.5,32.5 C 82.089,32.461 84.089,33.461 85.5,35.5C 83.1815,35.0075 81.1815,34.0075 79.5,32.5 Z"/></g>
<g><path style="opacity:1" fill="#047857" d="M 43.5,30.5 C 40.1924,33.4715 36.859,36.4715 33.5,39.5C 33.7733,37.549 33.1066,36.049 31.5,35C 32.448,34.5172 33.448,34.3505 34.5,34.5C 35.2485,33.469 35.9152,32.3024 36.5,31C 38.8098,30.5034 41.1432,30.3367 43.5,30.5 Z"/></g>
<g><path style="opacity:0.835" fill="#047857" d="M 16.5,34.5 C 16.4077,36.8477 15.4077,38.5144 13.5,39.5C 13.7497,37.326 14.7497,35.6594 16.5,34.5 Z"/></g>
<g><path style="opacity:1" fill="#047857" d="M 85.5,35.5 C 90.4412,37.4416 94.1078,40.7749 96.5,45.5C 91.8782,43.2113 88.2115,39.8779 85.5,35.5 Z"/></g>
<g><path style="opacity:0.18" fill="#047857" d="M 122.5,37.5 C 124.104,38.287 124.771,39.6203 124.5,41.5C 123.326,40.4863 122.66,39.153 122.5,37.5 Z"/></g>
<g><path style="opacity:1" fill="#047857" d="M 61.5,31.5 C 62.8333,31.5 64.1667,31.5 65.5,31.5C 65.5,31.8333 65.5,32.1667 65.5,32.5C 63.5,32.5 61.5,32.5 59.5,32.5C 59.2865,34.1439 59.6198,35.6439 60.5,37C 58.6549,38.4229 56.6549,39.5896 54.5,40.5C 56.3686,41.6236 58.3686,42.4569 60.5,43C 62.0368,44.1096 62.7035,45.6096 62.5,47.5C 61.5,47.5 60.5,47.5 59.5,47.5C 59.5674,48.9587 59.2341,50.2921 58.5,51.5C 54.2091,49.8446 49.8758,48.5113 45.5,47.5C 45.4609,45.6412 46.2942,44.3079 48,43.5C 48.765,41.9343 48.5983,40.6009 47.5,39.5C 48.1667,38.5 48.8333,37.5 49.5,36.5C 49.8417,35.6618 50.5084,35.3284 51.5,35.5C 53.8185,35.0075 55.8185,34.0075 57.5,32.5C 58.5676,31.5655 59.901,31.2322 61.5,31.5 Z"/></g>
<g><path style="opacity:1" fill="#047857" d="M 65.5,32.5 C 68.9976,31.9547 71.9976,32.788 74.5,35C 72.1224,35.9745 72.4557,36.6411 75.5,37C 71.4886,37.1663 70.9886,37.9996 74,39.5C 74.3333,39.1667 74.6667,38.8333 75,38.5C 75.4828,39.448 75.6495,40.448 75.5,41.5C 77.604,41.2011 79.604,41.5344 81.5,42.5C 82.8029,44.9676 84.3029,47.301 86,49.5C 85.9791,55.3076 88.1457,59.9743 92.5,63.5C 90.1667,63.5 87.8333,63.5 85.5,63.5C 85.7406,61.1016 85.0739,59.1016 83.5,57.5C 82.6618,57.1583 82.3284,56.4916 82.5,55.5C 81.3288,48.5105 77.1621,45.5105 70,46.5C 67.5021,46.9172 65.0021,47.2505 62.5,47.5C 62.7035,45.6096 62.0368,44.1096 60.5,43C 58.3686,42.4569 56.3686,41.6236 54.5,40.5C 56.6549,39.5896 58.6549,38.4229 60.5,37C 59.6198,35.6439 59.2865,34.1439 59.5,32.5C 61.5,32.5 63.5,32.5 65.5,32.5 Z"/></g>
<g><path style="opacity:0.02" fill="#047857" d="M 103.5,39.5 C 104.906,39.9731 105.573,40.9731 105.5,42.5C 104.094,42.0269 103.427,41.0269 103.5,39.5 Z"/></g>
<g><path style="opacity:0.624" fill="#047857" d="M 49.5,36.5 C 48.8333,37.5 48.1667,38.5 47.5,39.5C 44.8333,41.8333 42.1667,44.1667 39.5,46.5C 41.8333,42.1667 45.1667,38.8333 49.5,36.5 Z"/></g>
<g><path style="opacity:0.867" fill="#047857" d="M 124.5,41.5 C 126.267,43.7916 127.267,46.4582 127.5,49.5C 125.415,47.3155 124.415,44.6489 124.5,41.5 Z"/></g>
<g><path style="opacity:0.969" fill="#047857" d="M 82.5,55.5 C 75.6065,47.9693 67.6065,46.6359 58.5,51.5C 59.2341,50.2921 59.5674,48.9587 59.5,47.5C 60.5,47.5 61.5,47.5 62.5,47.5C 65.0021,47.2505 67.5021,46.9172 70,46.5C 77.1621,45.5105 81.3288,48.5105 82.5,55.5 Z"/></g>
<g><path style="opacity:1" fill="#047857" d="M 47.5,39.5 C 48.5983,40.6009 48.765,41.9343 48,43.5C 46.2942,44.3079 45.4609,45.6412 45.5,47.5C 49.8758,48.5113 54.2091,49.8446 58.5,51.5C 58.1667,52.5 57.5,53.1667 56.5,53.5C 51.7867,57.2795 50.4534,61.9462 52.5,67.5C 54.0075,69.1815 55.0075,71.1815 55.5,73.5C 53.9102,73.3718 52.5769,72.7051 51.5,71.5C 50.9795,66.451 49.6461,61.7843 47.5,57.5C 46.1667,57.5 44.8333,57.5 43.5,57.5C 42.7683,54.9798 41.6017,52.6464 40,50.5C 39.34,52.3237 38.1733,53.657 36.5,54.5C 36.5,53.8333 36.5,53.1667 36.5,52.5C 36.7549,50.0326 37.7549,48.0326 39.5,46.5C 42.1667,44.1667 44.8333,41.8333 47.5,39.5 Z"/></g>
<g><path style="opacity:1" fill="#047857" d="M 65.5,32.5 C 65.5,32.1667 65.5,31.8333 65.5,31.5C 70.1925,31.5401 74.8592,31.8734 79.5,32.5C 81.1815,34.0075 83.1815,35.0075 85.5,35.5C 88.2115,39.8779 91.8782,43.2113 96.5,45.5C 98.2624,46.2623 99.2624,47.5956 99.5,49.5C 100.81,54.0765 101.81,58.7431 102.5,63.5C 99.1667,63.5 95.8333,63.5 92.5,63.5C 88.1457,59.9743 85.9791,55.3076 86,49.5C 84.3029,47.301 82.8029,44.9676 81.5,42.5C 79.604,41.5344 77.604,41.2011 75.5,41.5C 75.6495,40.448 75.4828,39.448 75,38.5C 74.6667,38.8333 74.3333,39.1667 74,39.5C 70.9886,37.9996 71.4886,37.1663 75.5,37C 72.4557,36.6411 72.1224,35.9745 74.5,35C 71.9976,32.788 68.9976,31.9547 65.5,32.5 Z"/></g>
<g><path style="opacity:1" fill="#047857" d="M 12.5,42.5 C 11.8727,45.089 11.8727,47.589 12.5,50C 11.3783,50.1473 10.3783,50.9806 9.5,52.5C 9.39522,48.7417 10.3952,45.4083 12.5,42.5 Z"/></g>
<g><path style="opacity:0.165" fill="#047857" d="M 27.5,51.5 C 27.1916,55.3597 26.5249,59.0264 25.5,62.5C 25.1164,58.5115 25.783,54.8448 27.5,51.5 Z"/></g>
<g><path style="opacity:0.208" fill="#047857" d="M 56.5,53.5 C 53.7633,57.7163 52.4299,62.383 52.5,67.5C 50.4534,61.9462 51.7867,57.2795 56.5,53.5 Z"/></g>
<g><path style="opacity:0.297" fill="#047857" d="M 99.5,49.5 C 102.43,53.9744 103.763,58.9744 103.5,64.5C 97.1667,64.5 90.8333,64.5 84.5,64.5C 84.3259,62.139 83.9926,59.8056 83.5,57.5C 85.0739,59.1016 85.7406,61.1016 85.5,63.5C 87.8333,63.5 90.1667,63.5 92.5,63.5C 95.8333,63.5 99.1667,63.5 102.5,63.5C 101.81,58.7431 100.81,54.0765 99.5,49.5 Z"/></g>
<g><path style="opacity:0.112" fill="#047857" d="M 128.5,55.5 C 129.477,58.2869 129.81,61.2869 129.5,64.5C 123.5,64.5 117.5,64.5 111.5,64.5C 111.5,62.8333 111.5,61.1667 111.5,59.5C 112.434,60.5676 112.768,61.901 112.5,63.5C 117.833,63.5 123.167,63.5 128.5,63.5C 128.5,60.8333 128.5,58.1667 128.5,55.5 Z"/></g>
<g><path style="opacity:0.046" fill="#047857" d="M 36.5,52.5 C 36.5,53.1667 36.5,53.8333 36.5,54.5C 35.1892,59.0365 34.5226,63.7031 34.5,68.5C 33.3592,65.3601 33.1925,62.0267 34,58.5C 34.2401,56.1484 35.0735,54.1484 36.5,52.5 Z"/></g>
<g><path style="opacity:1" fill="#047857" d="M 55.5,73.5 C 56.0447,75.5932 56.878,77.5932 58,79.5C 60.3938,78.8641 62.8938,78.8641 65.5,79.5C 68.5533,79.1107 71.22,79.7773 73.5,81.5C 76.69,85.3286 77.3567,89.6619 75.5,94.5C 71.7047,96.1428 67.7047,96.8094 63.5,96.5C 61.0948,95.2318 58.4282,94.5651 55.5,94.5C 55.5,94.1667 55.5,93.8333 55.5,93.5C 57.5,93.5 59.5,93.5 61.5,93.5C 61.3832,91.5165 62.0499,89.8498 63.5,88.5C 59.5,87.8333 55.5,87.1667 51.5,86.5C 49.4374,84.2254 50.1041,82.392 53.5,81C 52.1667,80.6667 50.8333,80.3333 49.5,80C 47.6667,77.8333 45.8333,75.6667 44,73.5C 41.6972,75.3382 41.0306,77.6715 42,80.5C 43.3647,83.6624 45.1981,86.3291 47.5,88.5C 45.6675,87.7515 44.0009,86.7515 42.5,85.5C 40.8302,82.8252 39.1635,80.1586 37.5,77.5C 36.6618,77.1583 36.3284,76.4916 36.5,75.5C 36.2785,72.9327 35.6118,70.5994 34.5,68.5C 34.5226,63.7031 35.1892,59.0365 36.5,54.5C 38.1733,53.657 39.34,52.3237 40,50.5C 41.6017,52.6464 42.7683,54.9798 43.5,57.5C 44.8333,57.5 46.1667,57.5 47.5,57.5C 49.6461,61.7843 50.9795,66.451 51.5,71.5C 52.5769,72.7051 53.9102,73.3718 55.5,73.5 Z"/></g>
<g><path style="opacity:0.008" fill="#047857" d="M 34.5,68.5 C 35.6118,70.5994 36.2785,72.9327 36.5,75.5C 34.8372,73.5615 34.1706,71.2282 34.5,68.5 Z"/></g>
<g><path style="opacity:0.999" fill="#047857" d="M 230.5,72.5 C 233.912,73.0421 236.912,74.3754 239.5,76.5C 239.5,78.5 240.5,79.5 242.5,79.5C 243.58,81.0447 243.58,82.5447 242.5,84C 244.203,85.3695 245.536,87.0362 246.5,89C 245.062,91.3663 245.562,91.8663 248,90.5C 248.21,92.0581 248.71,93.3915 249.5,94.5C 250.207,98.2281 249.874,101.895 248.5,105.5C 246.087,106.68 245.087,108.68 245.5,111.5C 243.1,112.927 242.433,112.427 243.5,110C 242.5,109.333 241.5,109.333 240.5,110C 242.161,113.15 241.161,114.65 237.5,114.5C 237.762,115.978 237.429,117.311 236.5,118.5C 236.089,117.738 235.923,116.738 236,115.5C 234.094,117.408 233.26,119.408 233.5,121.5C 231.485,122.924 229.152,123.59 226.5,123.5C 220.167,123.5 213.833,123.5 207.5,123.5C 207.5,128.167 207.5,132.833 207.5,137.5C 201.833,137.5 196.167,137.5 190.5,137.5C 190.5,115.833 190.5,94.1667 190.5,72.5C 203.833,72.5 217.167,72.5 230.5,72.5 Z M 223.5,88.5 C 227.082,89.7464 229.749,92.0797 231.5,95.5C 231.723,100.052 230.056,103.719 226.5,106.5C 226.167,106.5 225.833,106.5 225.5,106.5C 219.685,107.378 214.018,107.711 208.5,107.5C 208.5,101.167 208.5,94.8333 208.5,88.5C 213.5,88.5 218.5,88.5 223.5,88.5 Z"/></g>
<g><path style="opacity:0.698" fill="#047857" d="M 132.5,75.5 C 134.262,76.2623 135.262,77.5956 135.5,79.5C 133.738,78.7377 132.738,77.4044 132.5,75.5 Z"/></g>
<g><path style="opacity:1" fill="#047857" d="M 102.5,72.5 C 102.5,94.1667 102.5,115.833 102.5,137.5C 100.833,137.5 99.1667,137.5 97.5,137.5C 92.6801,136.679 89.3467,134.012 87.5,129.5C 86.962,127.883 86.6287,126.216 86.5,124.5C 86.7772,107.139 86.4438,89.8055 85.5,72.5C 91.1667,71.1667 96.8333,71.1667 102.5,72.5 Z"/></g>
<g><path style="opacity:1" fill="#047857" d="M 132.5,75.5 C 132.738,77.4044 133.738,78.7377 135.5,79.5C 138.219,81.2193 140.219,83.5526 141.5,86.5C 141.833,87.5 142.5,88.1667 143.5,88.5C 144.757,91.4274 146.757,93.7607 149.5,95.5C 150.5,95.8333 151.167,96.5 151.5,97.5C 152.757,100.427 154.757,102.761 157.5,104.5C 158.5,104.833 159.167,105.5 159.5,106.5C 159.5,106.833 159.5,107.167 159.5,107.5C 158.903,107.735 158.57,108.235 158.5,109C 160.38,111.258 161.88,113.758 163,116.5C 163.654,115.304 164.154,115.304 164.5,116.5C 164.081,117.672 163.415,118.672 162.5,119.5C 161.742,118.189 160.742,117.689 159.5,118C 160.336,119.243 160.003,120.41 158.5,121.5C 157.252,120.96 156.085,120.293 155,119.5C 154.308,120.025 153.808,120.692 153.5,121.5C 154.989,121.533 156.322,122.033 157.5,123C 155.574,123.422 154.574,124.589 154.5,126.5C 154.167,126.5 153.833,126.5 153.5,126.5C 151.833,124.5 150.167,122.5 148.5,120.5C 147.92,118.251 146.587,116.585 144.5,115.5C 141.833,113.5 139.5,111.167 137.5,108.5C 136.92,106.251 135.587,104.585 133.5,103.5C 132.167,102.833 131.167,101.833 130.5,100.5C 130.217,99.7109 129.717,99.0442 129,98.5C 128.823,111.075 128.323,123.575 127.5,136C 128.056,136.383 128.389,136.883 128.5,137.5C 123.167,137.5 117.833,137.5 112.5,137.5C 112.5,115.833 112.5,94.1667 112.5,72.5C 117.985,71.3483 123.651,71.1816 129.5,72C 130.71,73.0391 131.71,74.2058 132.5,75.5 Z"/></g>
<g><path style="opacity:0.6" fill="#047857" d="M 239.5,76.5 C 240.833,77.1667 241.833,78.1667 242.5,79.5C 240.5,79.5 239.5,78.5 239.5,76.5 Z"/></g>
<g><path style="opacity:1" fill="#047857" d="M 55.5,73.5 C 58.614,75.9647 61.9473,77.9647 65.5,79.5C 62.8938,78.8641 60.3938,78.8641 58,79.5C 56.878,77.5932 56.0447,75.5932 55.5,73.5 Z"/></g>
<g><path style="opacity:0.999" fill="#047857" d="M 181.5,72.5 C 181.5,94.1667 181.5,115.833 181.5,137.5C 175.824,137.666 170.157,137.499 164.5,137C 163.956,136.283 163.289,135.783 162.5,135.5C 160.167,133.833 158.167,131.833 156.5,129.5C 156.573,127.973 155.906,126.973 154.5,126.5C 154.574,124.589 155.574,123.422 157.5,123C 156.322,122.033 154.989,121.533 153.5,121.5C 153.808,120.692 154.308,120.025 155,119.5C 156.085,120.293 157.252,120.96 158.5,121.5C 160.003,120.41 160.336,119.243 159.5,118C 160.742,117.689 161.742,118.189 162.5,119.5C 163.415,118.672 164.081,117.672 164.5,116.5C 164.154,115.304 163.654,115.304 163,116.5C 161.88,113.758 160.38,111.258 158.5,109C 158.57,108.235 158.903,107.735 159.5,107.5C 160.5,109.167 161.833,110.5 163.5,111.5C 163.369,112.376 163.702,113.043 164.5,113.5C 165.499,99.8496 165.833,86.1829 165.5,72.5C 170.833,72.5 176.167,72.5 181.5,72.5 Z"/></g>
<g><path style="opacity:0.123" fill="#047857" d="M 102.5,72.5 C 103.663,94.3295 103.83,116.329 103,138.5C 102.667,138.833 102.333,139.167 102,139.5C 100.378,138.901 98.8775,138.234 97.5,137.5C 99.1667,137.5 100.833,137.5 102.5,137.5C 102.5,115.833 102.5,94.1667 102.5,72.5 Z"/></g>
<g><path style="opacity:0.012" fill="#047857" d="M 37.5,77.5 C 39.1635,80.1586 40.8302,82.8252 42.5,85.5C 39.3182,83.8073 37.6516,81.1407 37.5,77.5 Z"/></g>
<g><path style="opacity:0.008" fill="#047857" d="M 10.5,79.5 C 11.7384,81.2143 12.405,83.2143 12.5,85.5C 10.9261,83.8984 10.2594,81.8984 10.5,79.5 Z"/></g>
<g><path style="opacity:1" fill="#047857" d="M 242.5,79.5 C 246.701,83.5707 249.034,88.5707 249.5,94.5C 248.71,93.3915 248.21,92.0581 248,90.5C 245.562,91.8663 245.062,91.3663 246.5,89C 245.536,87.0362 244.203,85.3695 242.5,84C 243.58,82.5447 243.58,81.0447 242.5,79.5 Z"/></g>
<g><path style="opacity:0.008" fill="#047857" d="M 42.5,85.5 C 44.0009,86.7515 45.6675,87.7515 47.5,88.5C 48.1667,89.5 48.8333,90.5 49.5,91.5C 47.4048,90.588 45.4048,89.4213 43.5,88C 42.7476,87.3292 42.4142,86.4959 42.5,85.5 Z"/></g>
<g><path style="opacity:0.02" fill="#047857" d="M 141.5,86.5 C 142.833,86.5 143.5,87.1667 143.5,88.5C 142.5,88.1667 141.833,87.5 141.5,86.5 Z"/></g>
<g><path style="opacity:0.588" fill="#047857" d="M 31.5,85.5 C 33.2624,86.2623 34.2624,87.5956 34.5,89.5C 32.7376,88.7377 31.7376,87.4044 31.5,85.5 Z"/></g>
<g><path style="opacity:1" fill="#047857" d="M 55.5,93.5 C 53.7179,92.2804 51.7179,91.6138 49.5,91.5C 48.8333,90.5 48.1667,89.5 47.5,88.5C 45.1981,86.3291 43.3647,83.6624 42,80.5C 41.0306,77.6715 41.6972,75.3382 44,73.5C 45.8333,75.6667 47.6667,77.8333 49.5,80C 50.8333,80.3333 52.1667,80.6667 53.5,81C 50.1041,82.392 49.4374,84.2254 51.5,86.5C 55.5,87.1667 59.5,87.8333 63.5,88.5C 62.0499,89.8498 61.3832,91.5165 61.5,93.5C 59.5,93.5 57.5,93.5 55.5,93.5 Z"/></g>
<g><path style="opacity:1" fill="#047857" d="M 49.5,91.5 C 51.7179,91.6138 53.7179,92.2804 55.5,93.5C 55.5,93.8333 55.5,94.1667 55.5,94.5C 53.0301,94.3465 51.0301,93.3465 49.5,91.5 Z"/></g>
<g><path style="opacity:0.478" fill="#047857" d="M 143.5,88.5 C 146.243,90.2393 148.243,92.5726 149.5,95.5C 146.757,93.7607 144.757,91.4274 143.5,88.5 Z"/></g>
<g><path style="opacity:0.082" fill="#047857" d="M 73.5,81.5 C 76.8737,82.6915 78.5404,85.1915 78.5,89C 78.3868,91.3987 77.3868,93.2321 75.5,94.5C 77.3567,89.6619 76.69,85.3286 73.5,81.5 Z"/></g>
<g><path style="opacity:0.012" fill="#047857" d="M 39.5,94.5 C 40.8333,94.5 41.5,95.1667 41.5,96.5C 40.5,96.1667 39.8333,95.5 39.5,94.5 Z"/></g>
<g><path style="opacity:0.329" fill="#047857" d="M 55.5,94.5 C 58.4282,94.5651 61.0948,95.2318 63.5,96.5C 60.5049,96.7062 57.8383,96.0395 55.5,94.5 Z"/></g>
<g><path style="opacity:0.714" fill="#047857" d="M 181.5,72.5 C 176.167,72.5 170.833,72.5 165.5,72.5C 165.833,86.1829 165.499,99.8496 164.5,113.5C 163.702,113.043 163.369,112.376 163.5,111.5C 164.496,98.3438 164.829,85.0105 164.5,71.5C 170.358,71.1778 176.025,71.5111 181.5,72.5 Z"/></g>
<g><path style="opacity:0.142" fill="#047857" d="M 230.5,72.5 C 217.167,72.5 203.833,72.5 190.5,72.5C 190.5,94.1667 190.5,115.833 190.5,137.5C 189.503,115.673 189.169,93.673 189.5,71.5C 203.344,71.171 217.01,71.5043 230.5,72.5 Z"/></g>
<g><path style="opacity:0.111" fill="#047857" d="M 223.5,88.5 C 218.5,88.5 213.5,88.5 208.5,88.5C 208.5,94.8333 208.5,101.167 208.5,107.5C 208.167,107.5 207.833,107.5 207.5,107.5C 207.5,100.833 207.5,94.1667 207.5,87.5C 213.026,87.1786 218.36,87.5119 223.5,88.5 Z"/></g>
<g><path style="opacity:0.195" fill="#047857" d="M 75.5,94.5 C 75.1193,95.9311 74.1193,96.7645 72.5,97C 69.3035,97.8045 66.3035,97.6378 63.5,96.5C 67.7047,96.8094 71.7047,96.1428 75.5,94.5 Z"/></g>
<g><path style="opacity:0.02" fill="#047857" d="M 18.5,96.5 C 19.9063,96.9731 20.573,97.9731 20.5,99.5C 19.0937,99.0269 18.427,98.0269 18.5,96.5 Z"/></g>
<g><path style="opacity:0.71" fill="#047857" d="M 151.5,97.5 C 154.243,99.2393 156.243,101.573 157.5,104.5C 154.757,102.761 152.757,100.427 151.5,97.5 Z"/></g>
<g><path style="opacity:0.969" fill="#047857" d="M 231.5,95.5 C 233.578,100.841 231.912,104.507 226.5,106.5C 230.056,103.719 231.723,100.052 231.5,95.5 Z"/></g>
<g><path style="opacity:0.059" fill="#047857" d="M 133.5,103.5 C 135.587,104.585 136.92,106.251 137.5,108.5C 135.413,107.415 134.08,105.749 133.5,103.5 Z"/></g>
<g><path style="opacity:0.004" fill="#047857" d="M 26.5,105.5 C 27.5,105.833 28.1667,106.5 28.5,107.5C 27.1667,107.5 26.5,106.833 26.5,105.5 Z"/></g>
<g><path style="opacity:0.824" fill="#047857" d="M 248.5,105.5 C 248.539,108.089 247.539,110.089 245.5,111.5C 245.087,108.68 246.087,106.68 248.5,105.5 Z"/></g>
<g><path style="opacity:0.678" fill="#047857" d="M 28.5,107.5 C 30.0269,107.427 31.0269,108.094 31.5,109.5C 29.9731,109.573 28.9731,108.906 28.5,107.5 Z"/></g>
<g><path style="opacity:0.58" fill="#047857" d="M 159.5,106.5 C 161.587,107.585 162.92,109.251 163.5,111.5C 161.833,110.5 160.5,109.167 159.5,107.5C 159.5,107.167 159.5,106.833 159.5,106.5 Z"/></g>
<g><path style="opacity:0.643" fill="#047857" d="M 225.5,106.5 C 225.082,107.222 224.416,107.722 223.5,108C 217.984,108.817 212.65,108.651 207.5,107.5C 207.833,107.5 208.167,107.5 208.5,107.5C 214.018,107.711 219.685,107.378 225.5,106.5 Z"/></g>
<g><path style="opacity:0.715" fill="#047857" d="M 85.5,72.5 C 86.4438,89.8055 86.7772,107.139 86.5,124.5C 86.1667,124.5 85.8333,124.5 85.5,124.5C 85.2831,107.03 85.2831,89.697 85.5,72.5 Z"/></g>
<g><path style="opacity:0.02" fill="#047857" d="M 144.5,115.5 C 146.587,116.585 147.92,118.251 148.5,120.5C 146.413,119.415 145.08,117.749 144.5,115.5 Z"/></g>
<g><path style="opacity:0.129" fill="#047857" d="M 43.5,116.5 C 45.153,116.66 46.4863,117.326 47.5,118.5C 45.6203,118.771 44.287,118.104 43.5,116.5 Z"/></g>
<g><path style="opacity:0.95" fill="#047857" d="M 76.5,110.5 C 78.6076,115.351 77.2742,119.017 72.5,121.5C 72.5,119.833 72.5,118.167 72.5,116.5C 73.8333,116.5 75.1667,116.5 76.5,116.5C 76.5,114.5 76.5,112.5 76.5,110.5 Z"/></g>
<g><path style="opacity:0.965" fill="#047857" d="M 245.5,111.5 C 243.036,116.627 239.036,119.96 233.5,121.5C 233.26,119.408 234.094,117.408 236,115.5C 235.923,116.738 236.089,117.738 236.5,118.5C 237.429,117.311 237.762,115.978 237.5,114.5C 241.161,114.65 242.161,113.15 240.5,110C 241.5,109.333 242.5,109.333 243.5,110C 242.433,112.427 243.1,112.927 245.5,111.5 Z"/></g>
<g><path style="opacity:0.749" fill="#047857" d="M 47.5,118.5 C 51.7024,119.132 55.7024,120.132 59.5,121.5C 55.0981,121.692 51.0981,120.692 47.5,118.5 Z"/></g>
<g><path style="opacity:0.165" fill="#047857" d="M 226.5,123.5 C 220.69,124.49 214.69,124.823 208.5,124.5C 208.5,129.167 208.5,133.833 208.5,138.5C 202.31,138.823 196.31,138.49 190.5,137.5C 196.167,137.5 201.833,137.5 207.5,137.5C 207.5,132.833 207.5,128.167 207.5,123.5C 213.833,123.5 220.167,123.5 226.5,123.5 Z"/></g>
<g><path style="opacity:0.459" fill="#047857" d="M 153.5,126.5 C 153.833,126.5 154.167,126.5 154.5,126.5C 155.906,126.973 156.573,127.973 156.5,129.5C 155.167,128.833 154.167,127.833 153.5,126.5 Z"/></g>
<g><path style="opacity:0.012" fill="#047857" d="M 85.5,124.5 C 85.8333,124.5 86.1667,124.5 86.5,124.5C 86.6287,126.216 86.962,127.883 87.5,129.5C 85.7868,128.365 85.1201,126.698 85.5,124.5 Z"/></g>
<g><path style="opacity:0.765" fill="#047857" d="M 130.5,100.5 C 130.006,108.954 129.673,117.954 129.5,127.5C 129.813,131.042 129.479,134.375 128.5,137.5C 128.389,136.883 128.056,136.383 127.5,136C 128.323,123.575 128.823,111.075 129,98.5C 129.717,99.0442 130.217,99.7109 130.5,100.5 Z"/></g>
<g><path style="opacity:0.518" fill="#047857" d="M 112.5,72.5 C 112.5,94.1667 112.5,115.833 112.5,137.5C 117.833,137.5 123.167,137.5 128.5,137.5C 129.479,134.375 129.813,131.042 129.5,127.5C 130.482,130.962 130.815,134.629 130.5,138.5C 124.123,138.584 117.956,138.584 112,138.5C 111.17,116.329 111.337,94.3295 112.5,72.5 Z"/></g>
<g><path style="opacity:0.407" fill="#047857" d="M 181.5,72.5 C 182.497,94.327 182.831,116.327 182.5,138.5C 176.158,138.666 169.825,138.5 163.5,138C 162.748,137.329 162.414,136.496 162.5,135.5C 163.289,135.783 163.956,136.283 164.5,137C 170.157,137.499 175.824,137.666 181.5,137.5C 181.5,115.833 181.5,94.1667 181.5,72.5 Z"/></g>
</svg>
