<?xml version="1.0" standalone="no"?>
<!DOCTYPE svg PUBLIC "-//W3C//DTD SVG 20010904//EN"
 "http://www.w3.org/TR/2001/REC-SVG-20010904/DTD/svg10.dtd">
<svg version="1.0" xmlns="http://www.w3.org/2000/svg"
 width="200.000000pt" height="200.000000pt" viewBox="0 0 200.000000 200.000000"
 preserveAspectRatio="xMidYMid meet">

<g transform="translate(0.000000,200.000000) scale(0.100000,-0.100000)"
fill="#047857" stroke="none">
<path d="M244 1356 c-63 -21 -96 -41 -137 -83 -98 -97 -132 -261 -87 -412 49
-166 168 -239 369 -228 96 5 189 29 197 51 8 21 -33 121 -47 117 -160 -47
-250 -40 -314 24 -39 39 -55 93 -55 182 0 86 33 161 86 194 50 30 136 36 210
13 32 -10 63 -18 68 -19 9 0 44 87 45 113 1 7 -20 23 -46 34 -60 27 -226 35
-289 14z"/>
<path d="M1653 1355 c-60 -18 -126 -59 -159 -97 -92 -110 -115 -304 -53 -448
27 -62 99 -131 164 -156 69 -26 257 -27 332 -1 29 10 55 22 57 26 3 3 -5 35
-16 69 -16 51 -23 62 -37 56 -129 -55 -265 -40 -324 38 -66 86 -55 272 20 340
61 56 184 62 293 14 11 -5 20 9 37 56 12 34 19 66 17 70 -3 4 -34 17 -70 28
-77 23 -196 26 -261 5z"/>
<path d="M680 1000 l0 -361 78 3 77 3 5 229 5 229 91 -123 c51 -68 120 -172
155 -231 l64 -108 68 -1 67 0 0 360 0 360 -80 0 -80 0 0 -207 c-1 -238 10
-230 -97 -76 -35 49 -99 133 -143 186 l-80 97 -65 0 -65 0 0 -360z"/>
</g>
</svg>
