<?xml version="1.0" encoding="UTF-8"?>
<!DOCTYPE svg PUBLIC "-//W3C//DTD SVG 1.1//EN" "http://www.w3.org/Graphics/SVG/1.1/DTD/svg11.dtd">
<svg xmlns="http://www.w3.org/2000/svg" version="1.1" width="180px" height="159px" style="shape-rendering:geometricPrecision; text-rendering:geometricPrecision; image-rendering:optimizeQuality; fill-rule:evenodd; clip-rule:evenodd" xmlns:xlink="http://www.w3.org/1999/xlink">
<g><path style="opacity:0.076" fill="#047857" d="M 127.5,9.5 C 124.368,8.43345 121.368,7.10012 118.5,5.5C 114.87,6.42625 111.203,7.09292 107.5,7.5C 114.792,2.93079 121.458,3.59746 127.5,9.5 Z"/></g>
<g><path style="opacity:0.102" fill="#047857" d="M 94.5,11.5 C 92.5615,13.1628 90.2282,13.8294 87.5,13.5C 84.7334,13.1417 82.0667,12.475 79.5,11.5C 78.8333,11.5 78.1667,11.5 77.5,11.5C 69.9399,8.04554 61.9399,6.54554 53.5,7C 51.6536,8.02978 49.9869,9.19645 48.5,10.5C 47.8333,10.5 47.1667,10.5 46.5,10.5C 49.3707,7.22779 53.0374,5.22779 57.5,4.5C 67.0026,6.37562 76.336,8.87562 85.5,12C 88.5314,12.4954 91.5314,12.3287 94.5,11.5 Z"/></g>
<g><path style="opacity:1" fill="#047857" d="M 77.5,11.5 C 71.8542,10.3924 66.1876,9.39235 60.5,8.5C 56.3735,8.572 52.3735,9.23867 48.5,10.5C 49.9869,9.19645 51.6536,8.02978 53.5,7C 61.9399,6.54554 69.9399,8.04554 77.5,11.5 Z"/></g>
<g><path style="opacity:1" fill="#047857" d="M 60.5,8.5 C 66.1876,9.39235 71.8542,10.3924 77.5,11.5C 78.1667,11.5 78.8333,11.5 79.5,11.5C 79.5,11.8333 79.5,12.1667 79.5,12.5C 72.7918,12.7257 66.1252,13.3924 59.5,14.5C 60.1799,15.8599 60.8466,17.1932 61.5,18.5C 59.0213,17.3773 56.688,17.3773 54.5,18.5C 53.1667,19.1667 52.1667,20.1667 51.5,21.5C 50.8333,21.5 50.1667,21.5 49.5,21.5C 48.1667,21.5 46.8333,21.5 45.5,21.5C 45.5,19.5 45.5,17.5 45.5,15.5C 48.1194,15.2317 50.6194,15.565 53,16.5C 53.6172,15.5509 53.4506,14.7175 52.5,14C 54.953,13.2733 57.2864,12.2733 59.5,11C 60.2524,10.3292 60.5858,9.4959 60.5,8.5 Z"/></g>
<g><path style="opacity:0.067" fill="#047857" d="M 107.5,7.5 C 107.5,7.83333 107.5,8.16667 107.5,8.5C 105.716,8.89254 104.05,9.5592 102.5,10.5C 99.8333,10.8333 97.1667,11.1667 94.5,11.5C 98.6127,9.71748 102.946,8.38414 107.5,7.5 Z"/></g>
<g><path style="opacity:0.137" fill="#047857" d="M 127.5,9.5 C 131.089,10.0922 133.422,12.0922 134.5,15.5C 134.167,15.5 133.833,15.5 133.5,15.5C 131.806,13.1394 129.806,11.1394 127.5,9.5 Z"/></g>
<g><path style="opacity:0.902" fill="#047857" d="M 46.5,10.5 C 47.1667,10.5 47.8333,10.5 48.5,10.5C 47.5994,12.7271 45.9328,13.7271 43.5,13.5C 44.6935,12.7281 45.6935,11.7281 46.5,10.5 Z"/></g>
<g><path style="opacity:1" fill="#047857" d="M 60.5,8.5 C 60.5858,9.4959 60.2524,10.3292 59.5,11C 57.2864,12.2733 54.953,13.2733 52.5,14C 53.4506,14.7175 53.6172,15.5509 53,16.5C 50.6194,15.565 48.1194,15.2317 45.5,15.5C 45.5,17.5 45.5,19.5 45.5,21.5C 46.8333,21.5 48.1667,21.5 49.5,21.5C 49.6495,22.552 49.4828,23.552 49,24.5C 47.1551,22.6499 45.1551,22.3166 43,23.5C 42.3412,20.1119 42.5078,16.7786 43.5,13.5C 45.9328,13.7271 47.5994,12.7271 48.5,10.5C 52.3735,9.23867 56.3735,8.572 60.5,8.5 Z"/></g>
<g><path style="opacity:0.984" fill="#047857" d="M 79.5,11.5 C 82.0667,12.475 84.7334,13.1417 87.5,13.5C 88.1667,14.1667 88.8333,14.8333 89.5,15.5C 85.9161,15.0246 82.5828,14.0246 79.5,12.5C 79.5,12.1667 79.5,11.8333 79.5,11.5 Z"/></g>
<g><path style="opacity:1" fill="#047857" d="M 102.5,10.5 C 101.602,12.6269 99.9357,13.7935 97.5,14C 103.926,17.6318 110.926,19.1318 118.5,18.5C 118.5,18.8333 118.5,19.1667 118.5,19.5C 114.821,19.7244 111.154,20.0578 107.5,20.5C 107.5,21.5 107.5,22.5 107.5,23.5C 107.167,23.5 106.833,23.5 106.5,23.5C 101.511,19.5066 95.844,16.8399 89.5,15.5C 88.8333,14.8333 88.1667,14.1667 87.5,13.5C 90.2282,13.8294 92.5615,13.1628 94.5,11.5C 97.1667,11.1667 99.8333,10.8333 102.5,10.5 Z"/></g>
<g><path style="opacity:1" fill="#047857" d="M 116.5,7.5 C 117.688,9.72208 118.688,12.0554 119.5,14.5C 119.557,15.609 119.89,16.609 120.5,17.5C 117.5,17.5 114.5,17.5 111.5,17.5C 111.361,14.4121 110.361,11.7454 108.5,9.5C 110.099,9.76781 111.432,9.43448 112.5,8.5C 113.568,7.56552 114.901,7.23219 116.5,7.5 Z"/></g>
<g><path style="opacity:1" fill="#047857" d="M 116.5,7.5 C 120.355,8.36533 124.022,9.69867 127.5,11.5C 127.5,12.8333 127.5,14.1667 127.5,15.5C 127.539,16.7562 127.039,17.7562 126,18.5C 124.362,16.2663 122.195,14.933 119.5,14.5C 118.688,12.0554 117.688,9.72208 116.5,7.5 Z"/></g>
<g><path style="opacity:1" fill="#047857" d="M 79.5,12.5 C 82.5828,14.0246 85.9161,15.0246 89.5,15.5C 89.8039,16.1499 90.1373,16.8165 90.5,17.5C 93.0618,18.6409 95.7284,19.4743 98.5,20C 99.9423,20.3768 100.942,21.2101 101.5,22.5C 98.7616,21.7628 96.095,21.7628 93.5,22.5C 90.8864,21.4559 88.3864,20.1225 86,18.5C 84.9412,18.6301 84.1079,19.1301 83.5,20C 86.9405,22.0421 89.9405,24.5421 92.5,27.5C 86.4004,25.3046 80.4004,22.8046 74.5,20C 70.118,19.7083 65.7847,19.2083 61.5,18.5C 60.8466,17.1932 60.1799,15.8599 59.5,14.5C 66.1252,13.3924 72.7918,12.7257 79.5,12.5 Z"/></g>
<g><path style="opacity:1" fill="#047857" d="M 107.5,8.5 C 109.167,8.5 110.833,8.5 112.5,8.5C 111.432,9.43448 110.099,9.76781 108.5,9.5C 110.361,11.7454 111.361,14.4121 111.5,17.5C 114.5,17.5 117.5,17.5 120.5,17.5C 122.224,17.4607 122.557,17.794 121.5,18.5C 120.5,18.5 119.5,18.5 118.5,18.5C 110.926,19.1318 103.926,17.6318 97.5,14C 99.9357,13.7935 101.602,12.6269 102.5,10.5C 104.05,9.5592 105.716,8.89254 107.5,8.5 Z"/></g>
<g><path style="opacity:1" fill="#047857" d="M 127.5,9.5 C 129.806,11.1394 131.806,13.1394 133.5,15.5C 133.5,16.1667 133.5,16.8333 133.5,17.5C 132.85,17.1961 132.183,16.8627 131.5,16.5C 130.719,17.7287 130.219,19.062 130,20.5C 129.95,18.256 129.117,16.5893 127.5,15.5C 127.5,14.1667 127.5,12.8333 127.5,11.5C 124.022,9.69867 120.355,8.36533 116.5,7.5C 114.901,7.23219 113.568,7.56552 112.5,8.5C 110.833,8.5 109.167,8.5 107.5,8.5C 107.5,8.16667 107.5,7.83333 107.5,7.5C 111.203,7.09292 114.87,6.42625 118.5,5.5C 121.368,7.10012 124.368,8.43345 127.5,9.5 Z"/></g>
<g><path style="opacity:1" fill="#047857" d="M 89.5,15.5 C 95.844,16.8399 101.511,19.5066 106.5,23.5C 104.883,22.962 103.216,22.6287 101.5,22.5C 100.942,21.2101 99.9423,20.3768 98.5,20C 95.7284,19.4743 93.0618,18.6409 90.5,17.5C 90.1373,16.8165 89.8039,16.1499 89.5,15.5 Z"/></g>
<g><path style="opacity:0.098" fill="#047857" d="M 134.5,15.5 C 136.267,17.7916 137.267,20.4582 137.5,23.5C 135.733,21.2084 134.733,18.5418 134.5,15.5 Z"/></g>
<g><path style="opacity:1" fill="#047857" d="M 54.5,18.5 C 56.688,17.3773 59.0213,17.3773 61.5,18.5C 65.7847,19.2083 70.118,19.7083 74.5,20C 80.4004,22.8046 86.4004,25.3046 92.5,27.5C 93.2905,28.4013 94.2905,29.0679 95.5,29.5C 100.466,31.4357 105.466,33.4357 110.5,35.5C 111.234,36.7079 111.567,38.0413 111.5,39.5C 108.833,38.5 106.167,37.5 103.5,36.5C 102.713,34.8958 101.38,34.2291 99.5,34.5C 98.8166,32.8235 97.4832,32.1568 95.5,32.5C 94.5084,32.6716 93.8417,32.3382 93.5,31.5C 92.0351,30.2632 90.3684,29.2632 88.5,28.5C 86.1547,25.925 83.1547,24.925 79.5,25.5C 78.1667,24.8333 76.8333,24.1667 75.5,23.5C 74.9094,22.8485 74.2427,22.1818 73.5,21.5C 69.2172,20.5078 64.8839,20.1744 60.5,20.5C 60.1583,19.6618 59.4916,19.3284 58.5,19.5C 57.4324,18.5655 56.099,18.2322 54.5,18.5 Z"/></g>
<g><path style="opacity:0.184" fill="#047857" d="M 118.5,19.5 C 115.943,20.4852 113.276,21.4852 110.5,22.5C 111.77,23.2876 112.77,24.2876 113.5,25.5C 111.5,24.8333 109.5,24.1667 107.5,23.5C 107.5,22.5 107.5,21.5 107.5,20.5C 111.154,20.0578 114.821,19.7244 118.5,19.5 Z"/></g>
<g><path style="opacity:0.365" fill="#047857" d="M 118.5,19.5 C 118.5,19.1667 118.5,18.8333 118.5,18.5C 119.5,18.5 120.5,18.5 121.5,18.5C 122.234,19.7079 122.567,21.0413 122.5,22.5C 121.764,20.7706 120.43,19.7706 118.5,19.5 Z"/></g>
<g><path style="opacity:0.929" fill="#047857" d="M 54.5,18.5 C 56.099,18.2322 57.4324,18.5655 58.5,19.5C 56.8561,19.2865 55.3561,19.6198 54,20.5C 52.6591,23.022 51.8257,25.6887 51.5,28.5C 51.1667,28.5 50.8333,28.5 50.5,28.5C 50.448,26.0971 50.7814,23.7638 51.5,21.5C 52.1667,20.1667 53.1667,19.1667 54.5,18.5 Z"/></g>
<g><path style="opacity:1" fill="#047857" d="M 60.5,20.5 C 64.8839,20.1744 69.2172,20.5078 73.5,21.5C 74.2427,22.1818 74.9094,22.8485 75.5,23.5C 74.8333,23.5 74.1667,23.5 73.5,23.5C 70.6916,22.0712 67.6916,21.4045 64.5,21.5C 62.901,21.7678 61.5676,21.4345 60.5,20.5 Z"/></g>
<g><path style="opacity:1" fill="#047857" d="M 101.5,22.5 C 102.833,23.5 104.167,24.5 105.5,25.5C 102.45,24.9232 100.45,26.0899 99.5,29C 98.2068,29.49 96.8734,29.6567 95.5,29.5C 94.2905,29.0679 93.2905,28.4013 92.5,27.5C 89.9405,24.5421 86.9405,22.0421 83.5,20C 84.1079,19.1301 84.9412,18.6301 86,18.5C 88.3864,20.1225 90.8864,21.4559 93.5,22.5C 96.095,21.7628 98.7616,21.7628 101.5,22.5 Z"/></g>
<g><path style="opacity:1" fill="#047857" d="M 119.5,14.5 C 122.195,14.933 124.362,16.2663 126,18.5C 127.039,17.7562 127.539,16.7562 127.5,15.5C 129.117,16.5893 129.95,18.256 130,20.5C 130.219,19.062 130.719,17.7287 131.5,16.5C 132.183,16.8627 132.85,17.1961 133.5,17.5C 134.961,23.4737 136.295,29.4737 137.5,35.5C 135.178,33.5884 132.512,32.255 129.5,31.5C 129.5,33.5 129.5,35.5 129.5,37.5C 128.691,35.7078 128.191,33.7078 128,31.5C 127.623,30.0577 126.79,29.0577 125.5,28.5C 124.5,26.5 123.5,24.5 122.5,22.5C 122.567,21.0413 122.234,19.7079 121.5,18.5C 122.557,17.794 122.224,17.4607 120.5,17.5C 119.89,16.609 119.557,15.609 119.5,14.5 Z"/></g>
<g><path style="opacity:1" fill="#047857" d="M 73.5,23.5 C 74.1667,23.5 74.8333,23.5 75.5,23.5C 76.8333,24.1667 78.1667,24.8333 79.5,25.5C 77.5,25.5 75.5,25.5 73.5,25.5C 73.5,24.8333 73.5,24.1667 73.5,23.5 Z"/></g>
<g><path style="opacity:0.075" fill="#047857" d="M 137.5,23.5 C 140.24,30.1314 141.907,37.1314 142.5,44.5C 141.184,41.5917 140.184,38.5917 139.5,35.5C 138.833,31.5 138.167,27.5 137.5,23.5 Z"/></g>
<g><path style="opacity:1" fill="#047857" d="M 64.5,21.5 C 67.6916,21.4045 70.6916,22.0712 73.5,23.5C 73.5,24.1667 73.5,24.8333 73.5,25.5C 69.2648,26.4699 65.2648,27.8032 61.5,29.5C 59.4418,30.9331 57.1085,31.5997 54.5,31.5C 58.636,29.0138 62.636,26.3472 66.5,23.5C 65.8333,22.8333 65.1667,22.1667 64.5,21.5 Z"/></g>
<g><path style="opacity:0.976" fill="#047857" d="M 101.5,22.5 C 103.216,22.6287 104.883,22.962 106.5,23.5C 106.833,23.5 107.167,23.5 107.5,23.5C 109.5,24.1667 111.5,24.8333 113.5,25.5C 113.973,26.9063 114.973,27.573 116.5,27.5C 116.833,28.1667 117.167,28.8333 117.5,29.5C 115.708,29.634 114.042,29.3007 112.5,28.5C 110.539,26.6878 108.206,25.6878 105.5,25.5C 104.167,24.5 102.833,23.5 101.5,22.5 Z"/></g>
<g><path style="opacity:1" fill="#047857" d="M 79.5,25.5 C 83.1547,24.925 86.1547,25.925 88.5,28.5C 87.1667,28.5 85.8333,28.5 84.5,28.5C 82.9275,27.3127 81.2608,26.3127 79.5,25.5 Z"/></g>
<g><path style="opacity:0.075" fill="#047857" d="M 113.5,25.5 C 115.027,25.427 116.027,26.0937 116.5,27.5C 114.973,27.573 113.973,26.9063 113.5,25.5 Z"/></g>
<g><path style="opacity:0.247" fill="#047857" d="M 58.5,19.5 C 59.4916,19.3284 60.1583,19.6618 60.5,20.5C 58.5328,20.2606 56.6995,20.5939 55,21.5C 53.5287,24.3791 52.862,27.3791 53,30.5C 57.2035,27.4824 61.7035,25.1491 66.5,23.5C 62.636,26.3472 58.636,29.0138 54.5,31.5C 53.5084,31.3284 52.8417,31.6618 52.5,32.5C 51.5655,31.4324 51.2322,30.099 51.5,28.5C 51.8257,25.6887 52.6591,23.022 54,20.5C 55.3561,19.6198 56.8561,19.2865 58.5,19.5 Z"/></g>
<g><path style="opacity:1" fill="#047857" d="M 105.5,25.5 C 108.206,25.6878 110.539,26.6878 112.5,28.5C 112.577,29.7498 113.244,30.5831 114.5,31C 112.956,31.2896 111.623,31.9563 110.5,33C 111.774,33.9772 111.774,34.8106 110.5,35.5C 105.466,33.4357 100.466,31.4357 95.5,29.5C 96.8734,29.6567 98.2068,29.49 99.5,29C 100.45,26.0899 102.45,24.9232 105.5,25.5 Z"/></g>
<g><path style="opacity:1" fill="#047857" d="M 43.5,13.5 C 42.5078,16.7786 42.3412,20.1119 43,23.5C 45.1551,22.3166 47.1551,22.6499 49,24.5C 49.4828,23.552 49.6495,22.552 49.5,21.5C 50.1667,21.5 50.8333,21.5 51.5,21.5C 50.7814,23.7638 50.448,26.0971 50.5,28.5C 49.1879,30.4788 47.5212,32.1455 45.5,33.5C 43.6663,32.2455 41.6663,31.5789 39.5,31.5C 39.5,28.8333 39.5,26.1667 39.5,23.5C 39.4859,19.5252 40.8193,16.1918 43.5,13.5 Z"/></g>
<g><path style="opacity:1" fill="#047857" d="M 73.5,25.5 C 75.5,25.5 77.5,25.5 79.5,25.5C 81.2608,26.3127 82.9275,27.3127 84.5,28.5C 83.3406,30.2503 81.674,31.2503 79.5,31.5C 79.6495,30.448 79.4828,29.448 79,28.5C 76.7908,28.0108 74.9575,27.0108 73.5,25.5 Z"/></g>
<g><path style="opacity:0.016" fill="#047857" d="M 122.5,22.5 C 123.5,24.5 124.5,26.5 125.5,28.5C 125.843,30.4832 125.176,31.8166 123.5,32.5C 123.158,31.6618 122.492,31.3284 121.5,31.5C 120.486,30.3263 119.153,29.6596 117.5,29.5C 117.167,28.8333 116.833,28.1667 116.5,27.5C 118.84,28.086 121.007,29.086 123,30.5C 123.175,27.8428 123.008,25.1761 122.5,22.5 Z"/></g>
<g><path style="opacity:1" fill="#047857" d="M 61.5,29.5 C 63.604,29.2011 65.604,29.5344 67.5,30.5C 68.0549,32.3932 67.3882,34.0599 65.5,35.5C 63.7428,36.292 62.4095,37.6253 61.5,39.5C 59.9974,38.9478 58.3307,38.9478 56.5,39.5C 54.7773,37.22 54.1107,34.5533 54.5,31.5C 57.1085,31.5997 59.4418,30.9331 61.5,29.5 Z"/></g>
<g><path style="opacity:1" fill="#047857" d="M 39.5,23.5 C 39.5,26.1667 39.5,28.8333 39.5,31.5C 41.6663,31.5789 43.6663,32.2455 45.5,33.5C 47.5212,32.1455 49.1879,30.4788 50.5,28.5C 50.333,32.1794 48.6663,34.846 45.5,36.5C 41.7993,38.4407 38.2993,40.774 35,43.5C 34.6012,43.2716 34.4346,42.9382 34.5,42.5C 35.2951,35.8242 36.9618,29.4909 39.5,23.5 Z"/></g>
<g><path style="opacity:1" fill="#047857" d="M 73.5,25.5 C 74.9575,27.0108 76.7908,28.0108 79,28.5C 79.4828,29.448 79.6495,30.448 79.5,31.5C 78.4863,32.6737 77.153,33.3404 75.5,33.5C 74.5041,33.5858 73.6708,33.2524 73,32.5C 70.8063,34.1778 68.3063,35.1778 65.5,35.5C 67.3882,34.0599 68.0549,32.3932 67.5,30.5C 65.604,29.5344 63.604,29.2011 61.5,29.5C 65.2648,27.8032 69.2648,26.4699 73.5,25.5 Z"/></g>
<g><path style="opacity:0.753" fill="#047857" d="M 95.5,32.5 C 97.4832,32.1568 98.8166,32.8235 99.5,34.5C 97.847,34.3404 96.5137,33.6737 95.5,32.5 Z"/></g>
<g><path style="opacity:1" fill="#047857" d="M 125.5,28.5 C 126.79,29.0577 127.623,30.0577 128,31.5C 128.191,33.7078 128.691,35.7078 129.5,37.5C 130.164,42.4725 130.497,47.4725 130.5,52.5C 129.833,52.5 129.167,52.5 128.5,52.5C 126.246,51.8763 124.579,50.543 123.5,48.5C 125.044,48.7031 126.378,49.3698 127.5,50.5C 128.702,46.1354 128.535,41.8021 127,37.5C 126.8,35.6803 125.966,34.347 124.5,33.5C 123.833,33.5 123.5,33.1667 123.5,32.5C 125.176,31.8166 125.843,30.4832 125.5,28.5 Z"/></g>
<g><path style="opacity:1" fill="#047857" d="M 50.5,28.5 C 50.8333,28.5 51.1667,28.5 51.5,28.5C 51.2322,30.099 51.5655,31.4324 52.5,32.5C 51.5168,35.9869 49.1834,37.3202 45.5,36.5C 48.6663,34.846 50.333,32.1794 50.5,28.5 Z"/></g>
<g><path style="opacity:0.114" fill="#047857" d="M 84.5,28.5 C 85.8333,28.5 87.1667,28.5 88.5,28.5C 90.3684,29.2632 92.0351,30.2632 93.5,31.5C 91.1732,31.3354 89.0065,30.6687 87,29.5C 81.0106,32.9116 74.8439,35.9116 68.5,38.5C 70.6572,36.5879 72.9906,34.9213 75.5,33.5C 77.153,33.3404 78.4863,32.6737 79.5,31.5C 81.674,31.2503 83.3406,30.2503 84.5,28.5 Z"/></g>
<g><path style="opacity:0.176" fill="#047857" d="M 99.5,34.5 C 101.38,34.2291 102.713,34.8958 103.5,36.5C 101.847,36.3404 100.514,35.6737 99.5,34.5 Z"/></g>
<g><path style="opacity:1" fill="#047857" d="M 112.5,28.5 C 114.042,29.3007 115.708,29.634 117.5,29.5C 119.153,29.6596 120.486,30.3263 121.5,31.5C 123.481,35.3493 123.814,39.3493 122.5,43.5C 121.378,42.3698 120.044,41.7031 118.5,41.5C 116.079,41.1218 113.746,40.4552 111.5,39.5C 111.567,38.0413 111.234,36.7079 110.5,35.5C 111.774,34.8106 111.774,33.9772 110.5,33C 111.623,31.9563 112.956,31.2896 114.5,31C 113.244,30.5831 112.577,29.7498 112.5,28.5 Z"/></g>
<g><path style="opacity:0.149" fill="#047857" d="M 46.5,10.5 C 45.6935,11.7281 44.6935,12.7281 43.5,13.5C 40.8193,16.1918 39.4859,19.5252 39.5,23.5C 36.9618,29.4909 35.2951,35.8242 34.5,42.5C 34.1667,42.5 33.8333,42.5 33.5,42.5C 34.5976,31.7131 37.5976,21.5465 42.5,12C 43.745,11.2086 45.0783,10.7086 46.5,10.5 Z"/></g>
<g><path style="opacity:1" fill="#047857" d="M 137.5,35.5 C 137.5,39.5 137.5,43.5 137.5,47.5C 136.167,47.5 134.833,47.5 133.5,47.5C 134.25,43.2246 132.917,39.8913 129.5,37.5C 129.5,35.5 129.5,33.5 129.5,31.5C 132.512,32.255 135.178,33.5884 137.5,35.5 Z"/></g>
<g><path style="opacity:1" fill="#047857" d="M 75.5,33.5 C 72.9906,34.9213 70.6572,36.5879 68.5,38.5C 65.5063,40.9998 62.173,42.9998 58.5,44.5C 58.8039,43.8501 59.1373,43.1835 59.5,42.5C 58.2299,41.7124 57.2299,40.7124 56.5,39.5C 58.3307,38.9478 59.9974,38.9478 61.5,39.5C 62.4095,37.6253 63.7428,36.292 65.5,35.5C 68.3063,35.1778 70.8063,34.1778 73,32.5C 73.6708,33.2524 74.5041,33.5858 75.5,33.5 Z"/></g>
<g><path style="opacity:0.129" fill="#047857" d="M 103.5,36.5 C 106.167,37.5 108.833,38.5 111.5,39.5C 111.833,40.1667 112.167,40.8333 112.5,41.5C 109.008,40.5903 106.008,38.9236 103.5,36.5 Z"/></g>
<g><path style="opacity:0.925" fill="#047857" d="M 111.5,39.5 C 113.746,40.4552 116.079,41.1218 118.5,41.5C 119.167,42.8333 119.833,44.1667 120.5,45.5C 119.833,45.5 119.167,45.5 118.5,45.5C 118.027,44.0937 117.027,43.427 115.5,43.5C 115.027,42.0937 114.027,41.427 112.5,41.5C 112.167,40.8333 111.833,40.1667 111.5,39.5 Z"/></g>
<g><path style="opacity:1" fill="#047857" d="M 54.5,31.5 C 54.1107,34.5533 54.7773,37.22 56.5,39.5C 57.2299,40.7124 58.2299,41.7124 59.5,42.5C 59.1373,43.1835 58.8039,43.8501 58.5,44.5C 54.6733,46.246 51.0066,48.246 47.5,50.5C 47.5,49.1667 47.5,47.8333 47.5,46.5C 49.1667,46.5 50.8333,46.5 52.5,46.5C 52.244,44.0876 53.244,42.4209 55.5,41.5C 52.3965,37.4718 48.7298,36.8052 44.5,39.5C 44.5569,38.391 44.8902,37.391 45.5,36.5C 49.1834,37.3202 51.5168,35.9869 52.5,32.5C 52.8417,31.6618 53.5084,31.3284 54.5,31.5 Z"/></g>
<g><path style="opacity:0.137" fill="#047857" d="M 112.5,41.5 C 114.027,41.427 115.027,42.0937 115.5,43.5C 113.973,43.573 112.973,42.9063 112.5,41.5 Z"/></g>
<g><path style="opacity:1" fill="#047857" d="M 121.5,31.5 C 122.492,31.3284 123.158,31.6618 123.5,32.5C 123.5,33.1667 123.833,33.5 124.5,33.5C 126.107,37.941 126.774,42.6077 126.5,47.5C 124.315,47.2964 122.315,46.6298 120.5,45.5C 119.833,44.1667 119.167,42.8333 118.5,41.5C 120.044,41.7031 121.378,42.3698 122.5,43.5C 123.814,39.3493 123.481,35.3493 121.5,31.5 Z"/></g>
<g><path style="opacity:1" fill="#047857" d="M 45.5,36.5 C 44.8902,37.391 44.5569,38.391 44.5,39.5C 43.1667,40.1667 42.1667,41.1667 41.5,42.5C 39.2192,44.4279 36.5525,45.4279 33.5,45.5C 33.5,44.5 33.5,43.5 33.5,42.5C 33.8333,42.5 34.1667,42.5 34.5,42.5C 34.4346,42.9382 34.6012,43.2716 35,43.5C 38.2993,40.774 41.7993,38.4407 45.5,36.5 Z"/></g>
<g><path style="opacity:0.153" fill="#047857" d="M 115.5,43.5 C 117.027,43.427 118.027,44.0937 118.5,45.5C 116.973,45.573 115.973,44.9063 115.5,43.5 Z"/></g>
<g><path style="opacity:1" fill="#047857" d="M 47.5,50.5 C 46.1667,50.5 44.8333,50.5 43.5,50.5C 43.8039,49.8501 44.1373,49.1835 44.5,48.5C 40.8027,47.7147 39.8027,45.7147 41.5,42.5C 42.1667,41.1667 43.1667,40.1667 44.5,39.5C 48.7298,36.8052 52.3965,37.4718 55.5,41.5C 53.244,42.4209 52.244,44.0876 52.5,46.5C 50.8333,46.5 49.1667,46.5 47.5,46.5C 47.5,47.8333 47.5,49.1667 47.5,50.5 Z"/></g>
<g><path style="opacity:0.149" fill="#047857" d="M 118.5,45.5 C 119.167,45.5 119.833,45.5 120.5,45.5C 120.833,46.1667 121.167,46.8333 121.5,47.5C 119.973,47.573 118.973,46.9063 118.5,45.5 Z"/></g>
<g><path style="opacity:1" fill="#047857" d="M 41.5,42.5 C 39.8027,45.7147 40.8027,47.7147 44.5,48.5C 44.1373,49.1835 43.8039,49.8501 43.5,50.5C 42.8776,52.1216 41.8776,53.4549 40.5,54.5C 41.168,50.4867 39.5013,48.4867 35.5,48.5C 34.1667,48.6667 32.8333,48.8333 31.5,49C 29.8863,51.1267 27.8863,52.6267 25.5,53.5C 27.8605,50.4728 30.5271,47.8062 33.5,45.5C 36.5525,45.4279 39.2192,44.4279 41.5,42.5 Z"/></g>
<g><path style="opacity:1" fill="#047857" d="M 124.5,33.5 C 125.966,34.347 126.8,35.6803 127,37.5C 128.535,41.8021 128.702,46.1354 127.5,50.5C 126.378,49.3698 125.044,48.7031 123.5,48.5C 122.508,48.6716 121.842,48.3382 121.5,47.5C 121.167,46.8333 120.833,46.1667 120.5,45.5C 122.315,46.6298 124.315,47.2964 126.5,47.5C 126.774,42.6077 126.107,37.941 124.5,33.5 Z"/></g>
<g><path style="opacity:1" fill="#047857" d="M 40.5,54.5 C 37.3851,56.2878 35.3851,58.9545 34.5,62.5C 33.5,63.8333 32.5,65.1667 31.5,66.5C 30.1667,67.5 28.8333,68.5 27.5,69.5C 31.6134,64.3899 35.2801,58.8899 38.5,53C 38.3699,51.9412 37.8699,51.1079 37,50.5C 32.5582,52.3033 28.0582,53.97 23.5,55.5C 23.5,54.1667 24.1667,53.5 25.5,53.5C 27.8863,52.6267 29.8863,51.1267 31.5,49C 32.8333,48.8333 34.1667,48.6667 35.5,48.5C 39.5013,48.4867 41.168,50.4867 40.5,54.5 Z"/></g>
<g><path style="opacity:0.118" fill="#047857" d="M 58.5,44.5 C 54.0272,47.7218 50.0272,51.3884 46.5,55.5C 46.366,53.7085 46.6993,52.0418 47.5,50.5C 51.0066,48.246 54.6733,46.246 58.5,44.5 Z"/></g>
<g><path style="opacity:1" fill="#047857" d="M 133.5,15.5 C 133.833,15.5 134.167,15.5 134.5,15.5C 134.733,18.5418 135.733,21.2084 137.5,23.5C 138.167,27.5 138.833,31.5 139.5,35.5C 139.557,41.8513 139.89,48.1846 140.5,54.5C 138.834,53.3336 137.167,53.3336 135.5,54.5C 134.95,56.6568 134.283,58.6568 133.5,60.5C 133.34,55.9555 133.34,51.6222 133.5,47.5C 134.833,47.5 136.167,47.5 137.5,47.5C 137.5,43.5 137.5,39.5 137.5,35.5C 136.295,29.4737 134.961,23.4737 133.5,17.5C 133.5,16.8333 133.5,16.1667 133.5,15.5 Z"/></g>
<g><path style="opacity:0.145" fill="#047857" d="M 33.5,42.5 C 33.5,43.5 33.5,44.5 33.5,45.5C 30.5271,47.8062 27.8605,50.4728 25.5,53.5C 24.1667,53.5 23.5,54.1667 23.5,55.5C 20.9438,56.5434 18.7772,58.2101 17,60.5C 14.2346,63.094 12.0679,66.094 10.5,69.5C 8.99421,72.356 8.32755,75.5226 8.5,79C 8.50393,81.3608 8.83726,83.5274 9.5,85.5C 13.0971,91.6766 17.4304,97.3433 22.5,102.5C 6.88188,93.5447 3.04855,80.8781 11,64.5C 18.4997,56.8298 25.9997,49.4965 33.5,42.5 Z"/></g>
<g><path style="opacity:0.204" fill="#047857" d="M 142.5,44.5 C 150.745,52.2429 158.911,60.2429 167,68.5C 167.464,69.0944 167.631,69.7611 167.5,70.5C 167.167,70.5 166.833,70.5 166.5,70.5C 165.5,68.8333 164.167,67.5 162.5,66.5C 162.167,65.5 161.5,64.8333 160.5,64.5C 158.5,61.8333 156.167,59.5 153.5,57.5C 153.167,56.5 152.5,55.8333 151.5,55.5C 148.859,53.1956 146.192,50.8623 143.5,48.5C 143.5,47.8333 143.167,47.5 142.5,47.5C 142.5,46.5 142.5,45.5 142.5,44.5 Z"/></g>
<g><path style="opacity:1" fill="#047857" d="M 43.5,50.5 C 44.8333,50.5 46.1667,50.5 47.5,50.5C 46.6993,52.0418 46.366,53.7085 46.5,55.5C 46.1667,55.5 45.8333,55.5 45.5,55.5C 45.1034,54.475 44.4368,54.3083 43.5,55C 40.8039,57.9288 37.8039,60.4288 34.5,62.5C 35.3851,58.9545 37.3851,56.2878 40.5,54.5C 41.8776,53.4549 42.8776,52.1216 43.5,50.5 Z"/></g>
<g><path style="opacity:1" fill="#047857" d="M 140.5,54.5 C 142.188,58.408 141.522,61.908 138.5,65C 141.799,69.2848 140.799,71.4514 135.5,71.5C 135.785,69.712 135.452,68.0453 134.5,66.5C 133.817,66.8627 133.15,67.1961 132.5,67.5C 132.5,66.1667 132.5,64.8333 132.5,63.5C 133.404,62.791 133.737,61.791 133.5,60.5C 134.283,58.6568 134.95,56.6568 135.5,54.5C 137.167,53.3336 138.834,53.3336 140.5,54.5 Z"/></g>
<g><path style="opacity:1" fill="#047857" d="M 27.5,69.5 C 26.8333,70.1667 26.1667,70.8333 25.5,71.5C 25.7526,66.9792 26.7526,62.6459 28.5,58.5C 28.1667,57.5 27.5,56.8333 26.5,56.5C 23.3081,59.1924 19.9748,61.6924 16.5,64C 15.6634,65.0113 15.33,66.1779 15.5,67.5C 13.4862,67.3915 11.8195,68.0582 10.5,69.5C 12.0679,66.094 14.2346,63.094 17,60.5C 18.7772,58.2101 20.9438,56.5434 23.5,55.5C 28.0582,53.97 32.5582,52.3033 37,50.5C 37.8699,51.1079 38.3699,51.9412 38.5,53C 35.2801,58.8899 31.6134,64.3899 27.5,69.5 Z"/></g>
<g><path style="opacity:1" fill="#047857" d="M 129.5,37.5 C 132.917,39.8913 134.25,43.2246 133.5,47.5C 133.34,51.6222 133.34,55.9555 133.5,60.5C 133.737,61.791 133.404,62.791 132.5,63.5C 132.167,63.5 131.833,63.5 131.5,63.5C 130.756,59.8815 130.423,56.2148 130.5,52.5C 130.497,47.4725 130.164,42.4725 129.5,37.5 Z"/></g>
<g><path style="opacity:1" fill="#047857" d="M 142.5,47.5 C 143.167,47.5 143.5,47.8333 143.5,48.5C 143.605,54.9007 144.272,61.234 145.5,67.5C 144.022,66.5525 143.022,65.2191 142.5,63.5C 142.5,58.1667 142.5,52.8333 142.5,47.5 Z"/></g>
<g><path style="opacity:1" fill="#047857" d="M 143.5,48.5 C 146.192,50.8623 148.859,53.1956 151.5,55.5C 149.13,55.264 147.13,54.264 145.5,52.5C 145.167,53.1667 144.833,53.8333 144.5,54.5C 146.144,59.3749 147.144,64.3749 147.5,69.5C 146.833,69.1667 146.167,68.8333 145.5,68.5C 145.5,68.1667 145.5,67.8333 145.5,67.5C 144.272,61.234 143.605,54.9007 143.5,48.5 Z"/></g>
<g><path style="opacity:1" fill="#047857" d="M 153.5,57.5 C 153.613,60.0488 152.946,62.3821 151.5,64.5C 152.348,66.4086 152.682,68.4086 152.5,70.5C 149.23,70.3213 147.563,68.488 147.5,65C 148.167,64 148.833,63 149.5,62C 148.767,60.2341 148.433,58.4008 148.5,56.5C 150.216,56.6287 151.883,56.962 153.5,57.5 Z"/></g>
<g><path style="opacity:0.071" fill="#047857" d="M 128.5,52.5 C 129.167,52.5 129.833,52.5 130.5,52.5C 130.423,56.2148 130.756,59.8815 131.5,63.5C 131.737,76.8587 131.404,90.192 130.5,103.5C 130.5,104.167 130.5,104.833 130.5,105.5C 127.865,106.811 125.531,108.478 123.5,110.5C 122.508,110.328 121.842,110.662 121.5,111.5C 118.167,113.167 114.833,114.833 111.5,116.5C 116.084,112.53 121.084,109.03 126.5,106C 127.701,105.097 128.535,103.931 129,102.5C 131.058,85.8012 130.891,69.1346 128.5,52.5 Z"/></g>
<g><path style="opacity:1" fill="#047857" d="M 151.5,55.5 C 152.5,55.8333 153.167,56.5 153.5,57.5C 151.883,56.962 150.216,56.6287 148.5,56.5C 148.433,58.4008 148.767,60.2341 149.5,62C 148.833,63 148.167,64 147.5,65C 147.563,68.488 149.23,70.3213 152.5,70.5C 152.263,71.791 152.596,72.791 153.5,73.5C 153.5,74.1667 153.5,74.8333 153.5,75.5C 151.167,73.8333 149.167,71.8333 147.5,69.5C 147.144,64.3749 146.144,59.3749 144.5,54.5C 144.833,53.8333 145.167,53.1667 145.5,52.5C 147.13,54.264 149.13,55.264 151.5,55.5 Z"/></g>
<g><path style="opacity:1" fill="#047857" d="M 45.5,55.5 C 45.634,57.2915 45.3007,58.9582 44.5,60.5C 44.1667,60.5 43.8333,60.5 43.5,60.5C 42.1266,60.3433 40.7932,60.51 39.5,61C 37.6875,64.9717 35.0208,68.1383 31.5,70.5C 31.5,69.1667 31.5,67.8333 31.5,66.5C 32.5,65.1667 33.5,63.8333 34.5,62.5C 37.8039,60.4288 40.8039,57.9288 43.5,55C 44.4368,54.3083 45.1034,54.475 45.5,55.5 Z"/></g>
<g><path style="opacity:1" fill="#047857" d="M 25.5,71.5 C 24.3995,72.6049 23.7329,73.9382 23.5,75.5C 21.8958,76.287 21.2291,77.6203 21.5,79.5C 20.8333,79.5 20.1667,79.5 19.5,79.5C 19.0766,78.7354 18.7432,77.9021 18.5,77C 19.8325,74.6687 21.1658,72.3354 22.5,70C 21.7213,65.0539 20.0546,64.5539 17.5,68.5C 15.9223,69.2978 14.2556,69.7978 12.5,70C 11.1772,70.8159 10.5106,71.9826 10.5,73.5C 9.51658,77.2984 9.18325,81.2984 9.5,85.5C 8.83726,83.5274 8.50393,81.3608 8.5,79C 8.32755,75.5226 8.99421,72.356 10.5,69.5C 11.8195,68.0582 13.4862,67.3915 15.5,67.5C 15.33,66.1779 15.6634,65.0113 16.5,64C 19.9748,61.6924 23.3081,59.1924 26.5,56.5C 27.5,56.8333 28.1667,57.5 28.5,58.5C 26.7526,62.6459 25.7526,66.9792 25.5,71.5 Z"/></g>
<g><path style="opacity:1" fill="#047857" d="M 153.5,57.5 C 156.167,59.5 158.5,61.8333 160.5,64.5C 160.565,67.4715 159.731,70.1382 158,72.5C 156.243,67.4173 154.743,67.7506 153.5,73.5C 152.596,72.791 152.263,71.791 152.5,70.5C 152.682,68.4086 152.348,66.4086 151.5,64.5C 152.946,62.3821 153.613,60.0488 153.5,57.5 Z"/></g>
<g><path style="opacity:1" fill="#047857" d="M 139.5,35.5 C 140.184,38.5917 141.184,41.5917 142.5,44.5C 142.5,45.5 142.5,46.5 142.5,47.5C 142.5,52.8333 142.5,58.1667 142.5,63.5C 143.198,69.0606 142.198,74.2273 139.5,79C 138.207,79.49 136.873,79.6567 135.5,79.5C 134.883,79.3893 134.383,79.056 134,78.5C 133.51,79.7932 133.343,81.1266 133.5,82.5C 133.167,82.5 132.833,82.5 132.5,82.5C 132.5,77.5 132.5,72.5 132.5,67.5C 133.15,67.1961 133.817,66.8627 134.5,66.5C 135.452,68.0453 135.785,69.712 135.5,71.5C 140.799,71.4514 141.799,69.2848 138.5,65C 141.522,61.908 142.188,58.408 140.5,54.5C 139.89,48.1846 139.557,41.8513 139.5,35.5 Z"/></g>
<g><path style="opacity:0.067" fill="#047857" d="M 145.5,68.5 C 146.167,68.8333 146.833,69.1667 147.5,69.5C 149.167,71.8333 151.167,73.8333 153.5,75.5C 154.167,76.5 154.833,77.5 155.5,78.5C 155.649,79.552 155.483,80.552 155,81.5C 152.873,83.1137 151.373,85.1137 150.5,87.5C 148.736,88.326 147.402,89.6593 146.5,91.5C 145.833,91.5 145.167,91.5 144.5,91.5C 144.5,90.5 144.5,89.5 144.5,88.5C 144.176,81.6457 144.509,74.979 145.5,68.5 Z M 146.5,72.5 C 155.651,76.99 155.818,81.99 147,87.5C 146.13,86.8921 145.63,86.0588 145.5,85C 146.09,80.7937 146.423,76.6271 146.5,72.5 Z"/></g>
<g><path style="opacity:1" fill="#047857" d="M 160.5,64.5 C 161.5,64.8333 162.167,65.5 162.5,66.5C 162.116,69.8958 160.782,72.8958 158.5,75.5C 157.833,76.8333 156.833,77.8333 155.5,78.5C 154.833,77.5 154.167,76.5 153.5,75.5C 153.5,74.8333 153.5,74.1667 153.5,73.5C 154.743,67.7506 156.243,67.4173 158,72.5C 159.731,70.1382 160.565,67.4715 160.5,64.5 Z"/></g>
<g><path style="opacity:1" fill="#047857" d="M 19.5,79.5 C 17.8235,80.1834 17.1568,81.5168 17.5,83.5C 15.9069,82.6521 14.7403,81.3187 14,79.5C 13.6667,76.8333 13.3333,74.1667 13,71.5C 11.5692,75.6346 11.0692,79.968 11.5,84.5C 10.5184,81.0381 10.185,77.3714 10.5,73.5C 10.5106,71.9826 11.1772,70.8159 12.5,70C 14.2556,69.7978 15.9223,69.2978 17.5,68.5C 20.0546,64.5539 21.7213,65.0539 22.5,70C 21.1658,72.3354 19.8325,74.6687 18.5,77C 18.7432,77.9021 19.0766,78.7354 19.5,79.5 Z"/></g>
<g><path style="opacity:1" fill="#047857" d="M 42.5,70.5 C 42.5,73.5 42.5,76.5 42.5,79.5C 42.1667,79.5 41.8333,79.5 41.5,79.5C 40.1779,79.67 39.0113,79.3366 38,78.5C 37.5034,76.1902 37.3367,73.8568 37.5,71.5C 38.7917,68.3296 40.4584,67.9962 42.5,70.5 Z"/></g>
<g><path style="opacity:0.967" fill="#047857" d="M 43.5,60.5 C 43.5405,63.8806 43.2071,67.2139 42.5,70.5C 40.4584,67.9962 38.7917,68.3296 37.5,71.5C 35.8333,71.5 34.1667,71.5 32.5,71.5C 32.5,79.5 32.5,87.5 32.5,95.5C 32.1667,95.5 31.8333,95.5 31.5,95.5C 31.7845,93.5853 31.4511,91.9187 30.5,90.5C 30.3357,83.7978 30.669,77.1311 31.5,70.5C 35.0208,68.1383 37.6875,64.9717 39.5,61C 40.7932,60.51 42.1266,60.3433 43.5,60.5 Z"/></g>
<g><path style="opacity:1" fill="#047857" d="M 142.5,63.5 C 143.022,65.2191 144.022,66.5525 145.5,67.5C 145.5,67.8333 145.5,68.1667 145.5,68.5C 144.509,74.979 144.176,81.6457 144.5,88.5C 143.833,85.8333 143.167,83.1667 142.5,80.5C 142.44,79.9569 142.107,79.6236 141.5,79.5C 139.421,82.1062 137.421,82.1062 135.5,79.5C 136.873,79.6567 138.207,79.49 139.5,79C 142.198,74.2273 143.198,69.0606 142.5,63.5 Z"/></g>
<g><path style="opacity:1" fill="#047857" d="M 162.5,66.5 C 164.167,67.5 165.5,68.8333 166.5,70.5C 166.433,76.597 165.433,82.2637 163.5,87.5C 161.674,83.9769 161.007,80.3102 161.5,76.5C 160.791,75.596 159.791,75.2627 158.5,75.5C 160.782,72.8958 162.116,69.8958 162.5,66.5 Z"/></g>
<g><path style="opacity:0.208" fill="#047857" d="M 23.5,75.5 C 22.1667,77.5 22.1667,79.5 23.5,81.5C 22.5,81.1667 21.8333,80.5 21.5,79.5C 21.2291,77.6203 21.8958,76.287 23.5,75.5 Z"/></g>
<g><path style="opacity:1" fill="#047857" d="M 37.5,71.5 C 37.3367,73.8568 37.5034,76.1902 38,78.5C 39.0113,79.3366 40.1779,79.67 41.5,79.5C 40.612,82.0545 40.2786,84.7212 40.5,87.5C 38.1824,85.8148 37.1824,83.4815 37.5,80.5C 36.1667,80.5 34.8333,80.5 33.5,80.5C 33.5,85.5 33.5,90.5 33.5,95.5C 33.1667,95.5 32.8333,95.5 32.5,95.5C 32.5,87.5 32.5,79.5 32.5,71.5C 34.1667,71.5 35.8333,71.5 37.5,71.5 Z"/></g>
<g><path style="opacity:1" fill="#047857" d="M 161.5,76.5 C 161.007,80.3102 161.674,83.9769 163.5,87.5C 163.446,89.632 162.446,90.9653 160.5,91.5C 159.829,90.1529 159.829,88.9862 160.5,88C 159.484,87.4806 158.818,86.6473 158.5,85.5C 159.732,83.3175 159.732,81.1508 158.5,79C 158.748,77.2509 159.748,76.4176 161.5,76.5 Z"/></g>
<g><path style="opacity:0.052" fill="#047857" d="M 31.5,66.5 C 31.5,67.8333 31.5,69.1667 31.5,70.5C 30.669,77.1311 30.3357,83.7978 30.5,90.5C 29.7281,89.3065 28.7281,88.3065 27.5,87.5C 27.5,86.8333 27.1667,86.5 26.5,86.5C 25.075,85.078 24.075,83.4113 23.5,81.5C 25.3925,82.7017 27.2258,84.035 29,85.5C 29.1998,81.2467 29.6998,77.08 30.5,73C 29.8742,72.2496 29.3742,71.4162 29,70.5C 27.2962,72.3734 25.4628,74.0401 23.5,75.5C 23.7329,73.9382 24.3995,72.6049 25.5,71.5C 26.1667,70.8333 26.8333,70.1667 27.5,69.5C 28.8333,68.5 30.1667,67.5 31.5,66.5 Z"/></g>
<g><path style="opacity:1" fill="#047857" d="M 135.5,79.5 C 137.421,82.1062 139.421,82.1062 141.5,79.5C 142.107,79.6236 142.44,79.9569 142.5,80.5C 142.491,85.7442 139.991,87.7442 135,86.5C 134.209,85.255 133.709,83.9217 133.5,82.5C 133.343,81.1266 133.51,79.7932 134,78.5C 134.383,79.056 134.883,79.3893 135.5,79.5 Z"/></g>
<g><path style="opacity:1" fill="#047857" d="M 17.5,83.5 C 16.3247,85.0862 14.9914,86.5862 13.5,88C 14.056,88.3826 14.3893,88.8826 14.5,89.5C 14.19,90.7383 13.69,90.7383 13,89.5C 11.9914,87.9751 11.4914,86.3084 11.5,84.5C 11.0692,79.968 11.5692,75.6346 13,71.5C 13.3333,74.1667 13.6667,76.8333 14,79.5C 14.7403,81.3187 15.9069,82.6521 17.5,83.5 Z"/></g>
<g><path style="opacity:0.039" fill="#047857" d="M 45.5,55.5 C 45.8333,55.5 46.1667,55.5 46.5,55.5C 45.0614,71.8574 45.2281,88.1907 47,104.5C 48.045,105.373 48.8783,106.373 49.5,107.5C 47.8235,108.183 47.1568,109.517 47.5,111.5C 46.4076,107.184 45.4076,102.851 44.5,98.5C 44.5,85.8333 44.5,73.1667 44.5,60.5C 45.3007,58.9582 45.634,57.2915 45.5,55.5 Z"/></g>
<g><path style="opacity:1" fill="#047857" d="M 40.5,87.5 C 41.1386,88.0968 41.472,88.9302 41.5,90C 40.8937,93.1991 40.2271,96.3657 39.5,99.5C 37.8828,100.038 36.2161,100.371 34.5,100.5C 34.7373,99.209 34.404,98.209 33.5,97.5C 33.5,96.8333 33.5,96.1667 33.5,95.5C 33.5,90.5 33.5,85.5 33.5,80.5C 34.8333,80.5 36.1667,80.5 37.5,80.5C 37.1824,83.4815 38.1824,85.8148 40.5,87.5 Z"/></g>
<g><path style="opacity:1" fill="#047857" d="M 142.5,80.5 C 143.167,83.1667 143.833,85.8333 144.5,88.5C 144.5,89.5 144.5,90.5 144.5,91.5C 142.091,93.5019 139.758,95.5019 137.5,97.5C 136.07,97.4208 134.736,97.7542 133.5,98.5C 132.505,93.2079 132.172,87.8746 132.5,82.5C 132.833,82.5 133.167,82.5 133.5,82.5C 133.709,83.9217 134.209,85.255 135,86.5C 139.991,87.7442 142.491,85.7442 142.5,80.5 Z"/></g>
<g><path style="opacity:1" fill="#047857" d="M 19.5,79.5 C 20.1667,79.5 20.8333,79.5 21.5,79.5C 21.8333,80.5 22.5,81.1667 23.5,81.5C 24.075,83.4113 25.075,85.078 26.5,86.5C 25.0047,86.4148 24.0047,87.0815 23.5,88.5C 24.6797,92.6761 23.013,95.0094 18.5,95.5C 17.1667,93.5 15.8333,91.5 14.5,89.5C 14.3893,88.8826 14.056,88.3826 13.5,88C 14.9914,86.5862 16.3247,85.0862 17.5,83.5C 17.1568,81.5168 17.8235,80.1834 19.5,79.5 Z"/></g>
<g><path style="opacity:1" fill="#047857" d="M 158.5,75.5 C 159.791,75.2627 160.791,75.596 161.5,76.5C 159.748,76.4176 158.748,77.2509 158.5,79C 159.732,81.1508 159.732,83.3175 158.5,85.5C 158.818,86.6473 159.484,87.4806 160.5,88C 159.829,88.9862 159.829,90.1529 160.5,91.5C 159.566,92.5676 159.232,93.901 159.5,95.5C 157.833,97.8333 155.833,99.8333 153.5,101.5C 153.5,100.167 153.5,98.8333 153.5,97.5C 149.686,97.3491 148.019,95.3491 148.5,91.5C 149.345,90.3285 150.011,88.9952 150.5,87.5C 151.373,85.1137 152.873,83.1137 155,81.5C 155.483,80.552 155.649,79.552 155.5,78.5C 156.833,77.8333 157.833,76.8333 158.5,75.5 Z"/></g>
<g><path style="opacity:1" fill="#047857" d="M 166.5,70.5 C 166.833,70.5 167.167,70.5 167.5,70.5C 167.666,76.1764 167.499,81.8431 167,87.5C 165,90.6657 162.5,93.3324 159.5,95.5C 159.232,93.901 159.566,92.5676 160.5,91.5C 162.446,90.9653 163.446,89.632 163.5,87.5C 165.433,82.2637 166.433,76.597 166.5,70.5 Z"/></g>
<g><path style="opacity:0.965" fill="#047857" d="M 43.5,60.5 C 43.8333,60.5 44.1667,60.5 44.5,60.5C 44.5,73.1667 44.5,85.8333 44.5,98.5C 44.5,99.8333 44.5,101.167 44.5,102.5C 43.3054,102.134 42.6387,101.301 42.5,100C 42.6113,93.3349 42.6113,86.5015 42.5,79.5C 42.5,76.5 42.5,73.5 42.5,70.5C 43.2071,67.2139 43.5405,63.8806 43.5,60.5 Z"/></g>
<g><path style="opacity:1" fill="#047857" d="M 41.5,79.5 C 41.8333,79.5 42.1667,79.5 42.5,79.5C 42.6113,86.5015 42.6113,93.3349 42.5,100C 42.6387,101.301 43.3054,102.134 44.5,102.5C 44.8432,104.483 44.1765,105.817 42.5,106.5C 42.5,105.833 42.1667,105.5 41.5,105.5C 41.8039,104.85 42.1373,104.183 42.5,103.5C 41.3063,102.201 40.3063,100.868 39.5,99.5C 40.2271,96.3657 40.8937,93.1991 41.5,90C 41.472,88.9302 41.1386,88.0968 40.5,87.5C 40.2786,84.7212 40.612,82.0545 41.5,79.5 Z"/></g>
<g><path style="opacity:0.082" fill="#047857" d="M 167.5,70.5 C 168.165,73.3138 168.498,76.3138 168.5,79.5C 168.589,83.285 168.089,86.9516 167,90.5C 160.467,97.9574 153.3,104.624 145.5,110.5C 148.167,107.5 150.833,104.5 153.5,101.5C 155.833,99.8333 157.833,97.8333 159.5,95.5C 162.5,93.3324 165,90.6657 167,87.5C 167.499,81.8431 167.666,76.1764 167.5,70.5 Z"/></g>
<g><path style="opacity:1" fill="#047857" d="M 26.5,86.5 C 27.1667,86.5 27.5,86.8333 27.5,87.5C 27.5,92.1667 27.5,96.8333 27.5,101.5C 26.0222,101.762 24.6888,101.429 23.5,100.5C 22.4225,98.1498 20.7559,96.4831 18.5,95.5C 23.013,95.0094 24.6797,92.6761 23.5,88.5C 24.0047,87.0815 25.0047,86.4148 26.5,86.5 Z"/></g>
<g><path style="opacity:0.843" fill="#047857" d="M 131.5,63.5 C 131.833,63.5 132.167,63.5 132.5,63.5C 132.5,64.8333 132.5,66.1667 132.5,67.5C 132.5,72.5 132.5,77.5 132.5,82.5C 132.172,87.8746 132.505,93.2079 133.5,98.5C 134.736,97.7542 136.07,97.4208 137.5,97.5C 135.806,99.8606 133.806,101.861 131.5,103.5C 131.167,103.5 130.833,103.5 130.5,103.5C 131.404,90.192 131.737,76.8587 131.5,63.5 Z"/></g>
<g><path style="opacity:1" fill="#047857" d="M 144.5,91.5 C 145.167,91.5 145.833,91.5 146.5,91.5C 145.194,92.4674 144.527,93.8007 144.5,95.5C 143.127,95.3433 141.793,95.51 140.5,96C 138.532,99.8063 135.532,102.306 131.5,103.5C 133.806,101.861 135.806,99.8606 137.5,97.5C 139.758,95.5019 142.091,93.5019 144.5,91.5 Z"/></g>
<g><path style="opacity:1" fill="#047857" d="M 150.5,87.5 C 150.011,88.9952 149.345,90.3285 148.5,91.5C 146.642,93.7741 146.309,96.2741 147.5,99C 144.526,99.9931 141.526,100.826 138.5,101.5C 136.262,103.116 133.929,104.449 131.5,105.5C 131.167,105.5 130.833,105.5 130.5,105.5C 130.5,104.833 130.5,104.167 130.5,103.5C 130.833,103.5 131.167,103.5 131.5,103.5C 135.532,102.306 138.532,99.8063 140.5,96C 141.793,95.51 143.127,95.3433 144.5,95.5C 144.527,93.8007 145.194,92.4674 146.5,91.5C 147.402,89.6593 148.736,88.326 150.5,87.5 Z"/></g>
<g><path style="opacity:1" fill="#047857" d="M 39.5,99.5 C 40.3063,100.868 41.3063,102.201 42.5,103.5C 42.1373,104.183 41.8039,104.85 41.5,105.5C 41.5662,107.083 41.2328,108.75 40.5,110.5C 39.71,109.391 39.21,108.058 39,106.5C 38.3333,108.5 37.6667,110.5 37,112.5C 35.8814,109.943 35.7147,107.443 36.5,105C 35.4178,103.67 34.7512,102.17 34.5,100.5C 36.2161,100.371 37.8828,100.038 39.5,99.5 Z"/></g>
<g><path style="opacity:1" fill="#047857" d="M 148.5,91.5 C 148.019,95.3491 149.686,97.3491 153.5,97.5C 153.5,98.8333 153.5,100.167 153.5,101.5C 150.488,102.255 147.822,103.588 145.5,105.5C 141.761,106.779 139.428,105.445 138.5,101.5C 141.526,100.826 144.526,99.9931 147.5,99C 146.309,96.2741 146.642,93.7741 148.5,91.5 Z"/></g>
<g><path style="opacity:1" fill="#047857" d="M 10.5,73.5 C 10.185,77.3714 10.5184,81.0381 11.5,84.5C 11.4914,86.3084 11.9914,87.9751 13,89.5C 13.69,90.7383 14.19,90.7383 14.5,89.5C 15.8333,91.5 17.1667,93.5 18.5,95.5C 20.7559,96.4831 22.4225,98.1498 23.5,100.5C 24.6888,101.429 26.0222,101.762 27.5,101.5C 27.5,96.8333 27.5,92.1667 27.5,87.5C 28.7281,88.3065 29.7281,89.3065 30.5,90.5C 31.1128,96.2709 30.4461,101.604 28.5,106.5C 26.7541,104.748 24.7541,103.415 22.5,102.5C 17.4304,97.3433 13.0971,91.6766 9.5,85.5C 9.18325,81.2984 9.51658,77.2984 10.5,73.5 Z"/></g>
<g><path style="opacity:0.396" fill="#047857" d="M 22.5,102.5 C 24.7541,103.415 26.7541,104.748 28.5,106.5C 29.209,107.404 30.209,107.737 31.5,107.5C 31.5,106.167 31.5,104.833 31.5,103.5C 32.7947,107.267 33.4613,111.267 33.5,115.5C 32.71,114.391 32.21,113.058 32,111.5C 28.3329,108.999 25.1662,105.999 22.5,102.5 Z"/></g>
<g><path style="opacity:1" fill="#047857" d="M 153.5,101.5 C 150.833,104.5 148.167,107.5 145.5,110.5C 145.5,111.167 145.167,111.5 144.5,111.5C 144.167,111.5 143.833,111.5 143.5,111.5C 143.614,109.282 144.28,107.282 145.5,105.5C 147.822,103.588 150.488,102.255 153.5,101.5 Z"/></g>
<g><path style="opacity:0.984" fill="#047857" d="M 30.5,90.5 C 31.4511,91.9187 31.7845,93.5853 31.5,95.5C 31.5,98.1667 31.5,100.833 31.5,103.5C 31.5,104.833 31.5,106.167 31.5,107.5C 30.209,107.737 29.209,107.404 28.5,106.5C 30.4461,101.604 31.1128,96.2709 30.5,90.5 Z"/></g>
<g><path style="opacity:1" fill="#047857" d="M 31.5,95.5 C 31.8333,95.5 32.1667,95.5 32.5,95.5C 32.8333,95.5 33.1667,95.5 33.5,95.5C 33.5,96.1667 33.5,96.8333 33.5,97.5C 34.3359,106.187 35.3359,114.854 36.5,123.5C 35.5,120.833 34.5,118.167 33.5,115.5C 33.4613,111.267 32.7947,107.267 31.5,103.5C 31.5,100.833 31.5,98.1667 31.5,95.5 Z"/></g>
<g><path style="opacity:1" fill="#047857" d="M 138.5,101.5 C 139.428,105.445 141.761,106.779 145.5,105.5C 144.28,107.282 143.614,109.282 143.5,111.5C 143.167,111.5 142.833,111.5 142.5,111.5C 138.501,111.909 134.834,111.075 131.5,109C 130.316,107.855 130.316,106.688 131.5,105.5C 133.929,104.449 136.262,103.116 138.5,101.5 Z"/></g>
<g><path style="opacity:0.173" fill="#047857" d="M 49.5,107.5 C 59.0456,113.105 68.7122,118.438 78.5,123.5C 70.17,121.168 62.5033,117.501 55.5,112.5C 53.0905,111.299 51.0905,109.633 49.5,107.5 Z"/></g>
<g><path style="opacity:1" fill="#047857" d="M 130.5,105.5 C 130.833,105.5 131.167,105.5 131.5,105.5C 130.316,106.688 130.316,107.855 131.5,109C 134.834,111.075 138.501,111.909 142.5,111.5C 142.167,112.167 141.833,112.833 141.5,113.5C 138.465,113.347 136.465,114.68 135.5,117.5C 134.833,117.5 134.167,117.5 133.5,117.5C 134.854,114.967 134.02,113.3 131,112.5C 130.517,111.552 130.351,110.552 130.5,109.5C 128.097,109.448 125.764,109.781 123.5,110.5C 125.531,108.478 127.865,106.811 130.5,105.5 Z"/></g>
<g><path style="opacity:1" fill="#047857" d="M 33.5,97.5 C 34.404,98.209 34.7373,99.209 34.5,100.5C 34.7512,102.17 35.4178,103.67 36.5,105C 35.7147,107.443 35.8814,109.943 37,112.5C 37.6667,110.5 38.3333,108.5 39,106.5C 39.21,108.058 39.71,109.391 40.5,110.5C 41.3238,114.312 41.8238,118.312 42,122.5C 42.3826,123.056 42.8826,123.389 43.5,123.5C 42.1667,126.167 42.1667,128.833 43.5,131.5C 42.5,131.5 41.5,131.5 40.5,131.5C 40.762,130.022 40.4287,128.689 39.5,127.5C 38.265,126.66 37.265,125.66 36.5,124.5C 36.5,124.167 36.5,123.833 36.5,123.5C 35.3359,114.854 34.3359,106.187 33.5,97.5 Z"/></g>
<g><path style="opacity:1" fill="#047857" d="M 141.5,113.5 C 141.5,113.833 141.5,114.167 141.5,114.5C 139.255,115.096 137.255,116.096 135.5,117.5C 136.465,114.68 138.465,113.347 141.5,113.5 Z"/></g>
<g><path style="opacity:1" fill="#047857" d="M 44.5,98.5 C 45.4076,102.851 46.4076,107.184 47.5,111.5C 47.5,112.833 47.5,114.167 47.5,115.5C 47.5,117.833 47.5,120.167 47.5,122.5C 46.2921,121.766 44.9587,121.433 43.5,121.5C 43.7787,116.405 43.4454,111.405 42.5,106.5C 44.1765,105.817 44.8432,104.483 44.5,102.5C 44.5,101.167 44.5,99.8333 44.5,98.5 Z"/></g>
<g><path style="opacity:1" fill="#047857" d="M 133.5,117.5 C 132.421,119.543 130.754,120.876 128.5,121.5C 126.254,122.455 123.921,123.122 121.5,123.5C 123.327,121.439 125.66,120.106 128.5,119.5C 126.54,117.844 124.54,116.177 122.5,114.5C 120.491,115.065 118.824,116.065 117.5,117.5C 117.167,117.5 116.833,117.5 116.5,117.5C 117.92,115.291 119.587,113.291 121.5,111.5C 121.842,110.662 122.508,110.328 123.5,110.5C 125.764,109.781 128.097,109.448 130.5,109.5C 130.351,110.552 130.517,111.552 131,112.5C 134.02,113.3 134.854,114.967 133.5,117.5 Z"/></g>
<g><path style="opacity:0.055" fill="#047857" d="M 33.5,115.5 C 34.5,118.167 35.5,120.833 36.5,123.5C 36.5,123.833 36.5,124.167 36.5,124.5C 37.8655,131.271 40.1988,137.604 43.5,143.5C 44.1667,144.5 44.8333,145.5 45.5,146.5C 42.5479,145.641 40.7146,143.641 40,140.5C 36.7335,132.433 34.5668,124.1 33.5,115.5 Z"/></g>
<g><path style="opacity:1" fill="#047857" d="M 47.5,115.5 C 48.6118,117.599 49.2785,119.933 49.5,122.5C 49.5,123.167 49.5,123.833 49.5,124.5C 49.1667,124.5 48.8333,124.5 48.5,124.5C 48.6716,123.508 48.3382,122.842 47.5,122.5C 47.5,120.167 47.5,117.833 47.5,115.5 Z"/></g>
<g><path style="opacity:1" fill="#047857" d="M 47.5,111.5 C 49.4743,115.06 51.141,118.727 52.5,122.5C 53.1098,123.391 53.4431,124.391 53.5,125.5C 51.9699,124.789 50.6366,123.789 49.5,122.5C 49.2785,119.933 48.6118,117.599 47.5,115.5C 47.5,114.167 47.5,112.833 47.5,111.5 Z"/></g>
<g><path style="opacity:1" fill="#047857" d="M 121.5,123.5 C 117.616,123.047 116.283,121.047 117.5,117.5C 118.824,116.065 120.491,115.065 122.5,114.5C 124.54,116.177 126.54,117.844 128.5,119.5C 125.66,120.106 123.327,121.439 121.5,123.5 Z"/></g>
<g><path style="opacity:1" fill="#047857" d="M 133.5,117.5 C 134.167,117.5 134.833,117.5 135.5,117.5C 133.557,120.471 130.891,122.471 127.5,123.5C 127.833,122.833 128.167,122.167 128.5,121.5C 130.754,120.876 132.421,119.543 133.5,117.5 Z"/></g>
<g><path style="opacity:1" fill="#047857" d="M 41.5,105.5 C 42.1667,105.5 42.5,105.833 42.5,106.5C 43.4454,111.405 43.7787,116.405 43.5,121.5C 44.9587,121.433 46.2921,121.766 47.5,122.5C 48.3382,122.842 48.6716,123.508 48.5,124.5C 48.5,125.167 48.5,125.833 48.5,126.5C 47.3303,124.721 45.6636,123.721 43.5,123.5C 42.8826,123.389 42.3826,123.056 42,122.5C 41.8238,118.312 41.3238,114.312 40.5,110.5C 41.2328,108.75 41.5662,107.083 41.5,105.5 Z"/></g>
<g><path style="opacity:1" fill="#047857" d="M 49.5,107.5 C 51.0905,109.633 53.0905,111.299 55.5,112.5C 55.5,113.833 55.5,115.167 55.5,116.5C 57.4672,116.261 59.3005,116.594 61,117.5C 61.4983,120.817 61.665,124.15 61.5,127.5C 60.448,127.649 59.448,127.483 58.5,127C 57.9582,124.745 56.7915,122.912 55,121.5C 54.3292,122.252 53.4959,122.586 52.5,122.5C 51.141,118.727 49.4743,115.06 47.5,111.5C 47.1568,109.517 47.8235,108.183 49.5,107.5 Z"/></g>
<g><path style="opacity:1" fill="#047857" d="M 55.5,112.5 C 62.5033,117.501 70.17,121.168 78.5,123.5C 78.8333,124.167 79.1667,124.833 79.5,125.5C 76.2365,124.518 72.9032,123.851 69.5,123.5C 67.6208,122.659 65.6208,122.325 63.5,122.5C 63.8541,124.541 63.8541,126.374 63.5,128C 64.6651,129.084 65.9984,129.917 67.5,130.5C 68.3857,131.325 68.719,132.325 68.5,133.5C 65.5939,132.213 62.5939,131.213 59.5,130.5C 58.3406,128.75 56.674,127.75 54.5,127.5C 54.1667,126.833 53.8333,126.167 53.5,125.5C 53.4431,124.391 53.1098,123.391 52.5,122.5C 53.4959,122.586 54.3292,122.252 55,121.5C 56.7915,122.912 57.9582,124.745 58.5,127C 59.448,127.483 60.448,127.649 61.5,127.5C 61.665,124.15 61.4983,120.817 61,117.5C 59.3005,116.594 57.4672,116.261 55.5,116.5C 55.5,115.167 55.5,113.833 55.5,112.5 Z"/></g>
<g><path style="opacity:0.11" fill="#047857" d="M 111.5,116.5 C 111.167,117.167 110.833,117.833 110.5,118.5C 108.181,118.992 106.181,119.992 104.5,121.5C 99.978,123.264 95.6446,125.264 91.5,127.5C 91.1667,127.5 90.8333,127.5 90.5,127.5C 89.8501,127.804 89.1835,128.137 88.5,128.5C 85.4273,127.65 82.4273,126.65 79.5,125.5C 79.1667,124.833 78.8333,124.167 78.5,123.5C 82.2831,125.486 86.2831,126.319 90.5,126C 97.5216,122.821 104.522,119.655 111.5,116.5 Z"/></g>
<g><path style="opacity:1" fill="#047857" d="M 116.5,117.5 C 116.833,117.5 117.167,117.5 117.5,117.5C 116.283,121.047 117.616,123.047 121.5,123.5C 121.5,124.5 121.5,125.5 121.5,126.5C 118.167,127.5 114.833,128.5 111.5,129.5C 111.441,126.951 112.441,124.951 114.5,123.5C 113.05,122.15 112.383,120.484 112.5,118.5C 113.959,118.567 115.292,118.234 116.5,117.5 Z"/></g>
<g><path style="opacity:1" fill="#047857" d="M 121.5,111.5 C 119.587,113.291 117.92,115.291 116.5,117.5C 115.292,118.234 113.959,118.567 112.5,118.5C 112.383,120.484 113.05,122.15 114.5,123.5C 112.441,124.951 111.441,126.951 111.5,129.5C 110.34,128.389 109.007,127.389 107.5,126.5C 108.471,125.038 108.138,123.705 106.5,122.5C 108.375,121.591 109.708,120.257 110.5,118.5C 110.833,117.833 111.167,117.167 111.5,116.5C 114.833,114.833 118.167,113.167 121.5,111.5 Z"/></g>
<g><path style="opacity:0.973" fill="#047857" d="M 128.5,121.5 C 128.167,122.167 127.833,122.833 127.5,123.5C 126.29,123.932 125.29,124.599 124.5,125.5C 123.391,125.557 122.391,125.89 121.5,126.5C 121.5,125.5 121.5,124.5 121.5,123.5C 123.921,123.122 126.254,122.455 128.5,121.5 Z"/></g>
<g><path style="opacity:1" fill="#047857" d="M 141.5,116.5 C 139.914,122.763 138.581,129.096 137.5,135.5C 136.143,136.59 135.143,137.924 134.5,139.5C 135.353,135.627 136.353,131.794 137.5,128C 135.1,127.814 132.766,127.314 130.5,126.5C 132.445,124.295 134.778,122.628 137.5,121.5C 138.132,119.257 139.466,117.591 141.5,116.5 Z"/></g>
<g><path style="opacity:0.102" fill="#047857" d="M 49.5,122.5 C 50.6366,123.789 51.9699,124.789 53.5,125.5C 53.8333,126.167 54.1667,126.833 54.5,127.5C 53.448,127.351 52.448,127.517 51.5,128C 52.6687,130.007 53.3354,132.173 53.5,134.5C 51.6001,131.482 50.2667,128.149 49.5,124.5C 49.5,123.833 49.5,123.167 49.5,122.5 Z"/></g>
<g><path style="opacity:1" fill="#047857" d="M 104.5,121.5 C 102.854,123.812 100.854,125.812 98.5,127.5C 98.8627,128.183 99.1961,128.85 99.5,129.5C 96.5794,129.717 93.9128,129.051 91.5,127.5C 95.6446,125.264 99.978,123.264 104.5,121.5 Z"/></g>
<g><path style="opacity:1" fill="#047857" d="M 110.5,118.5 C 109.708,120.257 108.375,121.591 106.5,122.5C 108.138,123.705 108.471,125.038 107.5,126.5C 109.007,127.389 110.34,128.389 111.5,129.5C 114.833,128.5 118.167,127.5 121.5,126.5C 118.001,128.75 114.335,130.75 110.5,132.5C 106.752,131.793 103.086,130.793 99.5,129.5C 99.1961,128.85 98.8627,128.183 98.5,127.5C 100.854,125.812 102.854,123.812 104.5,121.5C 106.181,119.992 108.181,118.992 110.5,118.5 Z"/></g>
<g><path style="opacity:0.098" fill="#047857" d="M 142.5,111.5 C 142.833,111.5 143.167,111.5 143.5,111.5C 143.833,111.5 144.167,111.5 144.5,111.5C 142.409,119.655 140.076,127.655 137.5,135.5C 138.581,129.096 139.914,122.763 141.5,116.5C 141.5,115.833 141.5,115.167 141.5,114.5C 141.5,114.167 141.5,113.833 141.5,113.5C 141.833,112.833 142.167,112.167 142.5,111.5 Z"/></g>
<g><path style="opacity:1" fill="#047857" d="M 69.5,123.5 C 72.9032,123.851 76.2365,124.518 79.5,125.5C 81.0514,128.402 83.3847,130.069 86.5,130.5C 85.7611,130.369 85.0944,130.536 84.5,131C 85.8333,131.667 85.8333,132.333 84.5,133C 83.552,133.483 82.552,133.649 81.5,133.5C 80.2652,133.279 79.2652,132.612 78.5,131.5C 77.3777,132.63 76.0443,133.297 74.5,133.5C 75.5624,132.425 75.5624,131.425 74.5,130.5C 67.3044,129.597 66.9711,128.097 73.5,126C 71.9336,125.392 70.6002,124.558 69.5,123.5 Z"/></g>
<g><path style="opacity:0.078" fill="#047857" d="M 124.5,125.5 C 125.097,125.735 125.43,126.235 125.5,127C 124.313,129.724 123.647,132.557 123.5,135.5C 122.596,136.209 122.263,137.209 122.5,138.5C 120.5,138.5 118.5,138.5 116.5,138.5C 113.256,137.483 110.256,136.15 107.5,134.5C 108.71,134.068 109.71,133.401 110.5,132.5C 114.335,130.75 118.001,128.75 121.5,126.5C 122.391,125.89 123.391,125.557 124.5,125.5 Z M 122.5,127.5 C 123.22,130.067 122.886,132.734 121.5,135.5C 117.845,137.002 114.511,136.502 111.5,134C 115.23,131.807 118.897,129.64 122.5,127.5 Z"/></g>
<g><path style="opacity:1" fill="#047857" d="M 141.5,114.5 C 141.5,115.167 141.5,115.833 141.5,116.5C 139.466,117.591 138.132,119.257 137.5,121.5C 137.631,120.624 137.298,119.957 136.5,119.5C 134.343,121.412 132.009,123.079 129.5,124.5C 128.623,127.565 127.623,130.565 126.5,133.5C 125.222,133.782 124.222,134.449 123.5,135.5C 123.647,132.557 124.313,129.724 125.5,127C 125.43,126.235 125.097,125.735 124.5,125.5C 125.29,124.599 126.29,123.932 127.5,123.5C 130.891,122.471 133.557,120.471 135.5,117.5C 137.255,116.096 139.255,115.096 141.5,114.5 Z"/></g>
<g><path style="opacity:0.11" fill="#047857" d="M 54.5,127.5 C 56.674,127.75 58.3406,128.75 59.5,130.5C 57.326,130.25 55.6594,129.25 54.5,127.5 Z"/></g>
<g><path style="opacity:1" fill="#047857" d="M 137.5,121.5 C 134.778,122.628 132.445,124.295 130.5,126.5C 132.766,127.314 135.1,127.814 137.5,128C 136.353,131.794 135.353,135.627 134.5,139.5C 131.482,139.665 128.482,139.498 125.5,139C 124.668,137.091 125.001,135.258 126.5,133.5C 127.623,130.565 128.623,127.565 129.5,124.5C 132.009,123.079 134.343,121.412 136.5,119.5C 137.298,119.957 137.631,120.624 137.5,121.5 Z"/></g>
<g><path style="opacity:1" fill="#047857" d="M 69.5,123.5 C 70.6002,124.558 71.9336,125.392 73.5,126C 66.9711,128.097 67.3044,129.597 74.5,130.5C 75.5624,131.425 75.5624,132.425 74.5,133.5C 72.5,133.5 70.5,133.5 68.5,133.5C 68.719,132.325 68.3857,131.325 67.5,130.5C 65.9984,129.917 64.6651,129.084 63.5,128C 63.8541,126.374 63.8541,124.541 63.5,122.5C 65.6208,122.325 67.6208,122.659 69.5,123.5 Z"/></g>
<g><path style="opacity:1" fill="#047857" d="M 48.5,124.5 C 48.8333,124.5 49.1667,124.5 49.5,124.5C 50.2667,128.149 51.6001,131.482 53.5,134.5C 53.6573,138.273 55.324,139.273 58.5,137.5C 60.1667,137.5 61.8333,137.5 63.5,137.5C 66.1873,137.336 68.854,137.503 71.5,138C 72.8398,140.149 72.1731,141.316 69.5,141.5C 69.4142,140.504 69.7476,139.671 70.5,139C 64.8605,139.384 59.1938,139.384 53.5,139C 52.4293,138.148 51.4293,137.315 50.5,136.5C 49.4999,133.159 48.1666,130.492 46.5,128.5C 47.2427,127.818 47.9094,127.151 48.5,126.5C 48.5,125.833 48.5,125.167 48.5,124.5 Z"/></g>
<g><path style="opacity:1" fill="#047857" d="M 90.5,127.5 C 90.8333,127.5 91.1667,127.5 91.5,127.5C 93.9128,129.051 96.5794,129.717 99.5,129.5C 103.086,130.793 106.752,131.793 110.5,132.5C 109.71,133.401 108.71,134.068 107.5,134.5C 100.947,133.883 95.2805,131.55 90.5,127.5 Z"/></g>
<g><path style="opacity:1" fill="#047857" d="M 43.5,123.5 C 45.6636,123.721 47.3303,124.721 48.5,126.5C 47.9094,127.151 47.2427,127.818 46.5,128.5C 48.1666,130.492 49.4999,133.159 50.5,136.5C 48.7215,137.67 47.7215,139.336 47.5,141.5C 46.8166,143.176 45.4832,143.843 43.5,143.5C 42.5,139.5 41.5,135.5 40.5,131.5C 41.5,131.5 42.5,131.5 43.5,131.5C 42.1667,128.833 42.1667,126.167 43.5,123.5 Z"/></g>
<g><path style="opacity:0.161" fill="#047857" d="M 59.5,130.5 C 62.5939,131.213 65.5939,132.213 68.5,133.5C 68.5,133.833 68.5,134.167 68.5,134.5C 68.5,134.833 68.5,135.167 68.5,135.5C 66.597,135.796 64.9303,136.463 63.5,137.5C 61.8333,137.5 60.1667,137.5 58.5,137.5C 60.7917,136.66 63.125,135.66 65.5,134.5C 63.4346,133.143 61.4346,131.81 59.5,130.5 Z"/></g>
<g><path style="opacity:1" fill="#047857" d="M 81.5,133.5 C 80.2613,134.212 79.7613,135.212 80,136.5C 82.7064,138.056 85.5398,139.389 88.5,140.5C 89.6715,141.345 91.0048,142.011 92.5,142.5C 92.5,142.833 92.5,143.167 92.5,143.5C 90.8333,143.5 89.1667,143.5 87.5,143.5C 85.1515,141.659 82.4848,140.326 79.5,139.5C 76.7823,136.133 73.1156,134.466 68.5,134.5C 68.5,134.167 68.5,133.833 68.5,133.5C 70.5,133.5 72.5,133.5 74.5,133.5C 76.0443,133.297 77.3777,132.63 78.5,131.5C 79.2652,132.612 80.2652,133.279 81.5,133.5 Z"/></g>
<g><path style="opacity:1" fill="#047857" d="M 86.5,130.5 C 89.6397,131.744 89.973,133.411 87.5,135.5C 89.9307,136.36 91.264,138.027 91.5,140.5C 90.5,140.5 89.5,140.5 88.5,140.5C 85.5398,139.389 82.7064,138.056 80,136.5C 79.7613,135.212 80.2613,134.212 81.5,133.5C 82.552,133.649 83.552,133.483 84.5,133C 85.8333,132.333 85.8333,131.667 84.5,131C 85.0944,130.536 85.7611,130.369 86.5,130.5 Z"/></g>
<g><path style="opacity:1" fill="#047857" d="M 68.5,135.5 C 68.5,135.167 68.5,134.833 68.5,134.5C 73.1156,134.466 76.7823,136.133 79.5,139.5C 77.7162,139.107 76.0495,138.441 74.5,137.5C 72.7028,136.27 70.7028,135.604 68.5,135.5 Z"/></g>
<g><path style="opacity:1" fill="#047857" d="M 79.5,125.5 C 82.4273,126.65 85.4273,127.65 88.5,128.5C 89.1835,128.137 89.8501,127.804 90.5,127.5C 95.2805,131.55 100.947,133.883 107.5,134.5C 110.256,136.15 113.256,137.483 116.5,138.5C 114.833,138.5 113.167,138.5 111.5,138.5C 107.73,138.002 104.063,137.002 100.5,135.5C 98.8828,134.962 97.2161,134.629 95.5,134.5C 95.5,135.5 95.5,136.5 95.5,137.5C 90.6428,137.651 89.6428,135.984 92.5,132.5C 90.6957,131.232 88.6957,130.565 86.5,130.5C 83.3847,130.069 81.0514,128.402 79.5,125.5 Z"/></g>
<g><path style="opacity:0.212" fill="#047857" d="M 53.5,134.5 C 54.3745,136.69 56.0411,137.69 58.5,137.5C 55.324,139.273 53.6573,138.273 53.5,134.5 Z"/></g>
<g><path style="opacity:0.357" fill="#047857" d="M 137.5,135.5 C 137.267,138.542 136.267,141.208 134.5,143.5C 134.5,142.167 134.5,140.833 134.5,139.5C 135.143,137.924 136.143,136.59 137.5,135.5 Z"/></g>
<g><path style="opacity:1" fill="#047857" d="M 74.5,137.5 C 76.0495,138.441 77.7162,139.107 79.5,139.5C 82.4848,140.326 85.1515,141.659 87.5,143.5C 86.0413,143.433 84.7079,143.766 83.5,144.5C 83.3059,142.088 81.9726,141.088 79.5,141.5C 77.2574,140.868 75.5907,139.534 74.5,137.5 Z"/></g>
<g><path style="opacity:1" fill="#047857" d="M 86.5,130.5 C 88.6957,130.565 90.6957,131.232 92.5,132.5C 89.6428,135.984 90.6428,137.651 95.5,137.5C 95.5,136.5 95.5,135.5 95.5,134.5C 97.2161,134.629 98.8828,134.962 100.5,135.5C 100.539,136.583 100.873,137.583 101.5,138.5C 98.0265,139.099 95.0265,140.432 92.5,142.5C 91.0048,142.011 89.6715,141.345 88.5,140.5C 89.5,140.5 90.5,140.5 91.5,140.5C 91.264,138.027 89.9307,136.36 87.5,135.5C 89.973,133.411 89.6397,131.744 86.5,130.5 Z"/></g>
<g><path style="opacity:1" fill="#047857" d="M 100.5,135.5 C 104.063,137.002 107.73,138.002 111.5,138.5C 111.5,138.833 111.5,139.167 111.5,139.5C 108.245,139.014 105.578,140.014 103.5,142.5C 104.172,144.16 105.172,145.493 106.5,146.5C 105.167,146.5 103.833,146.5 102.5,146.5C 99.8728,145.908 97.2062,145.575 94.5,145.5C 93.8333,144.833 93.1667,144.167 92.5,143.5C 92.5,143.167 92.5,142.833 92.5,142.5C 95.0265,140.432 98.0265,139.099 101.5,138.5C 100.873,137.583 100.539,136.583 100.5,135.5 Z"/></g>
<g><path style="opacity:0.976" fill="#047857" d="M 36.5,124.5 C 37.265,125.66 38.265,126.66 39.5,127.5C 40.4287,128.689 40.762,130.022 40.5,131.5C 41.5,135.5 42.5,139.5 43.5,143.5C 40.1988,137.604 37.8655,131.271 36.5,124.5 Z"/></g>
<g><path style="opacity:1" fill="#047857" d="M 50.5,136.5 C 51.4293,137.315 52.4293,138.148 53.5,139C 59.1938,139.384 64.8605,139.384 70.5,139C 69.7476,139.671 69.4142,140.504 69.5,141.5C 69.8212,143.048 70.8212,143.715 72.5,143.5C 73.3382,143.842 73.6716,144.508 73.5,145.5C 71.7105,146.877 69.7105,147.877 67.5,148.5C 66.0131,147.196 64.3464,146.03 62.5,145C 63.7908,142.91 63.1242,141.576 60.5,141C 57.805,140.746 55.305,140.579 53,140.5C 51.9054,141.693 51.072,143.027 50.5,144.5C 49.7281,143.306 48.7281,142.306 47.5,141.5C 47.7215,139.336 48.7215,137.67 50.5,136.5 Z"/></g>
<g><path style="opacity:1" fill="#047857" d="M 126.5,133.5 C 125.001,135.258 124.668,137.091 125.5,139C 128.482,139.498 131.482,139.665 134.5,139.5C 134.5,140.833 134.5,142.167 134.5,143.5C 134.5,144.167 134.167,144.5 133.5,144.5C 131.326,144.75 129.659,145.75 128.5,147.5C 126.5,148.167 124.5,148.833 122.5,149.5C 118.958,149.813 115.625,149.479 112.5,148.5C 113.167,148.5 113.833,148.5 114.5,148.5C 116.833,148.5 119.167,148.5 121.5,148.5C 121.833,145.833 122.167,143.167 122.5,140.5C 119.833,140.5 117.167,140.5 114.5,140.5C 113.209,140.737 112.209,140.404 111.5,139.5C 111.5,139.167 111.5,138.833 111.5,138.5C 113.167,138.5 114.833,138.5 116.5,138.5C 118.5,138.5 120.5,138.5 122.5,138.5C 122.263,137.209 122.596,136.209 123.5,135.5C 124.222,134.449 125.222,133.782 126.5,133.5 Z"/></g>
<g><path style="opacity:1" fill="#047857" d="M 68.5,135.5 C 70.7028,135.604 72.7028,136.27 74.5,137.5C 75.5907,139.534 77.2574,140.868 79.5,141.5C 76.7718,141.171 74.4385,141.837 72.5,143.5C 70.8212,143.715 69.8212,143.048 69.5,141.5C 72.1731,141.316 72.8398,140.149 71.5,138C 68.854,137.503 66.1873,137.336 63.5,137.5C 64.9303,136.463 66.597,135.796 68.5,135.5 Z"/></g>
<g><path style="opacity:1" fill="#047857" d="M 79.5,141.5 C 79.9175,142.222 80.5842,142.722 81.5,143C 79.2307,145.023 76.5641,145.856 73.5,145.5C 73.6716,144.508 73.3382,143.842 72.5,143.5C 74.4385,141.837 76.7718,141.171 79.5,141.5 Z"/></g>
<g><path style="opacity:0.033" fill="#047857" d="M 87.5,143.5 C 89.1667,143.5 90.8333,143.5 92.5,143.5C 93.1667,144.167 93.8333,144.833 94.5,145.5C 89.4056,144.181 84.4056,144.514 79.5,146.5C 80.5137,145.326 81.847,144.66 83.5,144.5C 84.7079,143.766 86.0413,143.433 87.5,143.5 Z"/></g>
<g><path style="opacity:1" fill="#047857" d="M 111.5,139.5 C 112.209,140.404 113.209,140.737 114.5,140.5C 113.318,142.561 113.985,144.061 116.5,145C 115.027,145.71 114.36,146.876 114.5,148.5C 113.833,148.5 113.167,148.5 112.5,148.5C 110.703,147.27 108.703,146.604 106.5,146.5C 105.172,145.493 104.172,144.16 103.5,142.5C 105.578,140.014 108.245,139.014 111.5,139.5 Z"/></g>
<g><path style="opacity:1" fill="#047857" d="M 67.5,148.5 C 66.5084,148.328 65.8417,148.662 65.5,149.5C 59.4245,150.628 54.4245,148.961 50.5,144.5C 51.072,143.027 51.9054,141.693 53,140.5C 55.305,140.579 57.805,140.746 60.5,141C 63.1242,141.576 63.7908,142.91 62.5,145C 64.3464,146.03 66.0131,147.196 67.5,148.5 Z"/></g>
<g><path style="opacity:0.643" fill="#047857" d="M 94.5,145.5 C 97.2062,145.575 99.8728,145.908 102.5,146.5C 104.42,147.065 106.087,148.065 107.5,149.5C 102.835,148.943 98.5021,147.61 94.5,145.5 Z"/></g>
<g><path style="opacity:1" fill="#047857" d="M 114.5,140.5 C 117.167,140.5 119.833,140.5 122.5,140.5C 122.167,143.167 121.833,145.833 121.5,148.5C 119.167,148.5 116.833,148.5 114.5,148.5C 114.36,146.876 115.027,145.71 116.5,145C 113.985,144.061 113.318,142.561 114.5,140.5 Z"/></g>
<g><path style="opacity:0.145" fill="#047857" d="M 133.5,144.5 C 132.341,146.25 130.674,147.25 128.5,147.5C 129.659,145.75 131.326,144.75 133.5,144.5 Z"/></g>
<g><path style="opacity:0.882" fill="#047857" d="M 79.5,141.5 C 81.9726,141.088 83.3059,142.088 83.5,144.5C 81.847,144.66 80.5137,145.326 79.5,146.5C 74.8333,147.5 70.1667,148.5 65.5,149.5C 65.8417,148.662 66.5084,148.328 67.5,148.5C 69.7105,147.877 71.7105,146.877 73.5,145.5C 76.5641,145.856 79.2307,145.023 81.5,143C 80.5842,142.722 79.9175,142.222 79.5,141.5 Z"/></g>
<g><path style="opacity:0.075" fill="#047857" d="M 45.5,146.5 C 48.9922,147.41 51.9922,149.076 54.5,151.5C 51.0078,150.59 48.0078,148.924 45.5,146.5 Z"/></g>
<g><path style="opacity:1" fill="#047857" d="M 47.5,141.5 C 48.7281,142.306 49.7281,143.306 50.5,144.5C 54.4245,148.961 59.4245,150.628 65.5,149.5C 62.1244,151.082 58.4578,151.749 54.5,151.5C 51.9922,149.076 48.9922,147.41 45.5,146.5C 44.8333,145.5 44.1667,144.5 43.5,143.5C 45.4832,143.843 46.8166,143.176 47.5,141.5 Z"/></g>
<g><path style="opacity:0.153" fill="#047857" d="M 128.5,147.5 C 126.664,149.588 124.331,150.921 121.5,151.5C 121.833,150.833 122.167,150.167 122.5,149.5C 124.5,148.833 126.5,148.167 128.5,147.5 Z"/></g>
<g><path style="opacity:0.969" fill="#047857" d="M 102.5,146.5 C 103.833,146.5 105.167,146.5 106.5,146.5C 108.703,146.604 110.703,147.27 112.5,148.5C 115.625,149.479 118.958,149.813 122.5,149.5C 122.167,150.167 121.833,150.833 121.5,151.5C 116.784,151.154 112.117,150.487 107.5,149.5C 106.087,148.065 104.42,147.065 102.5,146.5 Z"/></g>
<g><path style="opacity:0.071" fill="#047857" d="M 79.5,146.5 C 71.5204,150.584 63.187,152.251 54.5,151.5C 58.4578,151.749 62.1244,151.082 65.5,149.5C 70.1667,148.5 74.8333,147.5 79.5,146.5 Z"/></g>
<g><path style="opacity:0.078" fill="#047857" d="M 107.5,149.5 C 112.117,150.487 116.784,151.154 121.5,151.5C 116.628,152.789 111.961,152.123 107.5,149.5 Z"/></g>
</svg>
