<svg width="167" height="167" viewBox="0 0 167 167" fill="none" xmlns="http://www.w3.org/2000/svg">
<mask id="mask0_273_500" style="mask-type:luminance" maskUnits="userSpaceOnUse" x="63" y="0" width="95" height="91">
<path d="M63.8701 0H157.203V90.7604H63.8701V0Z" fill="white"/>
</mask>
<g mask="url(#mask0_273_500)">
<path d="M72.0889 88.0104C74.2973 90.224 78.0681 90.3542 80.4066 88.1406L94.7087 73.974L104.068 83.724C104.98 84.7604 106.667 84.7604 107.709 83.8542C108.75 82.8125 108.75 81.2552 107.839 80.2135L104.98 77.224L120.709 62.0104C119.537 60.7135 118.5 59.2813 117.719 57.724L101.599 73.3229L82.7504 53.5625L119.667 17.5521C120.969 16.3802 122.526 15.7344 124.219 15.7344C126.037 15.7344 127.73 16.5104 129.026 17.8125L138.516 27.8229C139.818 29.1198 140.339 30.8125 140.339 32.5C142.157 33.151 143.719 34.0625 145.276 35.2344C146.058 31.9844 145.407 28.474 143.459 25.6146L153.339 15.9948C156.719 12.7448 156.849 7.28125 153.599 3.77083L152.818 2.86458L152.688 2.73438C151.131 1.04167 148.917 0.130208 146.579 0C144.24 0 142.026 0.78125 140.469 2.47396L130.329 12.224C128.636 11.1823 126.427 10.5312 124.349 10.5312C121.36 10.5312 118.37 11.7031 116.157 13.9115L78.8493 50.0521L75.3389 46.4115C74.2973 45.375 72.74 45.375 71.6983 46.2812C70.6566 47.3229 70.6566 48.8802 71.5681 49.9219L81.1879 59.9323L66.8858 74.2344C64.5473 76.4427 64.417 80.2135 66.7556 82.4219C66.7556 82.5521 72.0889 88.0104 72.0889 88.0104ZM144.24 6.24479C144.891 5.59375 145.797 5.20312 146.709 5.33333C147.62 5.33333 148.396 5.72396 149.047 6.36979L149.829 7.28125L149.959 7.41146C151.261 8.84375 151.261 11.0521 149.829 12.3542L140.079 21.8438L134.49 15.8646L144.24 6.24479ZM70.3962 78.0052L84.8285 63.7031L91.0681 70.2031L76.766 84.375C76.6358 84.6302 76.5056 84.6302 76.3806 84.6302C76.2504 84.6302 75.99 84.6302 75.8598 84.375L70.5264 78.9115C70.266 78.7812 70.266 78.651 70.266 78.5208C70.266 78.2604 70.3962 78.1302 70.3962 78.0052Z" fill="#0569A2"/>
</g>
<path d="M133.969 36.5312C126.818 36.5312 120.969 42.3802 120.969 49.5312C120.969 56.6823 126.818 62.5312 133.969 62.5312C141.12 62.5312 146.969 56.6823 146.969 49.5312C146.969 42.3802 141.12 36.5312 133.969 36.5312ZM133.969 57.3333C129.677 57.3333 126.167 53.8229 126.167 49.5312C126.167 45.2448 129.677 41.7344 133.969 41.7344C138.26 41.7344 141.766 45.2448 141.766 49.5312C141.766 53.8229 138.26 57.3333 133.969 57.3333Z" fill="#0569A2"/>
<mask id="mask1_273_500" style="mask-type:luminance" maskUnits="userSpaceOnUse" x="0" y="6" width="16" height="19">
<path d="M0 6.76038H15.8698V24.0937H0V6.76038Z" fill="white"/>
</mask>
<g mask="url(#mask1_273_500)">
<path d="M7.86475 23.5312C12.1564 23.5312 15.6668 20.0208 15.6668 15.7343C15.6668 11.4427 12.1564 7.93225 7.86475 7.93225C3.57829 7.93225 0.0678711 11.4427 0.0678711 15.7343C0.0678711 20.0208 3.57829 23.5312 7.86475 23.5312ZM7.86475 13.1302C9.29704 13.1302 10.4689 14.302 10.4689 15.7343C10.4689 17.1614 9.29704 18.3333 7.86475 18.3333C6.43766 18.3333 5.26579 17.1614 5.26579 15.7343C5.26579 14.302 6.43766 13.1302 7.86475 13.1302Z" fill="#0569A2"/>
</g>
<path d="M28.667 15.7344C32.9587 15.7344 36.4691 12.224 36.4691 7.93233C36.4691 3.64067 32.9587 0.130249 28.667 0.130249C24.3753 0.130249 20.8701 3.64067 20.8701 7.93233C20.8701 12.224 24.3753 15.7344 28.667 15.7344ZM28.667 5.33337C30.0993 5.33337 31.266 6.50004 31.266 7.93233C31.266 9.36462 30.0993 10.5313 28.667 10.5313C27.2399 10.5313 26.068 9.36462 26.068 7.93233C26.068 6.50004 27.2399 5.33337 28.667 5.33337Z" fill="#0569A2"/>
<mask id="mask2_273_500" style="mask-type:luminance" maskUnits="userSpaceOnUse" x="0" y="44" width="51" height="123">
<path d="M0 44.0938H50.5365V166.76H0V44.0938Z" fill="white"/>
</mask>
<g mask="url(#mask2_273_500)">
<path d="M49.4689 46.9323C49.4689 45.5 48.297 44.3334 46.87 44.3334H2.66683C1.23975 44.3334 0.0678711 45.5 0.0678711 46.9323C0.0678711 48.3646 1.23975 49.5313 2.66683 49.5313H3.96891V153.661C3.96891 160.813 9.81787 166.531 17.0991 166.531H32.5679C39.7189 166.531 45.6981 160.682 45.6981 153.661V49.5313H46.995C48.297 49.5313 49.4689 48.3646 49.4689 46.9323ZM40.37 54.7344H39.0679C37.6356 54.7344 36.4689 55.9011 36.4689 57.3334C36.4689 58.7605 37.6356 59.9323 39.0679 59.9323H40.37V62.5313H39.0679C37.6356 62.5313 36.4689 63.7032 36.4689 65.1302C36.4689 66.5625 37.6356 67.7344 39.0679 67.7344H40.37V70.3334H39.0679C37.6356 70.3334 36.4689 71.5053 36.4689 72.9323C36.4689 74.3646 37.6356 75.5313 39.0679 75.5313H40.37V78.1302H39.0679C37.6356 78.1302 36.4689 79.3021 36.4689 80.7344C36.4689 82.1615 37.6356 83.3334 39.0679 83.3334H40.37V85.9323H39.0679C37.6356 85.9323 36.4689 87.1042 36.4689 88.5313C36.4689 89.9636 37.6356 91.1355 39.0679 91.1355H40.37V93.7344H39.0679C37.6356 93.7344 36.4689 94.9011 36.4689 96.3334C36.4689 97.7605 37.6356 98.9323 39.0679 98.9323H40.37V101.531H39.0679C37.6356 101.531 36.4689 102.703 36.4689 104.135C36.4689 105.563 37.6356 106.734 39.0679 106.734H40.37V109.333H39.0679C37.6356 109.333 36.4689 110.505 36.4689 111.932C36.4689 113.365 37.6356 114.531 39.0679 114.531H40.37V117.135H39.0679C37.6356 117.135 36.4689 118.302 36.4689 119.734C36.4689 121.161 37.6356 122.333 39.0679 122.333H40.37V124.932H39.0679C37.6356 124.932 36.4689 126.104 36.4689 127.531C36.4689 128.964 37.6356 130.135 39.0679 130.135H40.37V132.734H39.0679C37.6356 132.734 36.4689 133.901 36.4689 135.333C36.4689 136.766 37.6356 137.932 39.0679 137.932H40.37V140.531H39.0679C37.6356 140.531 36.4689 141.703 36.4689 143.135C36.4689 144.563 37.6356 145.734 39.0679 145.734H40.37V148.333H39.0679C37.6356 148.333 36.4689 149.505 36.4689 150.932C36.4689 152.365 37.6356 153.531 39.0679 153.531H40.37V153.661C40.37 157.953 36.8595 161.333 32.4377 161.333H17.0991C12.8075 161.333 9.16683 157.823 9.16683 153.661V153.531H10.4689C11.896 153.531 13.0679 152.365 13.0679 150.932C13.0679 149.505 11.896 148.333 10.4689 148.333H9.16683V145.734H10.4689C11.896 145.734 13.0679 144.563 13.0679 143.135C13.0679 141.703 11.896 140.531 10.4689 140.531H9.16683V137.932H10.4689C11.896 137.932 13.0679 136.766 13.0679 135.333C13.0679 133.901 11.896 132.734 10.4689 132.734H9.16683V130.135H10.4689C11.896 130.135 13.0679 128.964 13.0679 127.531C13.0679 126.104 11.896 124.932 10.4689 124.932H9.16683V122.333H10.4689C11.896 122.333 13.0679 121.161 13.0679 119.734C13.0679 118.302 11.896 117.135 10.4689 117.135H9.16683V114.531H10.4689C11.896 114.531 13.0679 113.365 13.0679 111.932C13.0679 110.505 11.896 109.333 10.4689 109.333H9.16683V106.734H10.4689C11.896 106.734 13.0679 105.563 13.0679 104.135C13.0679 102.703 11.896 101.531 10.4689 101.531H9.16683V98.9323H10.4689C11.896 98.9323 13.0679 97.7605 13.0679 96.3334C13.0679 94.9011 11.896 93.7344 10.4689 93.7344H9.16683V91.1355H10.4689C11.896 91.1355 13.0679 89.9636 13.0679 88.5313C13.0679 87.1042 11.896 85.9323 10.4689 85.9323H9.16683V83.3334H10.4689C11.896 83.3334 13.0679 82.1615 13.0679 80.7344C13.0679 79.3021 11.896 78.1302 10.4689 78.1302H9.16683V75.5313H10.4689C11.896 75.5313 13.0679 74.3646 13.0679 72.9323C13.0679 71.5053 11.896 70.3334 10.4689 70.3334H9.16683V67.7344H10.4689C11.896 67.7344 13.0679 66.5625 13.0679 65.1302C13.0679 63.7032 11.896 62.5313 10.4689 62.5313H9.16683V59.9323H10.4689C11.896 59.9323 13.0679 58.7605 13.0679 57.3334C13.0679 55.9011 11.896 54.7344 10.4689 54.7344H9.16683V49.5313H40.37V54.7344Z" fill="#0569A2"/>
</g>
<path d="M107.969 127.531C100.818 127.531 94.9688 133.385 94.9688 140.531C94.9688 147.682 100.818 153.531 107.969 153.531C115.12 153.531 120.969 147.682 120.969 140.531C120.969 133.385 115.12 127.531 107.969 127.531ZM107.969 148.333C103.677 148.333 100.167 144.823 100.167 140.531C100.167 136.245 103.677 132.734 107.969 132.734C112.26 132.734 115.766 136.245 115.766 140.531C115.766 144.823 112.26 148.333 107.969 148.333Z" fill="#0569A2"/>
<path d="M29.9691 39.1302C35.0368 39.1302 39.068 35.1041 39.068 30.0312C39.068 24.9635 35.0368 20.9323 29.9691 20.9323C24.8962 20.9323 20.8701 24.9635 20.8701 30.0312C20.8701 35.1041 24.8962 39.1302 29.9691 39.1302ZM29.9691 26.1302C32.1774 26.1302 33.8701 27.8229 33.8701 30.0312C33.8701 32.2448 32.1774 33.9323 29.9691 33.9323C27.7555 33.9323 26.068 32.2448 26.068 30.0312C26.068 27.8229 27.7555 26.1302 29.9691 26.1302Z" fill="#0569A2"/>
<path d="M111.349 32.1146L98.3491 45.1146C97.3075 46.1511 97.3075 47.7136 98.3491 48.75C98.87 49.2709 99.5158 49.5313 100.167 49.5313C100.818 49.5313 101.469 49.2709 101.99 48.75L114.99 35.75C116.026 34.7136 116.026 33.1511 114.99 32.1146C113.948 31.073 112.386 31.073 111.349 32.1146Z" fill="#0569A2"/>
<path d="M122.526 129.745C123.568 131.172 124.349 132.734 125 134.292C140.99 127.531 152.167 111.672 152.167 93.3437C152.167 82.9427 148.526 73.3229 142.417 65.651C140.729 66.5625 139.037 67.0833 137.089 67.4739C143.198 74.4948 146.969 83.5937 146.969 93.4739C146.969 109.724 136.828 123.766 122.526 129.745Z" fill="#0569A2"/>
<path d="M143.068 148.333H125.385C149.177 140.922 166.469 118.823 166.469 92.5625C166.469 77.7448 161.01 63.9635 151.646 53.5625C151.26 55.5104 150.479 57.3333 149.438 59.0208C156.849 68.2552 161.271 79.9531 161.271 92.5625C161.271 115.573 146.578 135.333 126.036 142.615C125.776 144.693 125.26 146.646 124.349 148.464C123.438 150.411 122.135 152.104 120.708 153.531H143.068C144.5 153.531 145.667 154.703 145.667 156.135V158.734C145.667 160.161 144.5 161.333 143.068 161.333H67.6667C66.2396 161.333 65.0677 160.161 65.0677 158.734V156.135C65.0677 154.703 66.2396 153.531 67.6667 153.531H95.2292C93.6667 152.104 92.5 150.281 91.5885 148.464C90.6771 146.646 90.026 144.562 89.8958 142.484C77.6771 137.932 67.4063 128.964 61.1667 117.135H69.3594C74.5573 125.323 81.9688 131.302 90.6771 134.812C91.1979 133.125 91.9792 131.562 93.0156 130.135C86.2552 127.531 80.1458 123.115 75.7292 117.135H84.5677C86 117.135 87.1667 115.964 87.1667 114.531C87.1667 113.104 86 111.932 84.5677 111.932H50.7656V117.135H55.4479C62.4688 132.344 75.599 143.521 91.0677 148.333H67.6667C63.375 148.333 59.8698 151.844 59.8698 156.135V158.734C59.8698 163.021 63.375 166.531 67.6667 166.531H143.068C147.359 166.531 150.87 163.021 150.87 158.734V156.135C150.87 151.844 147.359 148.333 143.068 148.333Z" fill="#0569A2"/>
</svg>
