<?xml version="1.0" encoding="UTF-8"?>
<!DOCTYPE svg PUBLIC "-//W3C//DTD SVG 1.1//EN" "http://www.w3.org/Graphics/SVG/1.1/DTD/svg11.dtd">
<svg xmlns="http://www.w3.org/2000/svg" version="1.1" width="502px" height="460px" style="shape-rendering:geometricPrecision; text-rendering:geometricPrecision; image-rendering:optimizeQuality; fill-rule:evenodd; clip-rule:evenodd" xmlns:xlink="http://www.w3.org/1999/xlink">
<g><path style="opacity:0.027" fill="#047857" d="M 154.5,-0.5 C 154.833,-0.5 155.167,-0.5 155.5,-0.5C 155.5,22.1667 155.5,44.8333 155.5,67.5C 146.348,67.9026 137.348,69.2359 128.5,71.5C 136.342,68.0862 144.676,66.4196 153.5,66.5C 154.497,44.3396 154.831,22.0062 154.5,-0.5 Z"/></g>
<g><path style="opacity:1" fill="#047857" d="M 134.5,0.5 C 134.833,0.5 135.167,0.5 135.5,0.5C 141.5,0.5 147.5,0.5 153.5,0.5C 153.5,22.5 153.5,44.5 153.5,66.5C 144.676,66.4196 136.342,68.0862 128.5,71.5C 122.156,72.8399 116.489,75.5066 111.5,79.5C 109.973,79.427 108.973,80.0937 108.5,81.5C 106.973,81.427 105.973,82.0937 105.5,83.5C 99.887,86.1129 95.5537,90.1129 92.5,95.5C 89.5293,97.4426 87.5293,100.109 86.5,103.5C 73.4686,121.66 69.1352,141.66 73.5,163.5C 73.5,163.833 73.5,164.167 73.5,164.5C 73.2938,167.495 73.9605,170.162 75.5,172.5C 75.446,175.992 76.446,178.992 78.5,181.5C 79.4598,186.086 81.4598,190.086 84.5,193.5C 84.427,195.027 85.0937,196.027 86.5,196.5C 86.7376,198.404 87.7376,199.738 89.5,200.5C 89.7376,202.404 90.7376,203.738 92.5,204.5C 96.7303,211.117 102.397,216.117 109.5,219.5C 113.968,223.734 119.301,226.401 125.5,227.5C 127.102,229.074 129.102,229.741 131.5,229.5C 133.148,230.927 135.148,231.76 137.5,232C 146.793,233.442 156.126,233.776 165.5,233C 168.797,232.796 171.797,231.963 174.5,230.5C 179.412,230.75 183.745,229.416 187.5,226.5C 189.849,224.659 192.515,223.326 195.5,222.5C 197.674,222.25 199.341,221.25 200.5,219.5C 203.674,218.99 206.008,217.323 207.5,214.5C 211.737,211.772 215.571,208.439 219,204.5C 219.483,203.552 219.649,202.552 219.5,201.5C 220.167,200.167 221.167,199.167 222.5,198.5C 222.297,200.044 221.63,201.378 220.5,202.5C 236.939,217.214 253.939,231.214 271.5,244.5C 269.748,246.246 268.415,248.246 267.5,250.5C 265.833,251.5 264.5,252.833 263.5,254.5C 260.5,256.833 257.833,259.5 255.5,262.5C 255.5,263.167 255.167,263.5 254.5,263.5C 249.591,266.074 245.258,269.408 241.5,273.5C 239.147,274.34 237.147,275.674 235.5,277.5C 229.835,279.997 224.502,282.997 219.5,286.5C 217.447,286.402 215.78,287.069 214.5,288.5C 208.871,289.929 203.537,291.929 198.5,294.5C 196.095,295.768 193.428,296.435 190.5,296.5C 175.27,298.91 159.937,300.244 144.5,300.5C 143.833,300.5 143.167,300.5 142.5,300.5C 138.1,298.896 133.434,298.229 128.5,298.5C 128.167,298.5 127.833,298.5 127.5,298.5C 123.837,296.584 119.837,295.584 115.5,295.5C 109.198,292.398 102.531,290.064 95.5,288.5C 91.1511,285.659 86.4844,283.326 81.5,281.5C 80.5084,281.672 79.8417,281.338 79.5,280.5C 78.3406,278.75 76.674,277.75 74.5,277.5C 74.0269,276.094 73.0269,275.427 71.5,275.5C 71.0269,274.094 70.0269,273.427 68.5,273.5C 67.7377,271.738 66.4044,270.738 64.5,270.5C 63.7377,268.738 62.4044,267.738 60.5,267.5C 58.7607,264.757 56.4274,262.757 53.5,261.5C 52.1667,261.5 51.5,260.833 51.5,259.5C 49.1185,256.452 46.4518,253.785 43.5,251.5C 38.0189,243.892 32.5189,236.225 27,228.5C 23.4578,222.073 19.9578,215.739 16.5,209.5C 11.6683,195.502 8.16834,181.169 6,166.5C 4.40295,146.577 5.90295,126.91 10.5,107.5C 13.6663,102.339 15.6663,96.6728 16.5,90.5C 18.0075,88.8185 19.0075,86.8185 19.5,84.5C 19.3284,83.5084 19.6618,82.8417 20.5,82.5C 24.4538,75.9465 28.4538,69.2799 32.5,62.5C 34.2624,61.7377 35.2624,60.4044 35.5,58.5C 47.648,44.3453 61.3147,32.012 76.5,21.5C 80.3494,21.0819 83.3494,19.4152 85.5,16.5C 85.8417,15.6618 86.5084,15.3284 87.5,15.5C 93.3911,14.2161 98.7244,11.8828 103.5,8.5C 113.892,5.65289 124.225,2.98623 134.5,0.5 Z"/></g>
<g><path style="opacity:0.698" fill="#047857" d="M 135.5,0.5 C 135.5,0.166667 135.5,-0.166667 135.5,-0.5C 141.833,-0.5 148.167,-0.5 154.5,-0.5C 154.831,22.0062 154.497,44.3396 153.5,66.5C 153.5,44.5 153.5,22.5 153.5,0.5C 147.5,0.5 141.5,0.5 135.5,0.5 Z"/></g>
<g><path style="opacity:0.502" fill="#047857" d="M 134.5,0.5 C 124.225,2.98623 113.892,5.65289 103.5,8.5C 113.278,4.13802 123.611,1.47135 134.5,0.5 Z"/></g>
<g><path style="opacity:0.176" fill="#047857" d="M 103.5,8.5 C 98.7244,11.8828 93.3911,14.2161 87.5,15.5C 92.2762,12.1168 97.6096,9.78351 103.5,8.5 Z"/></g>
<g><path style="opacity:0.949" fill="#047857" d="M 85.5,16.5 C 83.3494,19.4152 80.3494,21.0819 76.5,21.5C 79.0078,19.0764 82.0078,17.4097 85.5,16.5 Z"/></g>
<g><path style="opacity:0.294" fill="#047857" d="M 76.5,21.5 C 61.3147,32.012 47.648,44.3453 35.5,58.5C 46.3507,42.9795 60.0174,30.6462 76.5,21.5 Z"/></g>
<g><path style="opacity:0.518" fill="#047857" d="M 35.5,58.5 C 35.2624,60.4044 34.2624,61.7377 32.5,62.5C 32.7376,60.5956 33.7376,59.2623 35.5,58.5 Z"/></g>
<g><path style="opacity:0.282" fill="#047857" d="M 32.5,62.5 C 28.4538,69.2799 24.4538,75.9465 20.5,82.5C 22.9945,74.83 26.9945,68.1633 32.5,62.5 Z"/></g>
<g><path style="opacity:0.125" fill="#047857" d="M 128.5,71.5 C 123.023,74.4032 117.357,77.0698 111.5,79.5C 116.489,75.5066 122.156,72.8399 128.5,71.5 Z"/></g>
<g><path style="opacity:0.012" fill="#047857" d="M 111.5,79.5 C 111.027,80.9063 110.027,81.573 108.5,81.5C 108.973,80.0937 109.973,79.427 111.5,79.5 Z"/></g>
<g><path style="opacity:0.024" fill="#047857" d="M 108.5,81.5 C 108.027,82.9063 107.027,83.573 105.5,83.5C 105.973,82.0937 106.973,81.427 108.5,81.5 Z"/></g>
<g><path style="opacity:0.02" fill="#047857" d="M 19.5,84.5 C 19.0075,86.8185 18.0075,88.8185 16.5,90.5C 16.461,87.911 17.461,85.911 19.5,84.5 Z"/></g>
<g><path style="opacity:0.114" fill="#047857" d="M 105.5,83.5 C 101.193,87.4718 96.8593,91.4718 92.5,95.5C 95.5537,90.1129 99.887,86.1129 105.5,83.5 Z"/></g>
<g><path style="opacity:0.004" fill="#047857" d="M 92.5,95.5 C 90.984,98.5331 88.984,101.2 86.5,103.5C 87.5293,100.109 89.5293,97.4426 92.5,95.5 Z"/></g>
<g><path style="opacity:0.627" fill="#047857" d="M 16.5,90.5 C 15.6663,96.6728 13.6663,102.339 10.5,107.5C 11.7258,101.485 13.7258,95.8185 16.5,90.5 Z"/></g>
<g><path style="opacity:1" fill="#047857" d="M 169.5,107.5 C 172.273,108.657 175.273,109.324 178.5,109.5C 182.738,111.959 187.072,114.459 191.5,117C 193.37,119.04 195.37,120.873 197.5,122.5C 198.917,125.669 200.583,128.669 202.5,131.5C 202.5,131.833 202.5,132.167 202.5,132.5C 202.5,138.5 202.5,144.5 202.5,150.5C 196.518,167.485 185.518,180.152 169.5,188.5C 167.485,189.924 165.152,190.59 162.5,190.5C 155.833,190.5 149.167,190.5 142.5,190.5C 139.2,188.358 135.533,187.025 131.5,186.5C 131.027,185.094 130.027,184.427 128.5,184.5C 128.027,183.094 127.027,182.427 125.5,182.5C 123.833,180.167 121.833,178.167 119.5,176.5C 105.203,147.753 112.203,125.753 140.5,110.5C 144.733,110.027 148.733,109.027 152.5,107.5C 158.167,106.167 163.833,106.167 169.5,107.5 Z"/></g>
<g><path style="opacity:0.029" fill="#047857" d="M 169.5,107.5 C 172.829,107.215 175.829,107.882 178.5,109.5C 175.273,109.324 172.273,108.657 169.5,107.5 Z"/></g>
<g><path style="opacity:0.498" fill="#047857" d="M 152.5,107.5 C 148.733,109.027 144.733,110.027 140.5,110.5C 144.098,108.308 148.098,107.308 152.5,107.5 Z"/></g>
<g><path style="opacity:0.145" fill="#047857" d="M 86.5,103.5 C 75.2721,121.97 70.9388,141.97 73.5,163.5C 69.1352,141.66 73.4686,121.66 86.5,103.5 Z"/></g>
<g><path style="opacity:0.267" fill="#047857" d="M 140.5,110.5 C 112.203,125.753 105.203,147.753 119.5,176.5C 114.69,171.954 111.857,166.287 111,159.5C 108.576,135.666 118.41,119.333 140.5,110.5 Z"/></g>
<g><path style="opacity:0.235" fill="#047857" d="M 178.5,109.5 C 186.799,111.159 193.132,115.492 197.5,122.5C 195.37,120.873 193.37,119.04 191.5,117C 187.072,114.459 182.738,111.959 178.5,109.5 Z"/></g>
<g><path style="opacity:0.086" fill="#047857" d="M 197.5,122.5 C 200.45,124.728 202.116,127.728 202.5,131.5C 200.583,128.669 198.917,125.669 197.5,122.5 Z"/></g>
<g><path style="opacity:0.683" fill="#047857" d="M 202.5,132.5 C 205.167,138.5 205.167,144.5 202.5,150.5C 202.5,144.5 202.5,138.5 202.5,132.5 Z"/></g>
<g><path style="opacity:0.012" fill="#047857" d="M 345.5,147.5 C 345.5,147.167 345.5,146.833 345.5,146.5C 350.75,146.302 355.75,146.969 360.5,148.5C 355.493,148.249 350.493,147.916 345.5,147.5 Z"/></g>
<g><path style="opacity:0.553" fill="#047857" d="M 345.5,146.5 C 345.5,146.833 345.5,147.167 345.5,147.5C 334.148,147.373 322.815,147.706 311.5,148.5C 319.48,147.066 327.646,146.066 336,145.5C 339.105,146.367 342.272,146.701 345.5,146.5 Z"/></g>
<g><path style="opacity:1" fill="#047857" d="M 345.5,147.5 C 350.493,147.916 355.493,148.249 360.5,148.5C 364.291,148.659 367.958,149.325 371.5,150.5C 374.452,152.41 377.786,153.41 381.5,153.5C 383.786,153.595 385.786,154.262 387.5,155.5C 388.78,156.931 390.447,157.598 392.5,157.5C 393.78,158.931 395.447,159.598 397.5,159.5C 398.492,159.328 399.158,159.662 399.5,160.5C 400.514,161.674 401.847,162.34 403.5,162.5C 406.485,163.326 409.151,164.659 411.5,166.5C 411.973,167.906 412.973,168.573 414.5,168.5C 415.492,168.328 416.158,168.662 416.5,169.5C 416.973,170.906 417.973,171.573 419.5,171.5C 419.973,172.906 420.973,173.573 422.5,173.5C 422.833,174.167 423.167,174.833 423.5,175.5C 420.941,178.658 421.941,179.991 426.5,179.5C 426.33,180.822 426.663,181.989 427.5,183C 431.429,185.615 435.429,187.115 439.5,187.5C 439.833,188.5 440.5,189.167 441.5,189.5C 442.833,190.167 443.833,191.167 444.5,192.5C 444.833,193.5 445.5,194.167 446.5,194.5C 448.094,197.764 450.427,200.431 453.5,202.5C 454.08,204.749 455.413,206.415 457.5,207.5C 457.738,209.404 458.738,210.738 460.5,211.5C 460.427,213.027 461.094,214.027 462.5,214.5C 462.427,216.027 463.094,217.027 464.5,217.5C 465.338,217.842 465.672,218.508 465.5,219.5C 465.427,221.027 466.094,222.027 467.5,222.5C 471.288,228.412 474.288,234.745 476.5,241.5C 476.12,243.698 476.787,245.365 478.5,246.5C 479.738,248.214 480.405,250.214 480.5,252.5C 481.053,257.806 482.386,262.806 484.5,267.5C 488.476,287.171 488.476,306.837 484.5,326.5C 482.233,332.224 480.566,338.224 479.5,344.5C 478.262,346.214 477.595,348.214 477.5,350.5C 475.597,353.53 474.263,356.863 473.5,360.5C 472.341,364.151 470.674,367.485 468.5,370.5C 466.75,371.659 465.75,373.326 465.5,375.5C 464.094,375.973 463.427,376.973 463.5,378.5C 462.66,380.853 461.326,382.853 459.5,384.5C 458.094,384.973 457.427,385.973 457.5,387.5C 457.5,388.167 457.167,388.5 456.5,388.5C 455.094,388.973 454.427,389.973 454.5,391.5C 454.167,392.5 453.5,393.167 452.5,393.5C 450.738,394.262 449.738,395.596 449.5,397.5C 448.833,398.833 447.833,399.833 446.5,400.5C 445.5,400.833 444.833,401.5 444.5,402.5C 442.5,403.833 440.833,405.5 439.5,407.5C 438.5,409.167 437.167,410.5 435.5,411.5C 433.596,411.738 432.262,412.738 431.5,414.5C 431.167,415.5 430.5,416.167 429.5,416.5C 427.973,416.427 426.973,417.094 426.5,418.5C 424.469,420.522 422.135,422.189 419.5,423.5C 417.973,423.427 416.973,424.094 416.5,425.5C 416.158,426.338 415.492,426.672 414.5,426.5C 412.973,426.427 411.973,427.094 411.5,428.5C 407.151,431.341 402.484,433.674 397.5,435.5C 395.447,435.402 393.78,436.069 392.5,437.5C 387.466,438.398 382.799,440.065 378.5,442.5C 376.095,443.768 373.428,444.435 370.5,444.5C 364.884,444.656 359.551,445.656 354.5,447.5C 353.833,447.5 353.167,447.5 352.5,447.5C 347.5,447.5 342.5,447.5 337.5,447.5C 337.5,425.167 337.5,402.833 337.5,380.5C 340.713,380.81 343.713,380.477 346.5,379.5C 346.833,379.5 347.167,379.5 347.5,379.5C 351.122,379.678 354.456,379.011 357.5,377.5C 359.898,377.741 361.898,377.074 363.5,375.5C 366.54,373.654 369.873,372.321 373.5,371.5C 375.674,371.25 377.341,370.25 378.5,368.5C 378.842,367.662 379.508,367.328 380.5,367.5C 382.027,367.573 383.027,366.906 383.5,365.5C 385.027,365.573 386.027,364.906 386.5,363.5C 389.427,362.243 391.761,360.243 393.5,357.5C 396.903,355.1 399.57,352.1 401.5,348.5C 403.262,347.738 404.262,346.404 404.5,344.5C 405.906,344.027 406.573,343.027 406.5,341.5C 407.992,337.182 409.992,333.182 412.5,329.5C 414.213,328.365 414.88,326.698 414.5,324.5C 416.568,321.237 417.568,317.57 417.5,313.5C 417.368,310.43 417.701,307.43 418.5,304.5C 419.653,298.347 419.82,292.014 419,285.5C 418.768,284.263 418.268,283.263 417.5,282.5C 416.192,278.6 415.192,274.6 414.5,270.5C 413.486,264.808 411.152,259.808 407.5,255.5C 406.662,255.158 406.328,254.492 406.5,253.5C 406.262,251.596 405.262,250.262 403.5,249.5C 403.573,247.973 402.906,246.973 401.5,246.5C 400.833,246.5 400.5,246.167 400.5,245.5C 399.92,243.251 398.587,241.585 396.5,240.5C 395.167,239.833 394.167,238.833 393.5,237.5C 391.761,234.757 389.427,232.757 386.5,231.5C 386.027,230.094 385.027,229.427 383.5,229.5C 383.027,228.094 382.027,227.427 380.5,227.5C 380.027,226.094 379.027,225.427 377.5,225.5C 373.646,224.07 369.979,222.403 366.5,220.5C 365.365,218.787 363.698,218.12 361.5,218.5C 361.167,218.5 360.833,218.5 360.5,218.5C 358.562,216.837 356.228,216.171 353.5,216.5C 350.455,216.492 347.455,216.159 344.5,215.5C 337.679,214.345 330.679,214.179 323.5,215C 320.478,215.098 317.811,215.932 315.5,217.5C 315.167,217.5 314.833,217.5 314.5,217.5C 312.102,217.259 310.102,217.926 308.5,219.5C 306.447,219.402 304.78,220.069 303.5,221.5C 297.704,224.566 292.038,227.9 286.5,231.5C 284.973,231.427 283.973,232.094 283.5,233.5C 280.833,236.833 277.833,239.833 274.5,242.5C 273.5,243.167 272.5,243.833 271.5,244.5C 253.939,231.214 236.939,217.214 220.5,202.5C 221.63,201.378 222.297,200.044 222.5,198.5C 227.833,193.833 232.833,188.833 237.5,183.5C 240.089,182.581 242.089,180.914 243.5,178.5C 245.404,178.262 246.738,177.262 247.5,175.5C 249.027,175.573 250.027,174.906 250.5,173.5C 252.027,173.573 253.027,172.906 253.5,171.5C 255.027,171.573 256.027,170.906 256.5,169.5C 258.027,169.573 259.027,168.906 259.5,167.5C 260.514,166.326 261.847,165.66 263.5,165.5C 265.027,165.573 266.027,164.906 266.5,163.5C 268.181,161.992 270.181,160.992 272.5,160.5C 274.698,160.88 276.365,160.213 277.5,158.5C 278.78,157.069 280.447,156.402 282.5,156.5C 284.698,156.88 286.365,156.213 287.5,154.5C 291.214,154.41 294.548,153.41 297.5,151.5C 298.919,150.549 300.585,150.216 302.5,150.5C 305.781,150.58 308.781,149.913 311.5,148.5C 322.815,147.706 334.148,147.373 345.5,147.5 Z"/></g>
<g><path style="opacity:0.639" fill="#047857" d="M 311.5,148.5 C 308.781,149.913 305.781,150.58 302.5,150.5C 305.219,149.087 308.219,148.42 311.5,148.5 Z"/></g>
<g><path style="opacity:0.494" fill="#047857" d="M 371.5,150.5 C 375.116,150.899 378.45,151.899 381.5,153.5C 377.786,153.41 374.452,152.41 371.5,150.5 Z"/></g>
<g><path style="opacity:0.533" fill="#047857" d="M 297.5,151.5 C 294.548,153.41 291.214,154.41 287.5,154.5C 290.55,152.899 293.884,151.899 297.5,151.5 Z"/></g>
<g><path style="opacity:0.773" fill="#047857" d="M 287.5,154.5 C 286.365,156.213 284.698,156.88 282.5,156.5C 283.78,155.069 285.447,154.402 287.5,154.5 Z"/></g>
<g><path style="opacity:0.294" fill="#047857" d="M 387.5,155.5 C 389.553,155.402 391.22,156.069 392.5,157.5C 390.447,157.598 388.78,156.931 387.5,155.5 Z"/></g>
<g><path style="opacity:0.278" fill="#047857" d="M 392.5,157.5 C 394.553,157.402 396.22,158.069 397.5,159.5C 395.447,159.598 393.78,158.931 392.5,157.5 Z"/></g>
<g><path style="opacity:0.788" fill="#047857" d="M 277.5,158.5 C 276.365,160.213 274.698,160.88 272.5,160.5C 273.93,159.463 275.597,158.796 277.5,158.5 Z"/></g>
<g><path style="opacity:0.118" fill="#047857" d="M 399.5,160.5 C 401.38,160.229 402.713,160.896 403.5,162.5C 401.847,162.34 400.514,161.674 399.5,160.5 Z"/></g>
<g><path style="opacity:0.537" fill="#047857" d="M 266.5,163.5 C 266.027,164.906 265.027,165.573 263.5,165.5C 263.973,164.094 264.973,163.427 266.5,163.5 Z"/></g>
<g><path style="opacity:0.145" fill="#047857" d="M 411.5,166.5 C 413.027,166.427 414.027,167.094 414.5,168.5C 412.973,168.573 411.973,167.906 411.5,166.5 Z"/></g>
<g><path style="opacity:0.014" fill="#047857" d="M 73.5,164.5 C 74.7682,166.905 75.4349,169.572 75.5,172.5C 73.9605,170.162 73.2938,167.495 73.5,164.5 Z"/></g>
<g><path style="opacity:0.522" fill="#047857" d="M 259.5,167.5 C 259.027,168.906 258.027,169.573 256.5,169.5C 256.973,168.094 257.973,167.427 259.5,167.5 Z"/></g>
<g><path style="opacity:0.004" fill="#047857" d="M 416.5,169.5 C 418.027,169.427 419.027,170.094 419.5,171.5C 417.973,171.573 416.973,170.906 416.5,169.5 Z"/></g>
<g><path style="opacity:0.616" fill="#047857" d="M 256.5,169.5 C 256.027,170.906 255.027,171.573 253.5,171.5C 253.973,170.094 254.973,169.427 256.5,169.5 Z"/></g>
<g><path style="opacity:0.016" fill="#047857" d="M 419.5,171.5 C 421.027,171.427 422.027,172.094 422.5,173.5C 420.973,173.573 419.973,172.906 419.5,171.5 Z"/></g>
<g><path style="opacity:0.62" fill="#047857" d="M 253.5,171.5 C 253.027,172.906 252.027,173.573 250.5,173.5C 250.973,172.094 251.973,171.427 253.5,171.5 Z"/></g>
<g><path style="opacity:0.008" fill="#047857" d="M 422.5,173.5 C 424.027,173.427 425.027,174.094 425.5,175.5C 424.833,175.5 424.167,175.5 423.5,175.5C 423.167,174.833 422.833,174.167 422.5,173.5 Z"/></g>
<g><path style="opacity:0.557" fill="#047857" d="M 250.5,173.5 C 250.027,174.906 249.027,175.573 247.5,175.5C 247.973,174.094 248.973,173.427 250.5,173.5 Z"/></g>
<g><path style="opacity:0.431" fill="#047857" d="M 247.5,175.5 C 246.738,177.262 245.404,178.262 243.5,178.5C 244.262,176.738 245.596,175.738 247.5,175.5 Z"/></g>
<g><path style="opacity:1" fill="#047857" d="M 423.5,175.5 C 424.167,175.5 424.833,175.5 425.5,175.5C 426.167,175.5 426.5,175.833 426.5,176.5C 426.973,177.906 427.973,178.573 429.5,178.5C 430.5,178.833 431.167,179.5 431.5,180.5C 432.262,182.262 433.596,183.262 435.5,183.5C 437.167,184.5 438.5,185.833 439.5,187.5C 435.429,187.115 431.429,185.615 427.5,183C 426.663,181.989 426.33,180.822 426.5,179.5C 421.941,179.991 420.941,178.658 423.5,175.5 Z"/></g>
<g><path style="opacity:0.012" fill="#047857" d="M 426.5,176.5 C 428.027,176.427 429.027,177.094 429.5,178.5C 427.973,178.573 426.973,177.906 426.5,176.5 Z"/></g>
<g><path style="opacity:0.008" fill="#047857" d="M 119.5,176.5 C 121.833,178.167 123.833,180.167 125.5,182.5C 122.5,181.5 120.5,179.5 119.5,176.5 Z"/></g>
<g><path style="opacity:0.047" fill="#047857" d="M 202.5,150.5 C 197.944,168.725 186.944,181.392 169.5,188.5C 185.518,180.152 196.518,167.485 202.5,150.5 Z"/></g>
<g><path style="opacity:0.071" fill="#047857" d="M 75.5,172.5 C 77.0719,175.215 78.0719,178.215 78.5,181.5C 76.446,178.992 75.446,175.992 75.5,172.5 Z"/></g>
<g><path style="opacity:0.016" fill="#047857" d="M 431.5,180.5 C 433.404,180.738 434.738,181.738 435.5,183.5C 433.596,183.262 432.262,182.262 431.5,180.5 Z"/></g>
<g><path style="opacity:0.588" fill="#047857" d="M 243.5,178.5 C 242.089,180.914 240.089,182.581 237.5,183.5C 238.911,181.086 240.911,179.419 243.5,178.5 Z"/></g>
<g><path style="opacity:0.322" fill="#047857" d="M 125.5,182.5 C 127.027,182.427 128.027,183.094 128.5,184.5C 126.973,184.573 125.973,183.906 125.5,182.5 Z"/></g>
<g><path style="opacity:0.22" fill="#047857" d="M 128.5,184.5 C 130.027,184.427 131.027,185.094 131.5,186.5C 129.973,186.573 128.973,185.906 128.5,184.5 Z"/></g>
<g><path style="opacity:0.843" fill="#047857" d="M 131.5,186.5 C 135.533,187.025 139.2,188.358 142.5,190.5C 138.327,190.333 134.66,189 131.5,186.5 Z"/></g>
<g><path style="opacity:0.004" fill="#047857" d="M 439.5,187.5 C 440.833,187.5 441.5,188.167 441.5,189.5C 440.5,189.167 439.833,188.5 439.5,187.5 Z"/></g>
<g><path style="opacity:0.11" fill="#047857" d="M 78.5,181.5 C 81.0078,185.182 83.0078,189.182 84.5,193.5C 81.4598,190.086 79.4598,186.086 78.5,181.5 Z"/></g>
<g><path style="opacity:0.754" fill="#047857" d="M 142.5,190.5 C 149.167,190.5 155.833,190.5 162.5,190.5C 155.826,193.073 149.159,193.073 142.5,190.5 Z"/></g>
<g><path style="opacity:0.525" fill="#047857" d="M 237.5,183.5 C 232.833,188.833 227.833,193.833 222.5,198.5C 226.5,192.5 231.5,187.5 237.5,183.5 Z"/></g>
<g><path style="opacity:0.004" fill="#047857" d="M 444.5,192.5 C 445.833,192.5 446.5,193.167 446.5,194.5C 445.5,194.167 444.833,193.5 444.5,192.5 Z"/></g>
<g><path style="opacity:0.196" fill="#047857" d="M 10.5,107.5 C 5.90295,126.91 4.40295,146.577 6,166.5C 8.16834,181.169 11.6683,195.502 16.5,209.5C 5.50922,184.682 1.67588,158.682 5,131.5C 5.89881,123.154 7.73214,115.154 10.5,107.5 Z"/></g>
<g><path style="opacity:0.153" fill="#047857" d="M 84.5,193.5 C 85.9063,193.973 86.573,194.973 86.5,196.5C 85.0937,196.027 84.427,195.027 84.5,193.5 Z"/></g>
<g><path style="opacity:0.761" fill="#047857" d="M 446.5,194.5 C 449.573,196.569 451.906,199.236 453.5,202.5C 450.427,200.431 448.094,197.764 446.5,194.5 Z"/></g>
<g><path style="opacity:0.192" fill="#047857" d="M 86.5,196.5 C 88.2624,197.262 89.2624,198.596 89.5,200.5C 87.7376,199.738 86.7376,198.404 86.5,196.5 Z"/></g>
<g><path style="opacity:0.314" fill="#047857" d="M 89.5,200.5 C 91.2624,201.262 92.2624,202.596 92.5,204.5C 90.7376,203.738 89.7376,202.404 89.5,200.5 Z"/></g>
<g><path style="opacity:0.545" fill="#047857" d="M 92.5,204.5 C 98.0196,209.745 103.686,214.745 109.5,219.5C 102.397,216.117 96.7303,211.117 92.5,204.5 Z"/></g>
<g><path style="opacity:0.212" fill="#047857" d="M 453.5,202.5 C 455.587,203.585 456.92,205.251 457.5,207.5C 455.413,206.415 454.08,204.749 453.5,202.5 Z"/></g>
<g><path style="opacity:0.322" fill="#047857" d="M 219.5,201.5 C 219.649,202.552 219.483,203.552 219,204.5C 215.571,208.439 211.737,211.772 207.5,214.5C 211.528,210.141 215.528,205.807 219.5,201.5 Z"/></g>
<g><path style="opacity:0.325" fill="#047857" d="M 457.5,207.5 C 459.262,208.262 460.262,209.596 460.5,211.5C 458.738,210.738 457.738,209.404 457.5,207.5 Z"/></g>
<g><path style="opacity:0.176" fill="#047857" d="M 460.5,211.5 C 461.906,211.973 462.573,212.973 462.5,214.5C 461.094,214.027 460.427,213.027 460.5,211.5 Z"/></g>
<g><path style="opacity:0.012" fill="#047857" d="M 344.5,215.5 C 334.752,215.188 325.085,215.855 315.5,217.5C 317.811,215.932 320.478,215.098 323.5,215C 330.679,214.179 337.679,214.345 344.5,215.5 Z"/></g>
<g><path style="opacity:0.635" fill="#047857" d="M 353.5,216.5 C 356.228,216.171 358.562,216.837 360.5,218.5C 357.933,218.279 355.599,217.612 353.5,216.5 Z"/></g>
<g><path style="opacity:0.149" fill="#047857" d="M 462.5,214.5 C 463.906,214.973 464.573,215.973 464.5,217.5C 463.094,217.027 462.427,216.027 462.5,214.5 Z"/></g>
<g><path style="opacity:0.376" fill="#047857" d="M 207.5,214.5 C 206.008,217.323 203.674,218.99 200.5,219.5C 202.55,217.453 204.883,215.786 207.5,214.5 Z"/></g>
<g><path style="opacity:0.18" fill="#047857" d="M 314.5,217.5 C 312.786,218.738 310.786,219.405 308.5,219.5C 310.102,217.926 312.102,217.259 314.5,217.5 Z"/></g>
<g><path style="opacity:0.78" fill="#047857" d="M 361.5,218.5 C 363.698,218.12 365.365,218.787 366.5,220.5C 364.597,220.204 362.93,219.537 361.5,218.5 Z"/></g>
<g><path style="opacity:0.137" fill="#047857" d="M 200.5,219.5 C 199.341,221.25 197.674,222.25 195.5,222.5C 196.659,220.75 198.326,219.75 200.5,219.5 Z"/></g>
<g><path style="opacity:0.114" fill="#047857" d="M 308.5,219.5 C 307.22,220.931 305.553,221.598 303.5,221.5C 304.78,220.069 306.447,219.402 308.5,219.5 Z"/></g>
<g><path style="opacity:0.149" fill="#047857" d="M 465.5,219.5 C 466.906,219.973 467.573,220.973 467.5,222.5C 466.094,222.027 465.427,221.027 465.5,219.5 Z"/></g>
<g><path style="opacity:0.271" fill="#047857" d="M 109.5,219.5 C 115.103,221.805 120.436,224.472 125.5,227.5C 119.301,226.401 113.968,223.734 109.5,219.5 Z"/></g>
<g><path style="opacity:0.275" fill="#047857" d="M 377.5,225.5 C 379.027,225.427 380.027,226.094 380.5,227.5C 378.973,227.573 377.973,226.906 377.5,225.5 Z"/></g>
<g><path style="opacity:0.298" fill="#047857" d="M 125.5,227.5 C 127.786,227.595 129.786,228.262 131.5,229.5C 129.102,229.741 127.102,229.074 125.5,227.5 Z"/></g>
<g><path style="opacity:0.71" fill="#047857" d="M 187.5,226.5 C 183.745,229.416 179.412,230.75 174.5,230.5C 178.617,228.796 182.951,227.463 187.5,226.5 Z"/></g>
<g><path style="opacity:0.239" fill="#047857" d="M 380.5,227.5 C 382.027,227.427 383.027,228.094 383.5,229.5C 381.973,229.573 380.973,228.906 380.5,227.5 Z"/></g>
<g><path style="opacity:0.153" fill="#047857" d="M 16.5,209.5 C 19.9578,215.739 23.4578,222.073 27,228.5C 32.5189,236.225 38.0189,243.892 43.5,251.5C 31.4942,239.502 22.4942,225.502 16.5,209.5 Z"/></g>
<g><path style="opacity:0.333" fill="#047857" d="M 383.5,229.5 C 385.027,229.427 386.027,230.094 386.5,231.5C 384.973,231.573 383.973,230.906 383.5,229.5 Z"/></g>
<g><path style="opacity:0.349" fill="#047857" d="M 131.5,229.5 C 145.757,233.022 160.09,233.356 174.5,230.5C 171.797,231.963 168.797,232.796 165.5,233C 156.126,233.776 146.793,233.442 137.5,232C 135.148,231.76 133.148,230.927 131.5,229.5 Z"/></g>
<g><path style="opacity:0.031" fill="#047857" d="M 286.5,231.5 C 286.027,232.906 285.027,233.573 283.5,233.5C 283.973,232.094 284.973,231.427 286.5,231.5 Z"/></g>
<g><path style="opacity:0.443" fill="#047857" d="M 386.5,231.5 C 389.427,232.757 391.761,234.757 393.5,237.5C 390.573,236.243 388.239,234.243 386.5,231.5 Z"/></g>
<g><path style="opacity:0.004" fill="#047857" d="M 396.5,240.5 C 398.587,241.585 399.92,243.251 400.5,245.5C 398.413,244.415 397.08,242.749 396.5,240.5 Z"/></g>
<g><path style="opacity:0.725" fill="#047857" d="M 476.5,241.5 C 477.537,242.93 478.204,244.597 478.5,246.5C 476.787,245.365 476.12,243.698 476.5,241.5 Z"/></g>
<g><path style="opacity:0.027" fill="#047857" d="M 274.5,242.5 C 272.906,245.764 270.573,248.431 267.5,250.5C 268.415,248.246 269.748,246.246 271.5,244.5C 272.5,243.833 273.5,243.167 274.5,242.5 Z"/></g>
<g><path style="opacity:0.004" fill="#047857" d="M 401.5,246.5 C 402.906,246.973 403.573,247.973 403.5,249.5C 402.094,249.027 401.427,248.027 401.5,246.5 Z"/></g>
<g><path style="opacity:0.004" fill="#047857" d="M 403.5,249.5 C 405.262,250.262 406.262,251.596 406.5,253.5C 404.738,252.738 403.738,251.404 403.5,249.5 Z"/></g>
<g><path style="opacity:0.008" fill="#047857" d="M 267.5,250.5 C 267.167,252.833 265.833,254.167 263.5,254.5C 264.5,252.833 265.833,251.5 267.5,250.5 Z"/></g>
<g><path style="opacity:0.004" fill="#047857" d="M 43.5,251.5 C 46.4518,253.785 49.1185,256.452 51.5,259.5C 47.855,257.855 45.1884,255.188 43.5,251.5 Z"/></g>
<g><path style="opacity:0.098" fill="#047857" d="M 345.5,255.5 C 350.289,255.654 354.622,256.987 358.5,259.5C 353.951,258.537 349.617,257.204 345.5,255.5 Z"/></g>
<g><path style="opacity:0.671" fill="#047857" d="M 332.5,255.5 C 329.781,256.913 326.781,257.58 323.5,257.5C 326.219,256.087 329.219,255.42 332.5,255.5 Z"/></g>
<g><path style="opacity:1" fill="#047857" d="M 345.5,255.5 C 349.617,257.204 353.951,258.537 358.5,259.5C 359.492,259.328 360.158,259.662 360.5,260.5C 360.973,261.906 361.973,262.573 363.5,262.5C 364.262,264.262 365.596,265.262 367.5,265.5C 368.757,268.427 370.757,270.761 373.5,272.5C 373.427,274.027 374.094,275.027 375.5,275.5C 376.674,276.514 377.34,277.847 377.5,279.5C 377.259,281.898 377.926,283.898 379.5,285.5C 380.833,291.833 380.833,298.167 379.5,304.5C 377.853,308.424 376.186,312.424 374.5,316.5C 374.672,317.492 374.338,318.158 373.5,318.5C 372.094,318.973 371.427,319.973 371.5,321.5C 371.167,322.5 370.5,323.167 369.5,323.5C 368.5,323.833 367.833,324.5 367.5,325.5C 366.5,325.833 365.833,326.5 365.5,327.5C 365.167,328.5 364.5,329.167 363.5,329.5C 361.973,329.427 360.973,330.094 360.5,331.5C 358.973,331.427 357.973,332.094 357.5,333.5C 357.158,334.338 356.492,334.672 355.5,334.5C 353.447,334.402 351.78,335.069 350.5,336.5C 348.102,336.259 346.102,336.926 344.5,338.5C 333.762,340.044 323.095,339.711 312.5,337.5C 309.088,336.958 306.088,335.625 303.5,333.5C 302.738,331.738 301.404,330.738 299.5,330.5C 297.452,327.785 295.118,325.452 292.5,323.5C 291.662,323.158 291.328,322.492 291.5,321.5C 291.34,319.847 290.674,318.514 289.5,317.5C 288.596,316.791 288.263,315.791 288.5,314.5C 288.5,312.5 288.5,310.5 288.5,308.5C 288.472,303.138 288.806,297.805 289.5,292.5C 290.042,289.088 291.375,286.088 293.5,283.5C 294.906,283.027 295.573,282.027 295.5,280.5C 296.906,280.027 297.573,279.027 297.5,277.5C 300.243,275.761 302.243,273.427 303.5,270.5C 306.427,269.243 308.761,267.243 310.5,264.5C 312.027,264.573 313.027,263.906 313.5,262.5C 313.842,261.662 314.508,261.328 315.5,261.5C 317.027,261.573 318.027,260.906 318.5,259.5C 320.553,259.598 322.22,258.931 323.5,257.5C 326.781,257.58 329.781,256.913 332.5,255.5C 336.833,254.167 341.167,254.167 345.5,255.5 Z"/></g>
<g><path style="opacity:0.682" fill="#047857" d="M 480.5,252.5 C 482.591,257.191 483.924,262.191 484.5,267.5C 482.386,262.806 481.053,257.806 480.5,252.5 Z"/></g>
<g><path style="opacity:0.078" fill="#047857" d="M 323.5,257.5 C 322.22,258.931 320.553,259.598 318.5,259.5C 319.78,258.069 321.447,257.402 323.5,257.5 Z"/></g>
<g><path style="opacity:0.004" fill="#047857" d="M 263.5,254.5 C 261.833,258.167 259.167,260.833 255.5,262.5C 257.833,259.5 260.5,256.833 263.5,254.5 Z"/></g>
<g><path style="opacity:0.549" fill="#047857" d="M 318.5,259.5 C 318.027,260.906 317.027,261.573 315.5,261.5C 315.973,260.094 316.973,259.427 318.5,259.5 Z"/></g>
<g><path style="opacity:0.49" fill="#047857" d="M 53.5,261.5 C 56.4274,262.757 58.7607,264.757 60.5,267.5C 57.5726,266.243 55.2393,264.243 53.5,261.5 Z"/></g>
<g><path style="opacity:0.09" fill="#047857" d="M 360.5,260.5 C 362.027,260.427 363.027,261.094 363.5,262.5C 361.973,262.573 360.973,261.906 360.5,260.5 Z"/></g>
<g><path style="opacity:0.149" fill="#047857" d="M 407.5,255.5 C 411.152,259.808 413.486,264.808 414.5,270.5C 411.93,265.689 409.597,260.689 407.5,255.5 Z"/></g>
<g><path style="opacity:0.004" fill="#047857" d="M 363.5,262.5 C 365.404,262.738 366.738,263.738 367.5,265.5C 365.596,265.262 364.262,264.262 363.5,262.5 Z"/></g>
<g><path style="opacity:0.525" fill="#047857" d="M 313.5,262.5 C 313.027,263.906 312.027,264.573 310.5,264.5C 310.973,263.094 311.973,262.427 313.5,262.5 Z"/></g>
<g><path style="opacity:0.655" fill="#047857" d="M 367.5,265.5 C 370.243,267.239 372.243,269.573 373.5,272.5C 370.757,270.761 368.757,268.427 367.5,265.5 Z"/></g>
<g><path style="opacity:0.114" fill="#047857" d="M 254.5,263.5 C 250.742,267.592 246.409,270.926 241.5,273.5C 245.258,269.408 249.591,266.074 254.5,263.5 Z"/></g>
<g><path style="opacity:0.612" fill="#047857" d="M 310.5,264.5 C 308.761,267.243 306.427,269.243 303.5,270.5C 305.239,267.757 307.573,265.757 310.5,264.5 Z"/></g>
<g><path style="opacity:0.306" fill="#047857" d="M 60.5,267.5 C 62.4044,267.738 63.7377,268.738 64.5,270.5C 62.5956,270.262 61.2623,269.262 60.5,267.5 Z"/></g>
<g><path style="opacity:0.29" fill="#047857" d="M 64.5,270.5 C 66.4044,270.738 67.7377,271.738 68.5,273.5C 66.5956,273.262 65.2623,272.262 64.5,270.5 Z"/></g>
<g><path style="opacity:0.616" fill="#047857" d="M 303.5,270.5 C 302.243,273.427 300.243,275.761 297.5,277.5C 298.757,274.573 300.757,272.239 303.5,270.5 Z"/></g>
<g><path style="opacity:0.216" fill="#047857" d="M 68.5,273.5 C 70.0269,273.427 71.0269,274.094 71.5,275.5C 69.9731,275.573 68.9731,274.906 68.5,273.5 Z"/></g>
<g><path style="opacity:0.031" fill="#047857" d="M 241.5,273.5 C 240.198,275.822 238.198,277.155 235.5,277.5C 237.147,275.674 239.147,274.34 241.5,273.5 Z"/></g>
<g><path style="opacity:0.239" fill="#047857" d="M 373.5,272.5 C 374.906,272.973 375.573,273.973 375.5,275.5C 374.094,275.027 373.427,274.027 373.5,272.5 Z"/></g>
<g><path style="opacity:0.2" fill="#047857" d="M 71.5,275.5 C 73.0269,275.427 74.0269,276.094 74.5,277.5C 72.9731,277.573 71.9731,276.906 71.5,275.5 Z"/></g>
<g><path style="opacity:0.129" fill="#047857" d="M 74.5,277.5 C 76.674,277.75 78.3406,278.75 79.5,280.5C 77.326,280.25 75.6594,279.25 74.5,277.5 Z"/></g>
<g><path style="opacity:0.314" fill="#047857" d="M 297.5,277.5 C 297.573,279.027 296.906,280.027 295.5,280.5C 295.427,278.973 296.094,277.973 297.5,277.5 Z"/></g>
<g><path style="opacity:0.22" fill="#047857" d="M 295.5,280.5 C 295.573,282.027 294.906,283.027 293.5,283.5C 293.427,281.973 294.094,280.973 295.5,280.5 Z"/></g>
<g><path style="opacity:0.706" fill="#047857" d="M 377.5,279.5 C 378.738,281.214 379.405,283.214 379.5,285.5C 377.926,283.898 377.259,281.898 377.5,279.5 Z"/></g>
<g><path style="opacity:0.212" fill="#047857" d="M 235.5,277.5 C 230.823,281.509 225.489,284.509 219.5,286.5C 224.502,282.997 229.835,279.997 235.5,277.5 Z"/></g>
<g><path style="opacity:0.149" fill="#047857" d="M 81.5,281.5 C 86.4844,283.326 91.1511,285.659 95.5,288.5C 90.2472,287.207 85.5806,284.874 81.5,281.5 Z"/></g>
<g><path style="opacity:0.153" fill="#047857" d="M 219.5,286.5 C 218.22,287.931 216.553,288.598 214.5,288.5C 215.78,287.069 217.447,286.402 219.5,286.5 Z"/></g>
<g><path style="opacity:0.212" fill="#047857" d="M 95.5,288.5 C 102.531,290.064 109.198,292.398 115.5,295.5C 108.335,294.335 101.669,292.002 95.5,288.5 Z"/></g>
<g><path style="opacity:0.02" fill="#047857" d="M 214.5,288.5 C 209.618,291.464 204.285,293.464 198.5,294.5C 203.537,291.929 208.871,289.929 214.5,288.5 Z"/></g>
<g><path style="opacity:0.149" fill="#047857" d="M 417.5,282.5 C 418.268,283.263 418.768,284.263 419,285.5C 419.82,292.014 419.653,298.347 418.5,304.5C 418.582,297.142 418.248,289.809 417.5,282.5 Z"/></g>
<g><path style="opacity:0.565" fill="#047857" d="M 115.5,295.5 C 119.837,295.584 123.837,296.584 127.5,298.5C 123.239,298.102 119.239,297.102 115.5,295.5 Z"/></g>
<g><path style="opacity:0.18" fill="#047857" d="M 128.5,298.5 C 133.434,298.229 138.1,298.896 142.5,300.5C 137.586,300.638 132.919,299.972 128.5,298.5 Z"/></g>
<g><path style="opacity:0.192" fill="#047857" d="M 190.5,296.5 C 175.411,300.992 160.078,302.325 144.5,300.5C 159.937,300.244 175.27,298.91 190.5,296.5 Z"/></g>
<g><path style="opacity:0.318" fill="#047857" d="M 289.5,292.5 C 288.806,297.805 288.472,303.138 288.5,308.5C 287.532,306.393 287.198,304.059 287.5,301.5C 287.42,298.219 288.087,295.219 289.5,292.5 Z"/></g>
<g><path style="opacity:0.031" fill="#047857" d="M 287.5,301.5 C 287.198,304.059 287.532,306.393 288.5,308.5C 288.5,310.5 288.5,312.5 288.5,314.5C 286.591,310.246 286.258,305.912 287.5,301.5 Z"/></g>
<g><path style="opacity:0.133" fill="#047857" d="M 379.5,304.5 C 379.373,309.232 377.707,313.232 374.5,316.5C 376.186,312.424 377.853,308.424 379.5,304.5 Z"/></g>
<g><path style="opacity:0.608" fill="#047857" d="M 417.5,313.5 C 417.568,317.57 416.568,321.237 414.5,324.5C 415.055,320.603 416.055,316.937 417.5,313.5 Z"/></g>
<g><path style="opacity:0.098" fill="#047857" d="M 289.5,317.5 C 290.674,318.514 291.34,319.847 291.5,321.5C 289.896,320.713 289.229,319.38 289.5,317.5 Z"/></g>
<g><path style="opacity:0.004" fill="#047857" d="M 373.5,318.5 C 373.573,320.027 372.906,321.027 371.5,321.5C 371.427,319.973 372.094,318.973 373.5,318.5 Z"/></g>
<g><path style="opacity:0.004" fill="#047857" d="M 369.5,323.5 C 369.5,324.833 368.833,325.5 367.5,325.5C 367.833,324.5 368.5,323.833 369.5,323.5 Z"/></g>
<g><path style="opacity:0.012" fill="#047857" d="M 292.5,323.5 C 295.118,325.452 297.452,327.785 299.5,330.5C 296.189,329.189 293.855,326.855 292.5,323.5 Z"/></g>
<g><path style="opacity:0.004" fill="#047857" d="M 367.5,325.5 C 367.5,326.833 366.833,327.5 365.5,327.5C 365.833,326.5 366.5,325.833 367.5,325.5 Z"/></g>
<g><path style="opacity:0.757" fill="#047857" d="M 414.5,324.5 C 414.88,326.698 414.213,328.365 412.5,329.5C 412.402,327.447 413.069,325.78 414.5,324.5 Z"/></g>
<g><path style="opacity:0.004" fill="#047857" d="M 363.5,329.5 C 363.027,330.906 362.027,331.573 360.5,331.5C 360.973,330.094 361.973,329.427 363.5,329.5 Z"/></g>
<g><path style="opacity:0.455" fill="#047857" d="M 299.5,330.5 C 301.404,330.738 302.738,331.738 303.5,333.5C 301.596,333.262 300.262,332.262 299.5,330.5 Z"/></g>
<g><path style="opacity:0.004" fill="#047857" d="M 360.5,331.5 C 360.027,332.906 359.027,333.573 357.5,333.5C 357.973,332.094 358.973,331.427 360.5,331.5 Z"/></g>
<g><path style="opacity:0.173" fill="#047857" d="M 355.5,334.5 C 354.22,335.931 352.553,336.598 350.5,336.5C 351.78,335.069 353.447,334.402 355.5,334.5 Z"/></g>
<g><path style="opacity:0.118" fill="#047857" d="M 484.5,326.5 C 484.056,332.953 482.39,338.953 479.5,344.5C 480.566,338.224 482.233,332.224 484.5,326.5 Z"/></g>
<g><path style="opacity:0.212" fill="#047857" d="M 350.5,336.5 C 348.786,337.738 346.786,338.405 344.5,338.5C 346.102,336.926 348.102,336.259 350.5,336.5 Z"/></g>
<g><path style="opacity:0.35" fill="#047857" d="M 312.5,337.5 C 323.095,339.711 333.762,340.044 344.5,338.5C 339.923,339.99 335.09,340.656 330,340.5C 323.8,340.881 317.967,339.881 312.5,337.5 Z"/></g>
<g><path style="opacity:0.314" fill="#047857" d="M 406.5,341.5 C 406.573,343.027 405.906,344.027 404.5,344.5C 404.427,342.973 405.094,341.973 406.5,341.5 Z"/></g>
<g><path style="opacity:0.408" fill="#047857" d="M 404.5,344.5 C 404.262,346.404 403.262,347.738 401.5,348.5C 401.738,346.596 402.738,345.262 404.5,344.5 Z"/></g>
<g><path style="opacity:0.004" fill="#047857" d="M 479.5,344.5 C 479.741,346.898 479.074,348.898 477.5,350.5C 477.595,348.214 478.262,346.214 479.5,344.5 Z"/></g>
<g><path style="opacity:0.275" fill="#047857" d="M 401.5,348.5 C 399.57,352.1 396.903,355.1 393.5,357.5C 395.43,353.9 398.097,350.9 401.5,348.5 Z"/></g>
<g><path style="opacity:0.145" fill="#047857" d="M 477.5,350.5 C 477.128,354.297 475.794,357.63 473.5,360.5C 474.263,356.863 475.597,353.53 477.5,350.5 Z"/></g>
<g><path style="opacity:0.478" fill="#047857" d="M 393.5,357.5 C 391.761,360.243 389.427,362.243 386.5,363.5C 388.239,360.757 390.573,358.757 393.5,357.5 Z"/></g>
<g><path style="opacity:0.549" fill="#047857" d="M 386.5,363.5 C 386.027,364.906 385.027,365.573 383.5,365.5C 383.973,364.094 384.973,363.427 386.5,363.5 Z"/></g>
<g><path style="opacity:0.502" fill="#047857" d="M 383.5,365.5 C 383.027,366.906 382.027,367.573 380.5,367.5C 380.973,366.094 381.973,365.427 383.5,365.5 Z"/></g>
<g><path style="opacity:0.133" fill="#047857" d="M 378.5,368.5 C 377.341,370.25 375.674,371.25 373.5,371.5C 374.659,369.75 376.326,368.75 378.5,368.5 Z"/></g>
<g><path style="opacity:0.133" fill="#047857" d="M 468.5,370.5 C 468.25,372.674 467.25,374.341 465.5,375.5C 465.75,373.326 466.75,371.659 468.5,370.5 Z"/></g>
<g><path style="opacity:0.561" fill="#047857" d="M 363.5,375.5 C 361.898,377.074 359.898,377.741 357.5,377.5C 359.214,376.262 361.214,375.595 363.5,375.5 Z"/></g>
<g><path style="opacity:0.129" fill="#047857" d="M 465.5,375.5 C 465.573,377.027 464.906,378.027 463.5,378.5C 463.427,376.973 464.094,375.973 465.5,375.5 Z"/></g>
<g><path style="opacity:0.337" fill="#047857" d="M 357.5,377.5 C 354.456,379.011 351.122,379.678 347.5,379.5C 350.589,378.215 353.922,377.549 357.5,377.5 Z"/></g>
<g><path style="opacity:0.404" fill="#047857" d="M 346.5,379.5 C 343.713,380.477 340.713,380.81 337.5,380.5C 337.5,402.833 337.5,425.167 337.5,447.5C 342.5,447.5 347.5,447.5 352.5,447.5C 347.36,448.488 342.026,448.821 336.5,448.5C 336.5,425.5 336.5,402.5 336.5,379.5C 339.833,379.5 343.167,379.5 346.5,379.5 Z"/></g>
<g><path style="opacity:0.024" fill="#047857" d="M 459.5,384.5 C 459.573,386.027 458.906,387.027 457.5,387.5C 457.427,385.973 458.094,384.973 459.5,384.5 Z"/></g>
<g><path style="opacity:0.027" fill="#047857" d="M 456.5,388.5 C 456.573,390.027 455.906,391.027 454.5,391.5C 454.427,389.973 455.094,388.973 456.5,388.5 Z"/></g>
<g><path style="opacity:0.016" fill="#047857" d="M 452.5,393.5 C 452.262,395.404 451.262,396.738 449.5,397.5C 449.738,395.596 450.738,394.262 452.5,393.5 Z"/></g>
<g><path style="opacity:0.004" fill="#047857" d="M 446.5,400.5 C 446.5,401.833 445.833,402.5 444.5,402.5C 444.833,401.5 445.5,400.833 446.5,400.5 Z"/></g>
<g><path style="opacity:0.004" fill="#047857" d="M 444.5,402.5 C 443.833,405.167 442.167,406.833 439.5,407.5C 440.833,405.5 442.5,403.833 444.5,402.5 Z"/></g>
<g><path style="opacity:0.027" fill="#047857" d="M 435.5,411.5 C 434.738,413.262 433.404,414.262 431.5,414.5C 432.262,412.738 433.596,411.738 435.5,411.5 Z"/></g>
<g><path style="opacity:0.004" fill="#047857" d="M 429.5,416.5 C 429.027,417.906 428.027,418.573 426.5,418.5C 426.973,417.094 427.973,416.427 429.5,416.5 Z"/></g>
<g><path style="opacity:0.004" fill="#047857" d="M 419.5,423.5 C 419.027,424.906 418.027,425.573 416.5,425.5C 416.973,424.094 417.973,423.427 419.5,423.5 Z"/></g>
<g><path style="opacity:0.004" fill="#047857" d="M 414.5,426.5 C 414.027,427.906 413.027,428.573 411.5,428.5C 411.973,427.094 412.973,426.427 414.5,426.5 Z"/></g>
<g><path style="opacity:0.149" fill="#047857" d="M 397.5,435.5 C 396.22,436.931 394.553,437.598 392.5,437.5C 393.78,436.069 395.447,435.402 397.5,435.5 Z"/></g>
<g><path style="opacity:0.051" fill="#047857" d="M 392.5,437.5 C 388.201,439.935 383.534,441.602 378.5,442.5C 382.799,440.065 387.466,438.398 392.5,437.5 Z"/></g>
<g><path style="opacity:0.098" fill="#047857" d="M 370.5,444.5 C 365.449,446.344 360.116,447.344 354.5,447.5C 359.551,445.656 364.884,444.656 370.5,444.5 Z"/></g>
</svg>
