<?xml version="1.0" encoding="UTF-8"?>
<!DOCTYPE svg PUBLIC "-//W3C//DTD SVG 1.1//EN" "http://www.w3.org/Graphics/SVG/1.1/DTD/svg11.dtd">
<svg xmlns="http://www.w3.org/2000/svg" version="1.1" width="445px" height="227px" style="shape-rendering:geometricPrecision; text-rendering:geometricPrecision; image-rendering:optimizeQuality; fill-rule:evenodd; clip-rule:evenodd" xmlns:xlink="http://www.w3.org/1999/xlink">
<g><path style="opacity:0.141" fill="#047857" d="M 381.5,7.5 C 382.833,8.16667 382.833,8.16667 381.5,7.5 Z"/></g>
<g><path style="opacity:0.149" fill="#047857" d="M 434.5,8.5 C 434.639,6.66298 435.306,6.32964 436.5,7.5C 436.043,8.29755 435.376,8.63088 434.5,8.5 Z"/></g>
<g><path style="opacity:1" fill="#047857" d="M 329.5,10.5 C 329.5,9.83333 329.167,9.5 328.5,9.5C 329.665,7.58393 331.332,6.75059 333.5,7C 332.616,8.71978 331.283,9.88645 329.5,10.5 Z"/></g>
<g><path style="opacity:0.741" fill="#047857" d="M 432.5,9.5 C 432.842,8.66175 433.508,8.32842 434.5,8.5C 434.158,9.33825 433.492,9.67158 432.5,9.5 Z"/></g>
<g><path style="opacity:1" fill="#047857" d="M 381.5,8.5 C 370.103,18.9037 358.436,28.9037 346.5,38.5C 348.323,35.8367 349.323,32.8367 349.5,29.5C 347.181,28.833 344.847,28.6664 342.5,29C 346.285,34.0449 345.619,34.5449 340.5,30.5C 338.929,31.3094 337.262,31.6427 335.5,31.5C 350.358,22.9983 365.691,15.3317 381.5,8.5 Z"/></g>
<g><path style="opacity:1" fill="#047857" d="M 256.5,22.5 C 254.266,22.3801 252.099,22.7135 250,23.5C 246.724,21.7727 243.224,21.106 239.5,21.5C 239.322,25.1021 238.322,25.1021 236.5,21.5C 237.016,22.7582 236.35,23.7582 234.5,24.5C 233.05,23.1502 232.383,21.4835 232.5,19.5C 234.527,19.6621 236.527,19.4955 238.5,19C 236.19,18.5034 233.857,18.3367 231.5,18.5C 231.5,19.5 231.5,20.5 231.5,21.5C 224.58,20.211 217.58,19.3777 210.5,19C 208.765,17.0155 207.432,17.3488 206.5,20C 210.564,22.8806 209.897,24.214 204.5,24C 203.167,24.6667 203.167,25.3333 204.5,26C 211.826,26.4997 219.159,26.6663 226.5,26.5C 226.5,26.8333 226.5,27.1667 226.5,27.5C 219.167,27.5 211.833,27.5 204.5,27.5C 201.884,26.0855 199.884,26.7522 198.5,29.5C 194.521,30.4969 190.521,31.4969 186.5,32.5C 185.376,30.269 184.876,27.9357 185,25.5C 186.44,23.9544 188.273,23.121 190.5,23C 187.653,22.0561 185.153,22.5561 183,24.5C 182.329,23.7476 181.496,23.4142 180.5,23.5C 205.72,13.2668 231.053,12.9334 256.5,22.5 Z"/></g>
<g><path style="opacity:1" fill="#047857" d="M 256.5,22.5 C 258.703,22.6036 260.703,23.2702 262.5,24.5C 262.5,24.8333 262.5,25.1667 262.5,25.5C 260.856,25.7135 259.356,25.3802 258,24.5C 257.015,27.5847 254.848,29.0847 251.5,29C 251.833,29.3333 252.167,29.6667 252.5,30C 248.457,30.6697 244.624,31.8364 241,33.5C 239.5,33 238,32.5 236.5,32C 239.401,30.6864 242.401,29.5197 245.5,28.5C 239.505,27.0118 233.172,26.3451 226.5,26.5C 219.159,26.6663 211.826,26.4997 204.5,26C 203.167,25.3333 203.167,24.6667 204.5,24C 209.897,24.214 210.564,22.8806 206.5,20C 207.432,17.3488 208.765,17.0155 210.5,19C 217.58,19.3777 224.58,20.211 231.5,21.5C 231.5,20.5 231.5,19.5 231.5,18.5C 233.857,18.3367 236.19,18.5034 238.5,19C 236.527,19.4955 234.527,19.6621 232.5,19.5C 232.383,21.4835 233.05,23.1502 234.5,24.5C 236.35,23.7582 237.016,22.7582 236.5,21.5C 238.322,25.1021 239.322,25.1021 239.5,21.5C 243.224,21.106 246.724,21.7727 250,23.5C 252.099,22.7135 254.266,22.3801 256.5,22.5 Z"/></g>
<g><path style="opacity:1" fill="#047857" d="M 186.5,32.5 C 173.736,38.6168 162.403,46.6168 152.5,56.5C 151.417,56.4606 150.417,56.1272 149.5,55.5C 148.896,58.8457 147.063,59.179 144,56.5C 142.69,58.1322 142.19,59.7988 142.5,61.5C 141.618,60.2402 140.618,59.0736 139.5,58C 139.833,57.6667 140.167,57.3333 140.5,57C 139.216,56.3162 138.049,56.4829 137,57.5C 136.612,54.4598 137.778,53.4598 140.5,54.5C 141.466,52.604 141.799,50.604 141.5,48.5C 152.126,36.5552 165.126,28.2219 180.5,23.5C 181.496,23.4142 182.329,23.7476 183,24.5C 185.153,22.5561 187.653,22.0561 190.5,23C 188.273,23.121 186.44,23.9544 185,25.5C 184.876,27.9357 185.376,30.269 186.5,32.5 Z"/></g>
<g><path style="opacity:1" fill="#047857" d="M 328.5,9.5 C 329.167,9.5 329.5,9.83333 329.5,10.5C 319.882,20.4528 310.216,30.4528 300.5,40.5C 300.328,38.5082 300.995,36.8415 302.5,35.5C 301.496,33.3227 302.162,32.9893 304.5,34.5C 305.531,31.3 307.198,28.4667 309.5,26C 306.477,26.792 303.477,27.9587 300.5,29.5C 299.353,29.1822 298.519,28.5156 298,27.5C 297.086,28.6537 296.253,28.487 295.5,27C 296.167,26.6667 296.833,26.3333 297.5,26C 296.584,25.7216 295.918,25.2216 295.5,24.5C 305.842,18.1857 316.842,13.1857 328.5,9.5 Z"/></g>
<g><path style="opacity:1" fill="#047857" d="M 262.5,25.5 C 262.5,25.1667 262.5,24.8333 262.5,24.5C 265.645,25.5739 268.645,26.9073 271.5,28.5C 267.965,28.8684 264.965,27.8684 262.5,25.5 Z"/></g>
<g><path style="opacity:1" fill="#047857" d="M 204.5,27.5 C 202.786,28.7384 200.786,29.405 198.5,29.5C 199.884,26.7522 201.884,26.0855 204.5,27.5 Z"/></g>
<g><path style="opacity:1" fill="#047857" d="M 295.5,24.5 C 295.918,25.2216 296.584,25.7216 297.5,26C 296.833,26.3333 296.167,26.6667 295.5,27C 296.253,28.487 297.086,28.6537 298,27.5C 298.519,28.5156 299.353,29.1822 300.5,29.5C 303.477,27.9587 306.477,26.792 309.5,26C 307.198,28.4667 305.531,31.3 304.5,34.5C 302.162,32.9893 301.496,33.3227 302.5,35.5C 300.995,36.8415 300.328,38.5082 300.5,40.5C 298.734,42.7706 296.734,44.9373 294.5,47C 282.479,53.274 270.479,59.4406 258.5,65.5C 257.25,65.4226 256.417,64.756 256,63.5C 253.159,65.5037 249.993,66.0037 246.5,65C 247.167,64.6667 247.833,64.3333 248.5,64C 247.62,62.6439 247.286,61.1439 247.5,59.5C 246.209,59.7373 245.209,59.404 244.5,58.5C 254.371,50.0267 264.371,41.5267 274.5,33C 281.321,29.5848 288.321,26.7515 295.5,24.5 Z"/></g>
<g><path style="opacity:1" fill="#047857" d="M 262.5,25.5 C 264.965,27.8684 267.965,28.8684 271.5,28.5C 272.043,28.56 272.376,28.8933 272.5,29.5C 266.047,33.2919 259.381,36.6252 252.5,39.5C 247.24,39.699 243.073,39.0324 240,37.5C 237.5,39.3333 235,41.1667 232.5,43C 230.833,43.6667 229.167,43.6667 227.5,43C 228.938,42.7811 230.271,42.2811 231.5,41.5C 229.994,40.2528 228.494,40.2528 227,41.5C 226.075,40.9535 225.242,40.2868 224.5,39.5C 225.953,37.8152 227.286,36.1486 228.5,34.5C 231.099,32.5207 233.765,30.5207 236.5,28.5C 233.232,27.513 229.898,27.1796 226.5,27.5C 226.5,27.1667 226.5,26.8333 226.5,26.5C 233.172,26.3451 239.505,27.0118 245.5,28.5C 242.401,29.5197 239.401,30.6864 236.5,32C 238,32.5 239.5,33 241,33.5C 244.624,31.8364 248.457,30.6697 252.5,30C 252.167,29.6667 251.833,29.3333 251.5,29C 254.848,29.0847 257.015,27.5847 258,24.5C 259.356,25.3802 260.856,25.7135 262.5,25.5 Z"/></g>
<g><path style="opacity:1" fill="#047857" d="M 346.5,38.5 C 341.124,43.5443 335.458,48.211 329.5,52.5C 328.562,49.3646 329.229,46.5313 331.5,44C 331,43.8333 330.5,43.6667 330,43.5C 326.714,45.5971 323.214,45.9305 319.5,44.5C 320.025,43.8076 320.692,43.3076 321.5,43C 321,42.8333 320.5,42.6667 320,42.5C 316.255,45.2395 312.255,47.5728 308,49.5C 304.832,50.1566 301.999,50.1566 299.5,49.5C 311.182,42.9921 323.182,36.9921 335.5,31.5C 337.262,31.6427 338.929,31.3094 340.5,30.5C 345.619,34.5449 346.285,34.0449 342.5,29C 344.847,28.6664 347.181,28.833 349.5,29.5C 349.323,32.8367 348.323,35.8367 346.5,38.5 Z"/></g>
<g><path style="opacity:1" fill="#047857" d="M 228.5,34.5 C 227.286,36.1486 225.953,37.8152 224.5,39.5C 225.242,40.2868 226.075,40.9535 227,41.5C 228.494,40.2528 229.994,40.2528 231.5,41.5C 230.271,42.2811 228.938,42.7811 227.5,43C 229.167,43.6667 230.833,43.6667 232.5,43C 235,41.1667 237.5,39.3333 240,37.5C 243.073,39.0324 247.24,39.699 252.5,39.5C 235.859,49.0568 218.859,58.0568 201.5,66.5C 202.082,65.0689 202.915,63.7356 204,62.5C 204.333,62.8333 204.667,63.1667 205,63.5C 205.483,62.552 205.649,61.552 205.5,60.5C 208.887,59.9819 212.221,59.1486 215.5,58C 213.275,57.4389 211.275,56.4389 209.5,55C 208.167,54 208.167,53 209.5,52C 207.893,52.0187 206.226,52.1854 204.5,52.5C 212.193,46.1467 220.193,40.1467 228.5,34.5 Z"/></g>
<g><path style="opacity:1" fill="#047857" d="M 432.5,9.5 C 431.352,11.755 429.686,13.5883 427.5,15C 409.251,28.6113 391.251,42.4446 373.5,56.5C 373.67,55.1779 373.337,54.0113 372.5,53C 373.91,52.6322 374.91,51.7989 375.5,50.5C 374.147,49.3147 372.98,47.9814 372,46.5C 368.999,47.8984 365.499,48.8984 361.5,49.5C 384.714,35.3922 408.381,22.0589 432.5,9.5 Z"/></g>
<g><path style="opacity:1" fill="#047857" d="M 329.5,52.5 C 324.284,57.3767 318.95,62.21 313.5,67C 314.219,69.6171 315.553,71.7838 317.5,73.5C 316.766,74.7079 316.433,76.0413 316.5,77.5C 312.965,78.1909 310.465,80.1909 309,83.5C 308.056,82.737 307.556,81.737 307.5,80.5C 309.595,74.9297 307.929,70.9297 302.5,68.5C 301.738,69.6283 301.071,70.7949 300.5,72C 302.113,74.2276 302.78,76.7276 302.5,79.5C 300.993,77.7106 299.66,75.7106 298.5,73.5C 293.468,77.0166 288.135,80.0166 282.5,82.5C 282.351,81.448 282.517,80.448 283,79.5C 283.333,79.8333 283.667,80.1667 284,80.5C 284.71,79.0267 285.876,78.3601 287.5,78.5C 287.286,76.8561 287.62,75.3561 288.5,74C 284.446,72.0588 284.78,71.2254 289.5,71.5C 289.248,74.9318 290.581,75.9318 293.5,74.5C 291.8,72.9324 290.466,71.099 289.5,69C 289.833,68.6667 290.167,68.3333 290.5,68C 289.5,67.5 288.5,67 287.5,66.5C 286.304,66.8457 286.304,67.3457 287.5,68C 285.697,68.6368 284.364,69.8035 283.5,71.5C 282.914,71.2907 282.414,70.9574 282,70.5C 279.257,72.9027 276.924,75.5693 275,78.5C 273.13,76.7811 270.963,75.7811 268.5,75.5C 278.269,66.1219 288.602,57.4552 299.5,49.5C 301.999,50.1566 304.832,50.1566 308,49.5C 312.255,47.5728 316.255,45.2395 320,42.5C 320.5,42.6667 321,42.8333 321.5,43C 320.692,43.3076 320.025,43.8076 319.5,44.5C 323.214,45.9305 326.714,45.5971 330,43.5C 330.5,43.6667 331,43.8333 331.5,44C 329.229,46.5313 328.562,49.3646 329.5,52.5 Z"/></g>
<g><path style="opacity:1" fill="#047857" d="M 373.5,56.5 C 365.497,62.5187 357.497,68.5187 349.5,74.5C 347.533,74.2606 345.699,74.5939 344,75.5C 344.661,73.9652 344.994,72.2985 345,70.5C 343.601,69.7734 342.101,69.2734 340.5,69C 339.663,67.9887 339.33,66.8221 339.5,65.5C 336.001,65.741 335.668,64.9076 338.5,63C 340.402,62.8008 341.902,61.9675 343,60.5C 344.011,61.3366 345.178,61.67 346.5,61.5C 346.5,60.1667 346.5,58.8333 346.5,57.5C 351.307,54.595 356.307,51.9283 361.5,49.5C 365.499,48.8984 368.999,47.8984 372,46.5C 372.98,47.9814 374.147,49.3147 375.5,50.5C 374.91,51.7989 373.91,52.6322 372.5,53C 373.337,54.0113 373.67,55.1779 373.5,56.5 Z"/></g>
<g><path style="opacity:1" fill="#047857" d="M 201.5,66.5 C 191.194,72.6554 180.527,78.3221 169.5,83.5C 167.517,83.8432 166.183,83.1765 165.5,81.5C 178.224,71.4398 191.224,61.7732 204.5,52.5C 206.226,52.1854 207.893,52.0187 209.5,52C 208.167,53 208.167,54 209.5,55C 211.275,56.4389 213.275,57.4389 215.5,58C 212.221,59.1486 208.887,59.9819 205.5,60.5C 205.649,61.552 205.483,62.552 205,63.5C 204.667,63.1667 204.333,62.8333 204,62.5C 202.915,63.7356 202.082,65.0689 201.5,66.5 Z"/></g>
<g><path style="opacity:1" fill="#047857" d="M 244.5,58.5 C 245.209,59.404 246.209,59.7373 247.5,59.5C 247.286,61.1439 247.62,62.6439 248.5,64C 247.833,64.3333 247.167,64.6667 246.5,65C 249.993,66.0037 253.159,65.5037 256,63.5C 256.417,64.756 257.25,65.4226 258.5,65.5C 243.069,75.0984 227.069,83.7651 210.5,91.5C 209.022,91.762 207.689,91.4287 206.5,90.5C 208.288,89.7174 209.288,88.3841 209.5,86.5C 220.814,76.8659 232.481,67.5326 244.5,58.5 Z"/></g>
<g><path style="opacity:1" fill="#047857" d="M 141.5,48.5 C 141.799,50.604 141.466,52.604 140.5,54.5C 137.778,53.4598 136.612,54.4598 137,57.5C 138.049,56.4829 139.216,56.3162 140.5,57C 140.167,57.3333 139.833,57.6667 139.5,58C 140.618,59.0736 141.618,60.2402 142.5,61.5C 142.19,59.7988 142.69,58.1322 144,56.5C 147.063,59.179 148.896,58.8457 149.5,55.5C 150.417,56.1272 151.417,56.4606 152.5,56.5C 147.709,61.972 143.542,67.972 140,74.5C 136.785,81.4796 133.952,88.4796 131.5,95.5C 130.522,95.189 129.855,94.5223 129.5,93.5C 135.062,87.9379 134.729,82.7712 128.5,78C 131.2,74.7389 130.7,71.9056 127,69.5C 126.617,70.056 126.117,70.3893 125.5,70.5C 126.352,67.7766 127.519,65.11 129,62.5C 132.949,57.5723 137.116,52.9057 141.5,48.5 Z"/></g>
<g><path style="opacity:1" fill="#047857" d="M 346.5,57.5 C 346.5,58.8333 346.5,60.1667 346.5,61.5C 345.178,61.67 344.011,61.3366 343,60.5C 341.902,61.9675 340.402,62.8008 338.5,63C 335.668,64.9076 336.001,65.741 339.5,65.5C 339.33,66.8221 339.663,67.9887 340.5,69C 342.101,69.2734 343.601,69.7734 345,70.5C 344.994,72.2985 344.661,73.9652 344,75.5C 345.699,74.5939 347.533,74.2606 349.5,74.5C 345.319,77.7627 341.319,81.2627 337.5,85C 335.922,86.0945 334.255,86.9278 332.5,87.5C 332.884,85.3352 332.217,83.6685 330.5,82.5C 329.614,83.325 329.281,84.325 329.5,85.5C 325.674,84.3445 322.341,82.3445 319.5,79.5C 318.624,79.6309 317.957,79.2975 317.5,78.5C 319.26,75.9788 321.593,75.1455 324.5,76C 320.809,78.731 321.476,80.0644 326.5,80C 326.043,79.586 325.709,79.086 325.5,78.5C 328.353,77.8094 330.853,76.4761 333,74.5C 332.981,72.8925 332.815,71.2259 332.5,69.5C 335.263,69.7438 337.429,71.0771 339,73.5C 339.5,73 340,72.5 340.5,72C 338.772,70.0544 336.939,68.221 335,66.5C 332.246,67.3352 329.746,68.6685 327.5,70.5C 330.167,71.5 330.167,72.5 327.5,73.5C 326.749,72.624 326.249,71.624 326,70.5C 324.644,71.3802 323.144,71.7135 321.5,71.5C 329.757,66.8445 338.091,62.1778 346.5,57.5 Z"/></g>
<g><path style="opacity:1" fill="#047857" d="M 319.5,79.5 C 320.077,83.0798 319.077,86.0798 316.5,88.5C 317.12,91.2778 317.453,94.1111 317.5,97C 317.68,102.083 316.846,106.916 315,111.5C 313.951,112.517 312.784,112.684 311.5,112C 310.915,110.698 310.249,109.531 309.5,108.5C 308.575,98.4683 306.242,88.8016 302.5,79.5C 302.78,76.7276 302.113,74.2276 300.5,72C 301.071,70.7949 301.738,69.6283 302.5,68.5C 307.929,70.9297 309.595,74.9297 307.5,80.5C 307.556,81.737 308.056,82.737 309,83.5C 310.465,80.1909 312.965,78.1909 316.5,77.5C 316.433,76.0413 316.766,74.7079 317.5,73.5C 319.062,73.2671 320.395,72.6005 321.5,71.5C 323.144,71.7135 324.644,71.3802 326,70.5C 326.249,71.624 326.749,72.624 327.5,73.5C 330.167,72.5 330.167,71.5 327.5,70.5C 329.746,68.6685 332.246,67.3352 335,66.5C 336.939,68.221 338.772,70.0544 340.5,72C 340,72.5 339.5,73 339,73.5C 337.429,71.0771 335.263,69.7438 332.5,69.5C 332.815,71.2259 332.981,72.8925 333,74.5C 330.853,76.4761 328.353,77.8094 325.5,78.5C 325.709,79.086 326.043,79.586 326.5,80C 321.476,80.0644 320.809,78.731 324.5,76C 321.593,75.1455 319.26,75.9788 317.5,78.5C 317.957,79.2975 318.624,79.6309 319.5,79.5 Z"/></g>
<g><path style="opacity:1" fill="#047857" d="M 319.5,79.5 C 322.341,82.3445 325.674,84.3445 329.5,85.5C 329.281,84.325 329.614,83.325 330.5,82.5C 332.217,83.6685 332.884,85.3352 332.5,87.5C 330.065,90.2229 327.398,92.7229 324.5,95C 329.321,115.638 327.821,135.804 320,155.5C 318.763,158.448 317.263,161.115 315.5,163.5C 313.753,163.593 311.919,163.926 310,164.5C 308.813,166.044 308.48,167.711 309,169.5C 310.087,167.068 310.587,167.402 310.5,170.5C 309.5,170.5 308.5,170.5 307.5,170.5C 307.719,171.675 307.386,172.675 306.5,173.5C 305.52,172.019 304.353,170.685 303,169.5C 302.167,170.5 301.333,171.5 300.5,172.5C 300.167,172.167 299.833,171.833 299.5,171.5C 301.153,168.194 302.82,164.861 304.5,161.5C 305.665,160.416 306.998,159.583 308.5,159C 308.167,158.667 307.833,158.333 307.5,158C 308.428,157.612 309.095,156.945 309.5,156C 308.576,154.85 308.576,153.85 309.5,153C 307.543,150.879 307.043,148.379 308,145.5C 308.333,144.167 308.667,142.833 309,141.5C 310.905,140.842 312.405,139.675 313.5,138C 312.304,136.636 311.304,135.136 310.5,133.5C 311.366,132.149 312.366,131.316 313.5,131C 313.2,128.976 312.367,128.476 311,129.5C 310.502,126.183 310.335,122.85 310.5,119.5C 309.942,116.156 309.609,112.489 309.5,108.5C 310.249,109.531 310.915,110.698 311.5,112C 312.784,112.684 313.951,112.517 315,111.5C 316.846,106.916 317.68,102.083 317.5,97C 317.453,94.1111 317.12,91.2778 316.5,88.5C 319.077,86.0798 320.077,83.0798 319.5,79.5 Z"/></g>
<g><path style="opacity:1" fill="#047857" d="M 282.5,82.5 C 275.012,86.8819 267.345,90.8819 259.5,94.5C 256.788,94.7375 254.288,94.7375 252,94.5C 251.51,95.7932 251.343,97.1266 251.5,98.5C 250.167,98.5 248.833,98.5 247.5,98.5C 247.704,96.3146 248.37,94.3146 249.5,92.5C 255.561,86.434 261.894,80.7673 268.5,75.5C 270.963,75.7811 273.13,76.7811 275,78.5C 276.924,75.5693 279.257,72.9027 282,70.5C 282.414,70.9574 282.914,71.2907 283.5,71.5C 284.364,69.8035 285.697,68.6368 287.5,68C 286.304,67.3457 286.304,66.8457 287.5,66.5C 288.5,67 289.5,67.5 290.5,68C 290.167,68.3333 289.833,68.6667 289.5,69C 290.466,71.099 291.8,72.9324 293.5,74.5C 290.581,75.9318 289.248,74.9318 289.5,71.5C 284.78,71.2254 284.446,72.0588 288.5,74C 287.62,75.3561 287.286,76.8561 287.5,78.5C 285.876,78.3601 284.71,79.0267 284,80.5C 283.667,80.1667 283.333,79.8333 283,79.5C 282.517,80.448 282.351,81.448 282.5,82.5 Z"/></g>
<g><path style="opacity:1" fill="#047857" d="M 165.5,81.5 C 166.183,83.1765 167.517,83.8432 169.5,83.5C 163.163,87.3965 156.496,90.7299 149.5,93.5C 154.527,89.1467 159.86,85.1467 165.5,81.5 Z"/></g>
<g><path style="opacity:0.976" fill="#047857" d="M 209.5,86.5 C 209.288,88.3841 208.288,89.7174 206.5,90.5C 207.689,91.4287 209.022,91.762 210.5,91.5C 203.938,95.9481 196.938,99.6147 189.5,102.5C 195.869,96.7986 202.535,91.4652 209.5,86.5 Z"/></g>
<g><path style="opacity:0.125" fill="#047857" d="M 149.5,93.5 C 148.998,95.0847 147.998,95.5847 146.5,95C 147.244,93.9614 148.244,93.4614 149.5,93.5 Z"/></g>
<g><path style="opacity:1" fill="#047857" d="M 249.5,92.5 C 248.37,94.3146 247.704,96.3146 247.5,98.5C 248.833,98.5 250.167,98.5 251.5,98.5C 251.343,97.1266 251.51,95.7932 252,94.5C 254.288,94.7375 256.788,94.7375 259.5,94.5C 249.156,100.673 238.489,106.34 227.5,111.5C 234.833,105.167 242.167,98.8333 249.5,92.5 Z"/></g>
<g><path style="opacity:1" fill="#047857" d="M 131.5,95.5 C 131.5,96.8333 131.5,98.1667 131.5,99.5C 129.735,102.123 129.068,105.123 129.5,108.5C 128.674,112.982 128.174,117.649 128,122.5C 127.164,119.059 126.331,118.892 125.5,122C 125.755,123.326 126.422,124.326 127.5,125C 126.833,125.333 126.167,125.667 125.5,126C 127.612,126.906 128.445,128.406 128,130.5C 127.667,130.167 127.333,129.833 127,129.5C 126.517,130.448 126.351,131.448 126.5,132.5C 125.448,132.351 124.448,132.517 123.5,133C 124.672,133.419 125.672,134.085 126.5,135C 122.624,136.297 121.291,138.797 122.5,142.5C 120.604,143.466 118.604,143.799 116.5,143.5C 116.62,141.801 116.954,140.135 117.5,138.5C 117.132,137.09 116.299,136.09 115,135.5C 114.167,123.486 114.334,111.486 115.5,99.5C 116.5,99 117.5,98.5 118.5,98C 116.808,96.5993 116.141,94.7659 116.5,92.5C 117.571,84.2662 120.571,76.9329 125.5,70.5C 126.117,70.3893 126.617,70.056 127,69.5C 130.7,71.9056 131.2,74.7389 128.5,78C 134.729,82.7712 135.062,87.9379 129.5,93.5C 129.855,94.5223 130.522,95.189 131.5,95.5 Z"/></g>
<g><path style="opacity:1" fill="#047857" d="M 131.5,99.5 C 131.142,102.689 130.475,105.689 129.5,108.5C 129.068,105.123 129.735,102.123 131.5,99.5 Z"/></g>
<g><path style="opacity:0.125" fill="#047857" d="M 189.5,102.5 C 189.483,104.028 188.816,104.528 187.5,104C 188.044,103.283 188.711,102.783 189.5,102.5 Z"/></g>
<g><path style="opacity:0.114" fill="#047857" d="M 227.5,111.5 C 226.833,112.167 226.833,112.167 227.5,111.5 Z"/></g>
<g><path style="opacity:0.339" fill="#047857" d="M 209.5,123.5 C 210.002,121.915 211.002,121.415 212.5,122C 211.756,123.039 210.756,123.539 209.5,123.5 Z"/></g>
<g><path style="opacity:0.357" fill="#047857" d="M 250.5,131.5 C 250.75,130.078 251.583,129.078 253,128.5C 253.519,130.489 252.686,131.489 250.5,131.5 Z"/></g>
<g><path style="opacity:1" fill="#047857" d="M 116.5,92.5 C 116.141,94.7659 116.808,96.5993 118.5,98C 117.5,98.5 116.5,99 115.5,99.5C 114.334,111.486 114.167,123.486 115,135.5C 116.299,136.09 117.132,137.09 117.5,138.5C 116.954,140.135 116.62,141.801 116.5,143.5C 118.604,143.799 120.604,143.466 122.5,142.5C 121.291,138.797 122.624,136.297 126.5,135C 125.672,134.085 124.672,133.419 123.5,133C 124.448,132.517 125.448,132.351 126.5,132.5C 126.351,131.448 126.517,130.448 127,129.5C 127.333,129.833 127.667,130.167 128,130.5C 128.445,128.406 127.612,126.906 125.5,126C 126.167,125.667 126.833,125.333 127.5,125C 126.422,124.326 125.755,123.326 125.5,122C 126.331,118.892 127.164,119.059 128,122.5C 128.174,117.649 128.674,112.982 129.5,108.5C 128.672,125.551 131.505,141.885 138,157.5C 138.908,159.439 140.408,160.439 142.5,160.5C 144.017,160.511 145.184,161.177 146,162.5C 146.49,161.207 146.657,159.873 146.5,158.5C 148.167,158.5 149.833,158.5 151.5,158.5C 151.5,159.833 151.5,161.167 151.5,162.5C 150.127,162.343 148.793,162.51 147.5,163C 149.461,165.635 151.961,167.469 155,168.5C 155.483,169.448 155.649,170.448 155.5,171.5C 153.473,171.338 151.473,171.505 149.5,172C 151.063,172.759 152.063,173.926 152.5,175.5C 149.089,178.407 145.755,181.574 142.5,185C 129.225,191.803 115.891,198.303 102.5,204.5C 99.9759,204.571 97.9759,203.571 96.5,201.5C 93.5735,203.816 93.9068,205.316 97.5,206C 94.9549,206.615 92.6215,206.115 90.5,204.5C 91.0253,203.808 91.6919,203.308 92.5,203C 90.5946,202.174 90.2612,201.007 91.5,199.5C 93.3918,196.956 95.2252,196.956 97,199.5C 97.484,197.807 96.984,196.473 95.5,195.5C 105.156,186.353 115.323,177.686 126,169.5C 125.537,166.23 124.204,163.23 122,160.5C 118.473,163.179 114.64,165.179 110.5,166.5C 109.097,163.924 107.097,161.757 104.5,160C 106.488,159.82 108.488,159.986 110.5,160.5C 110.5,159.5 110.5,158.5 110.5,157.5C 107.973,156.483 105.473,156.483 103,157.5C 101.667,156.833 100.333,156.167 99,155.5C 97.2874,156.137 97.1207,157.137 98.5,158.5C 97.2713,159.281 95.938,159.781 94.5,160C 94.8333,160.333 95.1667,160.667 95.5,161C 92.763,162.612 91.9297,164.778 93,167.5C 91.8118,166.437 91.3118,165.103 91.5,163.5C 90.1667,163.5 88.8333,163.5 87.5,163.5C 87.4142,162.504 87.7476,161.671 88.5,161C 97.5839,155.248 106.084,148.748 114,141.5C 112.17,127.204 112.17,112.871 114,98.5C 114.24,96.1484 115.073,94.1484 116.5,92.5 Z"/></g>
<g><path style="opacity:0.114" fill="#047857" d="M 291.5,138.5 C 292.833,139.167 292.833,139.167 291.5,138.5 Z"/></g>
<g><path style="opacity:0.322" fill="#047857" d="M 289.5,140.5 C 289.842,139.662 290.508,139.328 291.5,139.5C 291.158,140.338 290.492,140.672 289.5,140.5 Z"/></g>
<g><path style="opacity:1" fill="#047857" d="M 209.5,123.5 C 190.851,141.146 171.851,158.479 152.5,175.5C 152.063,173.926 151.063,172.759 149.5,172C 151.473,171.505 153.473,171.338 155.5,171.5C 155.649,170.448 155.483,169.448 155,168.5C 151.961,167.469 149.461,165.635 147.5,163C 148.793,162.51 150.127,162.343 151.5,162.5C 151.5,161.167 151.5,159.833 151.5,158.5C 149.833,158.5 148.167,158.5 146.5,158.5C 146.657,159.873 146.49,161.207 146,162.5C 145.184,161.177 144.017,160.511 142.5,160.5C 142.953,159.542 143.619,158.708 144.5,158C 156.99,152.168 168.99,145.502 180.5,138C 190.104,132.859 199.771,128.026 209.5,123.5 Z"/></g>
<g><path style="opacity:1" fill="#047857" d="M 250.5,131.5 C 230.672,148.896 210.339,165.563 189.5,181.5C 189.5,179.833 189.5,178.167 189.5,176.5C 191.167,176.5 192.833,176.5 194.5,176.5C 194.5,175.5 194.5,174.5 194.5,173.5C 192.058,173.646 191.391,172.813 192.5,171C 190.765,170.349 189.098,170.515 187.5,171.5C 186.784,170.689 185.95,170.022 185,169.5C 183.233,170.34 181.899,171.673 181,173.5C 180.667,173.167 180.333,172.833 180,172.5C 175.602,174.275 171.102,175.942 166.5,177.5C 191.492,163.337 216.492,149.17 241.5,135C 244.562,133.795 247.562,132.628 250.5,131.5 Z"/></g>
<g><path style="opacity:1" fill="#047857" d="M 110.5,166.5 C 101.998,172.588 92.9983,177.921 83.5,182.5C 81.1432,182.337 78.8098,182.503 76.5,183C 75.1667,183.667 75.1667,184.333 76.5,185C 74.8659,185.494 73.1992,185.66 71.5,185.5C 71.5,186.5 71.5,187.5 71.5,188.5C 65.9334,189.247 64.1,186.913 66,181.5C 67.0975,180.033 68.5975,179.199 70.5,179C 69.7476,178.329 69.4142,177.496 69.5,176.5C 74.9496,171.381 80.9496,167.047 87.5,163.5C 88.8333,163.5 90.1667,163.5 91.5,163.5C 91.3118,165.103 91.8118,166.437 93,167.5C 91.9297,164.778 92.763,162.612 95.5,161C 95.1667,160.667 94.8333,160.333 94.5,160C 95.938,159.781 97.2713,159.281 98.5,158.5C 97.1207,157.137 97.2874,156.137 99,155.5C 100.333,156.167 101.667,156.833 103,157.5C 105.473,156.483 107.973,156.483 110.5,157.5C 110.5,158.5 110.5,159.5 110.5,160.5C 108.488,159.986 106.488,159.82 104.5,160C 107.097,161.757 109.097,163.924 110.5,166.5 Z"/></g>
<g><path style="opacity:1" fill="#047857" d="M 310.5,119.5 C 310.335,122.85 310.502,126.183 311,129.5C 312.367,128.476 313.2,128.976 313.5,131C 312.366,131.316 311.366,132.149 310.5,133.5C 311.304,135.136 312.304,136.636 313.5,138C 312.405,139.675 310.905,140.842 309,141.5C 308.667,142.833 308.333,144.167 308,145.5C 307.043,148.379 307.543,150.879 309.5,153C 308.576,153.85 308.576,154.85 309.5,156C 309.095,156.945 308.428,157.612 307.5,158C 307.833,158.333 308.167,158.667 308.5,159C 306.998,159.583 305.665,160.416 304.5,161.5C 302.82,164.861 301.153,168.194 299.5,171.5C 299.833,171.833 300.167,172.167 300.5,172.5C 301.333,171.5 302.167,170.5 303,169.5C 304.353,170.685 305.52,172.019 306.5,173.5C 307.386,172.675 307.719,171.675 307.5,170.5C 308.5,170.5 309.5,170.5 310.5,170.5C 310.587,167.402 310.087,167.068 309,169.5C 308.48,167.711 308.813,166.044 310,164.5C 311.919,163.926 313.753,163.593 315.5,163.5C 301.237,189.908 279.57,207.408 250.5,216C 242.935,217.859 235.268,219.026 227.5,219.5C 229.935,216.95 229.268,214.95 225.5,213.5C 218.682,211.508 212.015,209.842 205.5,208.5C 206.167,208.5 206.833,208.5 207.5,208.5C 213.161,208.907 218.828,209.24 224.5,209.5C 228.817,209.917 232.817,209.25 236.5,207.5C 269.283,199.881 292.116,180.548 305,149.5C 307.746,139.537 309.579,129.537 310.5,119.5 Z"/></g>
<g><path style="opacity:1" fill="#047857" d="M 289.5,140.5 C 266.809,158.519 243.809,176.185 220.5,193.5C 220.292,189.856 218.292,187.689 214.5,187C 216.059,186.02 217.726,185.187 219.5,184.5C 218.135,183.544 216.635,182.878 215,182.5C 213.629,183.581 212.129,184.415 210.5,185C 209.686,190.419 207.686,190.919 204.5,186.5C 232.608,170.794 260.941,155.46 289.5,140.5 Z"/></g>
<g><path style="opacity:1" fill="#047857" d="M 189.5,181.5 C 182.293,186.933 175.293,192.6 168.5,198.5C 165.653,197.988 162.986,196.988 160.5,195.5C 158.701,195.577 157.034,196.077 155.5,197C 156.833,197.667 156.833,198.333 155.5,199C 152.301,199.664 150.467,198.498 150,195.5C 152.456,194.426 154.956,193.426 157.5,192.5C 156.855,191.268 156.689,189.935 157,188.5C 156.333,189.167 155.667,189.833 155,190.5C 153.198,189.211 152.031,187.544 151.5,185.5C 156.307,182.595 161.307,179.928 166.5,177.5C 171.102,175.942 175.602,174.275 180,172.5C 180.333,172.833 180.667,173.167 181,173.5C 181.899,171.673 183.233,170.34 185,169.5C 185.95,170.022 186.784,170.689 187.5,171.5C 189.098,170.515 190.765,170.349 192.5,171C 191.391,172.813 192.058,173.646 194.5,173.5C 194.5,174.5 194.5,175.5 194.5,176.5C 192.833,176.5 191.167,176.5 189.5,176.5C 189.5,178.167 189.5,179.833 189.5,181.5 Z"/></g>
<g><path style="opacity:1" fill="#047857" d="M 151.5,185.5 C 152.031,187.544 153.198,189.211 155,190.5C 155.667,189.833 156.333,189.167 157,188.5C 156.689,189.935 156.855,191.268 157.5,192.5C 154.956,193.426 152.456,194.426 150,195.5C 150.467,198.498 152.301,199.664 155.5,199C 156.833,198.333 156.833,197.667 155.5,197C 157.034,196.077 158.701,195.577 160.5,195.5C 162.986,196.988 165.653,197.988 168.5,198.5C 167.028,200.134 165.362,201.634 163.5,203C 152.1,208.075 140.767,213.242 129.5,218.5C 129.527,215.61 130.693,214.61 133,215.5C 134.067,214.809 135.234,214.309 136.5,214C 136.167,213.667 135.833,213.333 135.5,213C 137.134,212.506 138.801,212.34 140.5,212.5C 140.5,211.5 140.5,210.5 140.5,209.5C 142.584,208.752 144.584,208.752 146.5,209.5C 148.415,207.528 150.749,206.528 153.5,206.5C 153.5,205.5 153.5,204.5 153.5,203.5C 152.167,203.5 150.833,203.5 149.5,203.5C 149.33,202.178 149.663,201.011 150.5,200C 148.925,200.379 147.425,200.212 146,199.5C 145.755,201.663 144.755,203.33 143,204.5C 142.735,202.837 143.235,201.337 144.5,200C 142.33,194.324 140.164,194.158 138,199.5C 137.014,198.829 135.847,198.829 134.5,199.5C 138.932,193.261 144.599,188.594 151.5,185.5 Z"/></g>
<g><path style="opacity:1" fill="#047857" d="M 220.5,193.5 C 215.164,197.519 209.831,201.519 204.5,205.5C 201.794,204.882 199.961,203.215 199,200.5C 198.439,201.022 197.772,201.355 197,201.5C 194.024,199.618 190.858,198.118 187.5,197C 188.756,196.583 189.423,195.75 189.5,194.5C 194.024,191.091 199.024,188.424 204.5,186.5C 207.686,190.919 209.686,190.419 210.5,185C 212.129,184.415 213.629,183.581 215,182.5C 216.635,182.878 218.135,183.544 219.5,184.5C 217.726,185.187 216.059,186.02 214.5,187C 218.292,187.689 220.292,189.856 220.5,193.5 Z"/></g>
<g><path style="opacity:1" fill="#047857" d="M 69.5,176.5 C 69.4142,177.496 69.7476,178.329 70.5,179C 68.5975,179.199 67.0975,180.033 66,181.5C 64.1,186.913 65.9334,189.247 71.5,188.5C 71.5,187.5 71.5,186.5 71.5,185.5C 73.1992,185.66 74.8659,185.494 76.5,185C 75.1667,184.333 75.1667,183.667 76.5,183C 78.8098,182.503 81.1432,182.337 83.5,182.5C 66.7991,192.498 49.7991,202.165 32.5,211.5C 30.8211,211.108 29.1545,210.608 27.5,210C 28.056,209.617 28.3893,209.117 28.5,208.5C 41.8561,197.482 55.5227,186.816 69.5,176.5 Z"/></g>
<g><path style="opacity:1" fill="#047857" d="M 189.5,194.5 C 189.423,195.75 188.756,196.583 187.5,197C 190.858,198.118 194.024,199.618 197,201.5C 197.772,201.355 198.439,201.022 199,200.5C 199.961,203.215 201.794,204.882 204.5,205.5C 204.5,205.833 204.5,206.167 204.5,206.5C 203.243,207.623 203.576,208.289 205.5,208.5C 212.015,209.842 218.682,211.508 225.5,213.5C 229.268,214.95 229.935,216.95 227.5,219.5C 206.317,221.374 186.317,217.207 167.5,207C 174.445,202.238 181.778,198.071 189.5,194.5 Z"/></g>
<g><path style="opacity:1" fill="#047857" d="M 129.5,218.5 C 124.101,221.199 118.768,223.866 113.5,226.5C 111.833,226.5 110.167,226.5 108.5,226.5C 117.167,217.5 125.833,208.5 134.5,199.5C 135.847,198.829 137.014,198.829 138,199.5C 140.164,194.158 142.33,194.324 144.5,200C 143.235,201.337 142.735,202.837 143,204.5C 144.755,203.33 145.755,201.663 146,199.5C 147.425,200.212 148.925,200.379 150.5,200C 149.663,201.011 149.33,202.178 149.5,203.5C 150.833,203.5 152.167,203.5 153.5,203.5C 153.5,204.5 153.5,205.5 153.5,206.5C 150.749,206.528 148.415,207.528 146.5,209.5C 144.584,208.752 142.584,208.752 140.5,209.5C 140.5,210.5 140.5,211.5 140.5,212.5C 138.801,212.34 137.134,212.506 135.5,213C 135.833,213.333 136.167,213.667 136.5,214C 135.234,214.309 134.067,214.809 133,215.5C 130.693,214.61 129.527,215.61 129.5,218.5 Z"/></g>
<g><path style="opacity:0.718" fill="#047857" d="M 204.5,206.5 C 205.5,207.167 206.5,207.833 207.5,208.5C 206.833,208.5 206.167,208.5 205.5,208.5C 203.576,208.289 203.243,207.623 204.5,206.5 Z"/></g>
<g><path style="opacity:1" fill="#047857" d="M 95.5,195.5 C 96.984,196.473 97.484,197.807 97,199.5C 95.2252,196.956 93.3918,196.956 91.5,199.5C 90.2612,201.007 90.5946,202.174 92.5,203C 91.6919,203.308 91.0253,203.808 90.5,204.5C 92.6215,206.115 94.9549,206.615 97.5,206C 93.9068,205.316 93.5735,203.816 96.5,201.5C 97.9759,203.571 99.9759,204.571 102.5,204.5C 88.3555,212.148 74.0222,219.482 59.5,226.5C 58.1667,226.5 56.8333,226.5 55.5,226.5C 68.4631,215.686 81.7965,205.352 95.5,195.5 Z"/></g>
<g><path style="opacity:1" fill="#047857" d="M 236.5,207.5 C 232.817,209.25 228.817,209.917 224.5,209.5C 228.316,208.518 232.316,207.851 236.5,207.5 Z"/></g>
<g><path style="opacity:1" fill="#047857" d="M 28.5,208.5 C 28.3893,209.117 28.056,209.617 27.5,210C 29.1545,210.608 30.8211,211.108 32.5,211.5C 23.7628,215.953 15.4294,220.953 7.5,226.5C 6.5,226.5 5.5,226.5 4.5,226.5C 12.2356,220.091 20.2356,214.091 28.5,208.5 Z"/></g>
</svg>
